{
.appVersion = "3091";
classes = (
{
code = "colon exclam period question semicolon quotedblleft quotedblright quoteleft quoteright questiondown exclamdown periodcentered ellipsis comma divide";
name = circular_punctuation;
},
{
code = "colon.ss01 exclam.ss01 period.ss01 question.ss01 semicolon.ss01 quotedblleft.ss01 quotedblright.ss01 quoteleft.ss01 quoteright.ss01 questiondown.ss01 exclamdown.ss01 periodcentered.ss01 ellipsis.ss01 comma.ss01 divide.ss01";
name = square_punctuation;
},
{
code = "a.old aacute abreve acircumflex adieresis agrave amacron aogonek aring atilde";
name = single_storey_a;
}
);
copyright = "Copyright 2021 The Albert Sans Project Authors (https://github.com/usted/Albert-Sans)";
customParameters = (
{
name = glyphOrder;
value = (
A,
Aacute,
Abreve,
Acircumflex,
Adieresis,
Agrave,
Amacron,
Aogonek,
Aring,
Atilde,
AE,
AEacute,
B,
C,
Cacute,
Ccaron,
Ccedilla,
Cdotaccent,
D,
Eth,
Dcaron,
Dcroat,
E,
Eacute,
Ebreve,
Ecaron,
Ecircumflex,
Edieresis,
Edotaccent,
Egrave,
Emacron,
Eogonek,
Etilde,
F,
G,
Gbreve,
Gcommaaccent,
Gdotaccent,
H,
I,
Iacute,
Ibreve,
Icircumflex,
Idieresis,
Idotaccent,
Igrave,
Imacron,
Iogonek,
Itilde,
J,
K,
Kcommaaccent,
L,
Lacute,
Lcaron,
Lcommaaccent,
Ldot,
Lslash,
M,
N,
Nacute,
Ncaron,
Ncommaaccent,
Ntilde,
O,
Oacute,
Obreve,
Ocircumflex,
Odieresis,
Ograve,
Ohungarumlaut,
Omacron,
Oslash,
Otilde,
OE,
P,
Thorn,
Q,
R,
Racute,
Rcaron,
Rcommaaccent,
S,
Sacute,
Scaron,
Scedilla,
Scommaaccent,
T,
Tcaron,
Tcedilla,
Tcommaaccent,
U,
Uacute,
Ubreve,
Ucircumflex,
Udieresis,
Ugrave,
Uhungarumlaut,
Umacron,
Uogonek,
Uring,
Utilde,
V,
W,
Wacute,
Wcircumflex,
Wdieresis,
Wgrave,
X,
Y,
Yacute,
Ycircumflex,
Ydieresis,
Ygrave,
Ytilde,
Z,
Zacute,
Zcaron,
Zdotaccent,
a.old,
aacute,
abreve,
acircumflex,
adieresis,
agrave,
amacron,
aogonek,
aring,
atilde,
ae,
aeacute,
b,
c,
cacute,
ccaron,
ccedilla,
cdotaccent,
d,
eth,
dcaron,
dcroat,
e,
eacute,
ebreve,
ecaron,
ecircumflex,
edieresis,
edotaccent,
egrave,
emacron,
eogonek,
etilde,
f,
g,
gbreve,

glyphs = (
{
glyphname = A;
lastChange = "2021-08-10 05:27:38 +0000";
layers = (
{
anchors = (
{
name = ogonek;
position = "{588.62, 0}";
},
{
name = top;
position = "{445.62, 700}";
}
);
hints = (
{
horizontal = 1;
place = "{174, 93}";
type = Stem;
},
{
horizontal = 1;
place = "{700, -20}";
target = down;
type = TopGhost;
},
{
horizontal = 1;
place = "{0, 21}";
target = up;
type = BottomGhost;
}
);
layerId = "24A19461-EE5C-48C0-A968-CC082199DAC2";
paths = (
{
closed = 1;
nodes = (
"77.72 0 LINE",
"172.679 174 LINE",
"509.939 173.8 LINE",
"535.52 0 LINE",
"655.47 0 LINE",
"546.02 700.35 LINE",
"346.82 700.35 LINE",
"-41.23 0 LINE"
);
},
{
closed = 1;
nodes = (
"496.186 267.05 LINE",
"223.646 267.35 LINE",
"409.182 607.4 LINE",
"446.082 607.4 LINE"
);
}
);
width = 713.7;
},
{
anchors = (
{
name = ogonek;
position = "{638.35, 0}";
},
{
name = top;
position = "{356.35, 700}";
}
);
hints = (
{
horizontal = 1;
place = "{175, 92}";
type = Stem;
},
{
horizontal = 1;
place = "{700, -20}";
target = down;
type = TopGhost;
},
{
horizontal = 1;
place = "{0, 21}";
target = up;
type = BottomGhost;
}
);
layerId = "0CF0EA28-C756-4A9E-9D7C-CFEF350B4CFE";
paths = (
{
closed = 1;
nodes = (
"127.45 0 LINE",
"188.15 175 LINE",
"524.7 174.8 LINE",
"585.25 0 LINE",
"705.2 0 LINE",
"456.45 700.35 LINE",
"257.25 700.35 LINE",
"8.5 0 LINE"
);
},
{
closed = 1;
nodes = (
"492.7 267.1 LINE",
"220.2 267.35 LINE",
"338.25 607.4 LINE",
"374.7 607.4 LINE"
);
}
);
width = 713.7;
},
{
anchors = (
{
name = ogonek;
position = "{581.241, 0}";
},
{
name = top;
position = "{311.965, 697.064}";
}
);
hints = (
{
horizontal = 1;
place = "{700, -20}";
target = down;
type = TopGhost;
},
{
horizontal = 1;
place = "{0, 21}";
target = up;
type = BottomGhost;
}
);
layerId = "6E968933-CD79-43C6-9231-80D77C940F4D";
paths = (
{
closed = 1;
nodes = (
"35.499 0.05 LINE",
"115.529 210.128 LINE",
"505.468 210.124 LINE",
"585.005 0.05 LINE",
"610.068 0.05 LINE",
"343.114 700.045 LINE",
"278.195 700.045 LINE",
"10.457 0.05 LINE"
);
},
{
closed = 1;
nodes = (
"498.132 229.605 LINE",
"122.915 229.61 LINE",
"294.893 680.891 LINE",
"327.232 680.891 LINE"
);
}
);
width = 620.52553;
},
{
anchors = (
{
name = ogonek;
position = "{717.938, 0.575}";
},
{
name = top;
position = "{403.136, 700}";
}
);
hints = (
{
horizontal = 1;
place = "{375, 141}";
type = Stem;
},
{
horizontal = 1;
place = "{297, -20}";
target = down;
type = TopGhost;
},
{
horizontal = 1;
place = "{0, 21}";
target = up;
type = BottomGhost;
}
);
layerId = "BAF31694-0472-4296-B0EA-1654553C45D2";
paths = (
{
closed = 1;
nodes = (
"190.119 0 LINE",
"239.367 145.248 LINE",
"566.479 145.163 LINE",
"615.577 0 LINE",
"801.361 0 LINE",
"546.742 700.177 LINE",
"260.53 700.177 LINE",
"5.335 0 LINE"
);
},
{
closed = 1;
nodes = (
"521.33 280.019 LINE",
"284.653 280.125 LINE",
"379.31 558.859 LINE",
"426.924 558.859 LINE"
);
}
);
width = 806.69623;
},
{
anchors = (
{
name = ogonek;
position = "{531.511, 0}";
},
{
name = top;
position = "{401.235, 697.064}";
}
);
hints = (
{
horizontal = 1;
place = "{4, 2}";
type = Stem;
},
{
horizontal = 1;
place = "{700, -20}";
target = down;
type = TopGhost;
},
{
horizontal = 1;
place = "{0, 21}";
target = up;
type = BottomGhost;
}
);
layerId = "F7832249-9EF4-4513-B883-88BAA20BF268";
paths = (
{
closed = 1;
nodes = (
"-14.221 0.05 LINE",
"107.746 210.156 LINE",
"497.455 210.152 LINE",
"535.285 0.05 LINE",
"560.348 0.05 LINE",
"432.646 700.045 LINE",
"367.727 700.045 LINE",
"-39.263 0.05 LINE"
);
},
{
closed = 1;
nodes = (
"493.992 229.653 LINE",
"118.97 229.659 LINE",
"380.69 680.551 LINE",
"412.844 680.551 LINE"
);
}
);
width = 620.52553;
},
{
anchors = (
{
name = ogonek;
position = "{668.208, 0.575}";
},
{
name = top;
position = "{492.406, 700}";
}
);
hints = (
{
horizontal = 1;
place = "{71, 96}";
type = Stem;
},
{
horizontal = 1;
place = "{375, 141}";
type = Stem;
},
{
horizontal = 1;
place = "{0, 21}";
target = up;
type = BottomGhost;
}
);
layerId = "9CDD62D3-67F3-4AC7-B192-D539276CE01F";
paths = (
{
closed = 1;
nodes = (
"140.389 0 LINE",
"218.323 144.824 LINE",
"545.679 144.739 LINE",
"565.847 0 LINE",
"751.631 0 LINE",
"636.277 700.177 LINE",
"350.066 700.177 LINE",
"-44.395 0 LINE"
);
},
{
closed = 1;
nodes = (
"527.333 279.998 LINE",
"290.668 280.125 LINE",
"440.674 558.859 LINE",
"488.479 558.859 LINE"
);
}
);
width = 806.69623;
}
);
leftMetricsKey = "=H*0.1";
rightMetricsKey = "=H*0.1";
unicode = 0041;
},
{
glyphname = Aogonek;
lastChange = "2021-08-10 05:27:38 +0000";
layers = (
{
anchors = (
{
name = _ogonek;
position = "{485.75, 0}";
}
);
components = (
{
alignment = -1;
name = A;
transform = "{1, 0, 0, 1, 0.002, 0}";
}
);
hints = (
{
horizontal = 1;
place = "{-213, 74}";
type = Stem;
}
);
layerId = "24A19461-EE5C-48C0-A968-CC082199DAC2";
paths = (
{
closed = 1;
nodes = (
"577.401 38.642 LINE SMOOTH",
"474.786 -4.667 OFFCURVE",
"432.193 -52.893 OFFCURVE",
"422.013 -104.075 CURVE SMOOTH",
"406.035 -184.402 OFFCURVE",
"470.442 -212.517 OFFCURVE",
"533.442 -212.517 CURVE SMOOTH",
"562.482 -212.517 OFFCURVE",
"592.677 -206.483 OFFCURVE",
"617.443 -197.432 CURVE",
"631.944 -124.53 LINE",
"607.1 -133.61 OFFCURVE",
"582.098 -138.654 OFFCURVE",
"563.135 -138.654 CURVE SMOOTH",
"529.135 -138.654 OFFCURVE",
"511.767 -120.393 OFFCURVE",
"517.417 -91.989 CURVE SMOOTH",
"522.264 -67.622 OFFCURVE",
"540.291 -47.375 OFFCURVE",
"587.699 -25.216 CURVE SMOOTH",
"641.505 -0.131 LINE",
"623.276 57.807 LINE"
);
}
);
width = 714.94;
},
{
anchors = (
{
name = _ogonek;
position = "{-333.59, 0}";
}
);
components = (
{
alignment = -1;
name = A;
transform = "{1, 0, 0, 1, -0.005, 0}";
}
);
hints = (
{
place = "{456, 93}";
type = Stem;
},
{
place = "{456, 214}";
type = Stem;
},
{
horizontal = 1;
place = "{-213, 74}";
type = Stem;
}
);
layerId = "0CF0EA28-C756-4A9E-9D7C-CFEF350B4CFE";
paths = (
{
closed = 1;
nodes = (
"582.41 38.642 LINE SMOOTH",
"488.41 -4.667 OFFCURVE",
"455.41 -52.893 OFFCURVE",
"455.41 -104.075 CURVE SMOOTH",
"455.41 -184.402 OFFCURVE",
"525.41 -212.517 OFFCURVE",
"588.41 -212.517 CURVE SMOOTH",
"617.45 -212.517 OFFCURVE",
"646.445 -206.483 OFFCURVE",
"669.41 -197.432 CURVE",
"669.41 -124.53 LINE",
"646.373 -133.61 OFFCURVE",
"622.373 -138.654 OFFCURVE",
"603.41 -138.654 CURVE SMOOTH",
"569.41 -138.654 OFFCURVE",
"548.41 -120.393 OFFCURVE",
"548.41 -91.989 CURVE SMOOTH",
"548.41 -67.622 OFFCURVE",
"562.41 -47.375 OFFCURVE",
"605.41 -25.216 CURVE SMOOTH",
"654.227 -0.131 LINE",
"624.473 57.807 LINE"
);
}
);
width = 713.7;
},
{
anchors = (
{
name = _ogonek;
position = "{-270.11, 0}";
}
);
components = (
{
alignment = -1;
name = A;
transform = "{1, 0, 0, 1, 0.004, 0}";
}
);
hints = (
{
place = "{422, 21}";
type = Stem;
},
{
horizontal = 1;
place = "{-185, 21}";
target = up;
type = BottomGhost;
}
);
layerId = "6E968933-CD79-43C6-9231-80D77C940F4D";
paths = (
{
closed = 1;
nodes = (
"523.55 -14.698 LINE SMOOTH",
"460.869 -42.869 OFFCURVE",
"436.677 -76.982 OFFCURVE",
"436.677 -115.051 CURVE SMOOTH",
"436.677 -166.392 OFFCURVE",
"476.337 -189.372 OFFCURVE",
"527.592 -189.372 CURVE SMOOTH",
"546.806 -189.372 OFFCURVE",
"568.955 -185.351 OFFCURVE",
"589.996 -177.374 CURVE",
"589.996 -156.359 LINE",
"568.953 -164.338 OFFCURVE",
"546.91 -169.311 OFFCURVE",
"526.933 -169.311 CURVE SMOOTH",
"488.039 -169.311 OFFCURVE",
"458.23 -152.379 OFFCURVE",
"458.23 -113.82 CURVE SMOOTH",
"458.23 -85.08 OFFCURVE",
"476.145 -56.428 OFFCURVE",
"527.954 -32.6 CURVE SMOOTH",
"599.461 0.047 LINE",
"591.976 15.878 LINE"
);
}
);
width = 620.52553;
},
{
anchors = (
{
name = _ogonek;
position = "{281.278, 0.575}";
}
);
components = (
{
alignment = -1;
name = A;
transform = "{1, 0, 0, 1, -0.004, 0}";
}
);
hints = (
{
place = "{194, 39}";
type = Stem;
},
{
place = "{456, 180}";
type = Stem;
},
{
horizontal = 1;
place = "{-218, 99}";
type = Stem;
}
);
layerId = "BAF31694-0472-4296-B0EA-1654553C45D2";
paths = (
{
closed = 1;
nodes = (
"621.816 67.44 LINE SMOOTH",
"492.184 13.225 OFFCURVE",
"455.684 -37.416 OFFCURVE",
"455.684 -99.854 CURVE SMOOTH",
"455.684 -179.787 OFFCURVE",
"519.929 -218.076 OFFCURVE",
"604.222 -218.076 CURVE SMOOTH",
"641.218 -218.076 OFFCURVE",
"675.403 -212.101 OFFCURVE",
"704.212 -202.57 CURVE",
"704.212 -104.412 LINE",
"675.524 -114.475 OFFCURVE",
"649.793 -119.438 OFFCURVE",
"629.005 -119.438 CURVE SMOOTH",
"600.759 -119.438 OFFCURVE",
"584.363 -106.859 OFFCURVE",
"584.363 -86.22 CURVE SMOOTH",
"584.363 -67.17 OFFCURVE",
"597.212 -47.576 OFFCURVE",
"651.722 -22.864 CURVE SMOOTH",
"698.107 -1.3 LINE",
"660.817 84.02 LINE"
);
}
);
width = 806.69623;
},
{
anchors = (
{
name = _ogonek;
position = "{429.806, 0}";
}
);
components = (
{
alignment = -1;
name = A;
transform = "{1, 0, 0, 1, 0.005, 0}";
}
);
hints = (
{
horizontal = 1;
place = "{-5, 2}";
type = Stem;
}
);
layerId = "F7832249-9EF4-4513-B883-88BAA20BF268";
paths = (
{
closed = 1;
nodes = (
"515.177 -14.698 LINE SMOOTH",
"446.892 -42.869 OFFCURVE",
"415.916 -76.982 OFFCURVE",
"408.343 -115.051 CURVE SMOOTH",
"398.131 -166.392 OFFCURVE",
"433.219 -189.372 OFFCURVE",
"484.475 -189.372 CURVE SMOOTH",
"503.688 -189.372 OFFCURVE",
"526.637 -185.351 OFFCURVE",
"549.266 -177.374 CURVE",
"553.445 -156.359 LINE",
"530.815 -164.338 OFFCURVE",
"507.784 -169.311 OFFCURVE",
"487.806 -169.311 CURVE SMOOTH",
"448.912 -169.311 OFFCURVE",
"422.471 -152.379 OFFCURVE",
"430.141 -113.82 CURVE SMOOTH",
"435.858 -85.08 OFFCURVE",
"459.472 -56.428 OFFCURVE",
"516.02 -32.6 CURVE SMOOTH",
"594.021 0.047 LINE",
"589.686 15.878 LINE"
);
}
);
width = 654.5234;
},
{
anchors = (
{
name = _ogonek;
position = "{709.488, 0.575}";
}
);
components = (
{
alignment = -1;
name = A;
transform = "{1, 0, 0, 1, 0.004, 0}";
}
);
hints = (
{
horizontal = 1;
place = "{-217, 99}";
type = Stem;
}
);
layerId = "9CDD62D3-67F3-4AC7-B192-D539276CE01F";
paths = (
{
closed = 1;
nodes = (
"624.369 68.892 LINE SMOOTH",
"483.953 14.676 OFFCURVE",
"437.38 -35.964 OFFCURVE",
"424.96 -98.402 CURVE SMOOTH",
"409.06 -178.335 OFFCURVE",
"465.689 -216.625 OFFCURVE",
"549.982 -216.625 CURVE SMOOTH",
"586.978 -216.625 OFFCURVE",
"622.352 -210.65 OFFCURVE",
"653.057 -201.118 CURVE",
"672.582 -102.96 LINE",
"641.891 -113.023 OFFCURVE",
"615.173 -117.987 OFFCURVE",
"594.385 -117.987 CURVE SMOOTH",
"566.14 -117.987 OFFCURVE",
"552.246 -105.408 OFFCURVE",
"556.351 -84.769 CURVE SMOOTH",
"560.14 -65.719 OFFCURVE",
"576.887 -46.124 OFFCURVE",
"636.312 -21.413 CURVE SMOOTH",
"686.987 0.152 LINE",
"666.668 85.472 LINE"
);
}
);
width = 807.05;
}
);
leftMetricsKey = A;
rightMetricsKey = A;
unicode = 0104;
},
{
glyphname = AE;
lastChange = "2021-08-10 05:27:38 +0000";
layers = (
{
hints = (
{
horizontal = 1;
place = "{0, 89}";
type = Stem;
},
{
horizontal = 1;
place = "{143, 89}";
type = Stem;
},
{
horizontal = 1;
place = "{310, 88}";
type = Stem;
},
{
horizontal = 1;
place = "{611, 89}";
type = Stem;
}
);
layerId = "24A19461-EE5C-48C0-A968-CC082199DAC2";
paths = (
{
closed = 1;
nodes = (
"127.225 143.021 LINE",
"499.947 143.021 LINE",
"517.643 231.992 LINE",
"194.548 231.992 LINE"
);
},
{
closed = 1;
nodes = (
"923.1 611.364 LINE",
"940.797 700.336 LINE",
"480.702 700.336 LINE",
"-41.229 0 LINE",
"82.594 0 LINE",
"542.037 621.102 LINE",
"418.5 0 LINE",
"801.5 0 LINE",
"819.196 88.971 LINE",
"550.263 89.306 LINE",
"594.202 310.214 LINE",
"833.202 310.214 LINE",
"850.731 398.346 LINE",
"611.731 398.346 LINE",
"654.1 611.364 LINE"
);
}
);
width = 916.23;
},
{
hints = (
{
place = "{468, 114}";
type = Stem;
},
{
horizontal = 1;
place = "{0, 89}";
type = Stem;
},
{
horizontal = 1;
place = "{143, 89}";
type = Stem;
},
{
horizontal = 1;
place = "{310, 88}";
type = Stem;
},
{
horizontal = 1;
place = "{611, 89}";
type = Stem;
}
);
layerId = "0CF0EA28-C756-4A9E-9D7C-CFEF350B4CFE";
paths = (
{
closed = 1;
nodes = (
"148.508 143.021 LINE",
"521.23 143.021 LINE",
"521.23 231.992 LINE",
"198.135 231.992 LINE"
);
},
{
closed = 1;
nodes = (
"851.23 611.364 LINE",
"851.23 700.336 LINE",
"391.135 700.336 LINE",
"8.501 0 LINE",
"132.324 0 LINE",
"468.23 621.102 LINE",
"468.23 0 LINE",
"851.23 0 LINE",
"851.23 88.971 LINE",
"582.23 89.306 LINE",
"582.23 310.214 LINE",
"821.23 310.214 LINE",
"821.23 398.346 LINE",
"582.23 398.346 LINE",
"582.23 611.364 LINE"
);
}
);
width = 916.23;
},
{
hints = (
{
place = "{447, 21}";
type = Stem;
},
{
horizontal = 1;
place = "{685, -20}";
target = down;
type = TopGhost;
},
{
horizontal = 1;
place = "{0, 21}";
target = up;
type = BottomGhost;
}
);
layerId = "6E968933-CD79-43C6-9231-80D77C940F4D";
paths = (
{
closed = 1;
nodes = (
"137.734 191.883 LINE",
"452.005 191.883 LINE",
"452.005 211.293 LINE",
"144.662 211.293 LINE"
);
},
{
closed = 1;
nodes = (
"788.856 680.635 LINE",
"788.856 700.044 LINE",
"442.386 700.044 LINE",
"10.457 0.05 LINE",
"35.603 0.05 LINE",
"444.026 662.352 LINE",
"444.026 0.05 LINE",
"788.856 0.05 LINE",
"788.856 19.46 LINE",
"466.026 19.467 LINE",
"466.026 340.439 LINE",
"758.856 340.439 LINE",
"758.856 359.83 LINE",
"466.026 359.83 LINE",
"466.026 680.635 LINE"
);
}
);
width = 873.43043;
},
{
hints = (
{
place = "{483, 176}";
type = Stem;
},
{
horizontal = 1;
place = "{0, 140}";
type = Stem;
},
{
horizontal = 1;
place = "{116, 134}";
type = Stem;
},
{
horizontal = 1;
place = "{290, 133}";
type = Stem;
},
{
horizontal = 1;
place = "{561, 139}";
type = Stem;
}
);
layerId = "BAF31694-0472-4296-B0EA-1654553C45D2";
paths = (
{
closed = 1;
nodes = (
"153.858 115.7 LINE",
"567.665 115.7 LINE",
"567.665 249.661 LINE",
"229.308 249.661 LINE"
);
},
{
closed = 1;
nodes = (
"911.476 561.1 LINE",
"911.476 700.163 LINE",
"363.6 700.163 LINE",
"5.333 0 LINE",
"196.911 0 LINE",
"483.014 568.511 LINE",
"483.014 0 LINE",
"911.476 0 LINE",
"911.476 139.629 LINE",
"659.165 139.771 LINE",
"659.165 290.41 LINE",
"881.476 290.41 LINE",
"881.476 424.014 LINE",
"659.165 424.014 LINE",
"659.165 561.1 LINE"
);
}
);
width = 944.82519;
},
{
hints = (
{
horizontal = 1;
place = "{0, 2}";
type = Stem;
},
{
horizontal = 1;
place = "{3, 2}";
type = Stem;
},
{
horizontal = 1;
place = "{7, 2}";
type = Stem;
},
{
horizontal = 1;
place = "{13, 208}";
type = Stem;
}
);
layerId = "F7832249-9EF4-4513-B883-88BAA20BF268";
paths = (
{
closed = 1;
nodes = (
"126.176 191.883 LINE",
"440.446 191.883 LINE",
"444.308 211.293 LINE",
"136.966 211.293 LINE"
);
},
{
closed = 1;
nodes = (
"874.527 680.635 LINE",
"878.388 700.044 LINE",
"531.918 700.044 LINE",
"-39.263 0.05 LINE",
"-14.118 0.05 LINE",
"526.06 662.352 LINE",
"394.306 0.05 LINE",
"739.136 0.05 LINE",
"742.997 19.46 LINE",
"420.169 19.467 LINE",
"484.021 340.439 LINE",
"776.851 340.439 LINE",
"780.708 359.83 LINE",
"487.878 359.83 LINE",
"551.697 680.635 LINE"
);
}
);
width = 873.44021;
},
{
hints = (
{
horizontal = 1;
place = "{0, 140}";
type = Stem;
},
{
horizontal = 1;
place = "{116, 134}";
type = Stem;
},
{
horizontal = 1;
place = "{290, 133}";
type = Stem;
},
{
horizontal = 1;
place = "{561, 139}";
type = Stem;
}
);
layerId = "9CDD62D3-67F3-4AC7-B192-D539276CE01F";
paths = (
{
closed = 1;
nodes = (
"127.146 115.7 LINE",
"540.953 115.7 LINE",
"567.598 249.661 LINE",
"229.241 249.661 LINE"
);
},
{
closed = 1;
nodes = (
"973.355 561.1 LINE",
"1001.014 700.163 LINE",
"453.138 700.163 LINE",
"-44.391 0 LINE",
"147.187 0 LINE",
"546.366 568.511 LINE",
"433.29 0 LINE",
"861.752 0 LINE",
"889.524 139.629 LINE",
"637.241 139.771 LINE",
"667.203 290.41 LINE",
"889.515 290.41 LINE",
"916.088 424.014 LINE",
"693.777 424.014 LINE",
"721.043 561.1 LINE"
);
}
);
width = 944.83094;
}
);
leftMetricsKey = A;
rightMetricsKey = E;
unicode = 00C6;
},
{
glyphname = B;
lastChange = "2021-08-10 05:27:38 +0000";
layers = (
{
hints = (
{
horizontal = 1;
place = "{0, 93}";
type = Stem;
},
{
horizontal = 1;
place = "{308, 93}";
type = Stem;
},
{
horizontal = 1;
place = "{607, 93}";
type = Stem;
}
);
layerId = "24A19461-EE5C-48C0-A968-CC082199DAC2";
paths = (
{
closed = 1;
nodes = (
"536.513 438.599 OFFCURVE",
"484.113 401.396 OFFCURVE",
"410.113 401.396 CURVE SMOOTH",
"229.113 401.396 LINE",
"270.075 607.328 LINE",
"451.075 607.328 LINE SMOOTH",
"525.075 607.328 OFFCURVE",
"562.041 566.939 OFFCURVE",
"549.378 503.275 CURVE SMOOTH"
);
},
{
closed = 1;
nodes = (
"641.368 302.134 OFFCURVE",
"580.791 349.727 OFFCURVE",
"481.857 354.864 CURVE",
"481.988 355.524 LINE",
"568.357 367.431 OFFCURVE",
"647.598 413.889 OFFCURVE",
"668.182 517.376 CURVE SMOOTH",
"687.78 615.897 OFFCURVE",
"626.574 700.328 OFFCURVE",
"479.574 700.328 CURVE SMOOTH",
"174.574 700.328 LINE",
"35.27 0 LINE",
"353.27 0 LINE SMOOTH",
"495.27 0 OFFCURVE",
"597.27 80.438 OFFCURVE",
"618.469 187.01 CURVE SMOOTH"
);
},
{
closed = 1;
nodes = (
"493.408 131.403 OFFCURVE",
"438.742 92.867 OFFCURVE",
"361.769 93 CURVE SMOOTH",
"167.835 93.334 LINE",
"210.581 308.229 LINE",
"400.581 308.229 LINE SMOOTH",
"476.581 308.229 OFFCURVE",
"520.738 268.8 OFFCURVE",
"506.873 199.096 CURVE SMOOTH"
);
},
{
closed = 1;
nodes = (
"424.789 334.416 LINE",
"503.789 334.416 LINE",
"514.475 388.135 LINE",
"435.475 388.135 LINE"
);
}
);
width = 687.1;
},
{
hints = (
{
place = "{85, 114}";
type = Stem;
},
{
place = "{499, 116}";
type = Stem;
},
{
place = "{517, 114}";
type = Stem;
},
{
horizontal = 1;
place = "{0, 93}";
type = Stem;
},
{
horizontal = 1;
place = "{308, 93}";
type = Stem;
},
{
horizontal = 1;
place = "{607, 93}";
type = Stem;
}
);
layerId = "0CF0EA28-C756-4A9E-9D7C-CFEF350B4CFE";
paths = (
{
closed = 1;
nodes = (
"499 438.599 OFFCURVE",
"454 401.396 OFFCURVE",
"380 401.396 CURVE SMOOTH",
"199 401.396 LINE",
"199 607.328 LINE",
"380 607.328 LINE SMOOTH",
"454 607.328 OFFCURVE",
"499 566.939 OFFCURVE",
"499 503.275 CURVE SMOOTH"
);
},
{
closed = 1;
nodes = (
"631 302.134 OFFCURVE",
"560.956 349.727 OFFCURVE",
"461 354.865 CURVE",
"461 355.524 LINE",
"545 367.431 OFFCURVE",
"615 413.889 OFFCURVE",
"615 517.376 CURVE SMOOTH",
"615 615.897 OFFCURVE",
"537 700.328 OFFCURVE",
"390 700.328 CURVE SMOOTH",
"85 700.328 LINE",
"85 0 LINE",
"403 0 LINE SMOOTH",
"545 0 OFFCURVE",
"631 80.438 OFFCURVE",
"631 187.01 CURVE SMOOTH"
);
},
{
closed = 1;
nodes = (
"517 131.403 OFFCURVE",
"470 92.867 OFFCURVE",
"393 93 CURVE SMOOTH",
"199 93.334 LINE",
"199 308.229 LINE",
"389 308.229 LINE SMOOTH",
"465 308.229 OFFCURVE",
"517 268.8 OFFCURVE",
"517 199.096 CURVE SMOOTH"
);
},
{
closed = 1;
nodes = (
"408 334.416 LINE",
"487 334.416 LINE",
"487 388.135 LINE",
"408 388.135 LINE"
);
}
);
width = 687.1;
},
{
hints = (
{
place = "{103, 22}";
type = Stem;
},
{
place = "{539, 22}";
type = Stem;
},
{
place = "{561, 22}";
type = Stem;
},
{
horizontal = 1;
place = "{685, -20}";
target = down;
type = TopGhost;
},
{
horizontal = 1;
place = "{0, 21}";
target = up;
type = BottomGhost;
}
);
layerId = "6E968933-CD79-43C6-9231-80D77C940F4D";
paths = (
{
closed = 1;
nodes = (
"543.043 434.655 OFFCURVE",
"481.404 369.606 OFFCURVE",
"363.362 369.606 CURVE SMOOTH",
"126.574 369.606 LINE",
"126.574 680.574 LINE",
"357.489 680.574 LINE SMOOTH",
"488.255 680.574 OFFCURVE",
"543.043 615.475 OFFCURVE",
"543.043 528.481 CURVE"
);
},
{
closed = 1;
nodes = (
"581.085 291.616 OFFCURVE",
"497.382 359.754 OFFCURVE",
"400.319 359.863 CURVE",
"392.489 357.932 LINE",
"473.553 359.158 OFFCURVE",
"565.085 408.827 OFFCURVE",
"565.085 528.781 CURVE",
"565.085 624.301 OFFCURVE",
"504.702 700.058 OFFCURVE",
"357.702 700.058 CURVE SMOOTH",
"104.574 700.058 LINE",
"104.574 0.05 LINE",
"357.979 0.05 LINE SMOOTH",
"509.766 0.05 OFFCURVE",
"581.085 83.507 OFFCURVE",
"581.085 186.984 CURVE SMOOTH"
);
},
{
closed = 1;
nodes = (
"559.085 84.592 OFFCURVE",
"484.681 19.532 OFFCURVE",
"357.766 19.535 CURVE SMOOTH",
"126.574 19.542 LINE",
"126.574 350.118 LINE",
"355.723 350.118 LINE SMOOTH",
"482.617 350.118 OFFCURVE",
"559.085 287.987 OFFCURVE",
"559.085 187.241 CURVE SMOOTH"
);
},
{
closed = 1;
nodes = (
"343.404 353.589 LINE",
"432.191 353.589 LINE",
"432.191 367.383 LINE",
"343.404 367.383 LINE"
);
}
);
width = 650.10426;
},
{
hints = (
{
place = "{53, 176}";
type = Stem;
},
{
place = "{463, 179}";
type = Stem;
},
{
place = "{480, 179}";
type = Stem;
},
{
horizontal = 1;
place = "{0, 142}";
type = Stem;
},
{
horizontal = 1;
place = "{290, 133}";
type = Stem;
},
{
horizontal = 1;
place = "{559, 141}";
type = Stem;
}
);
layerId = "BAF31694-0472-4296-B0EA-1654553C45D2";
paths = (
{
closed = 1;
nodes = (
"463.321 444.675 OFFCURVE",
"433.283 422.561 OFFCURVE",
"378.849 422.561 CURVE SMOOTH",
"229.5 422.561 LINE",
"229.5 559.387 LINE",
"378.849 559.387 LINE SMOOTH",
"433.283 559.387 OFFCURVE",
"463.321 535.514 OFFCURVE",
"463.321 489.945 CURVE SMOOTH"
);
},
{
closed = 1;
nodes = (
"658.623 291.011 OFFCURVE",
"592.057 351.783 OFFCURVE",
"478.264 356.798 CURVE",
"475.342 360.54 LINE",
"570.519 365.595 OFFCURVE",
"642.623 414.26 OFFCURVE",
"642.623 517.428 CURVE SMOOTH",
"642.623 629.486 OFFCURVE",
"557.142 700.159 OFFCURVE",
"413.594 700.159 CURVE SMOOTH",
"53.349 700.159 LINE",
"53.349 0 LINE",
"424.868 0 LINE SMOOTH",
"573.774 0 OFFCURVE",
"658.623 74.103 OFFCURVE",
"658.623 190.122 CURVE SMOOTH"
);
},
{
closed = 1;
nodes = (
"479.594 167.88 OFFCURVE",
"448.708 141.85 OFFCURVE",
"393 141.906 CURVE SMOOTH",
"229.5 142.048 LINE",
"229.5 289.584 LINE",
"391.302 289.584 LINE SMOOTH",
"446.585 289.584 OFFCURVE",
"479.594 262.504 OFFCURVE",
"479.594 215.11 CURVE SMOOTH"
);
},
{
closed = 1;
nodes = (
"426.991 332.427 LINE",
"500.811 332.427 LINE",
"500.811 387.37 LINE",
"426.991 387.37 LINE"
);
}
);
width = 693.83302;
},
{
hints = (
{
horizontal = 1;
place = "{0, 2}";
type = Stem;
},
{
horizontal = 1;
place = "{7, 2}";
type = Stem;
},
{
horizontal = 1;
place = "{13, 2}";
type = Stem;
}
);
layerId = "F7832249-9EF4-4513-B883-88BAA20BF268";
paths = (
{
closed = 1;
nodes = (
"579.771 434.655 OFFCURVE",
"505.194 369.606 OFFCURVE",
"387.151 369.606 CURVE SMOOTH",
"150.364 369.606 LINE",
"212.219 680.574 LINE",
"443.134 680.574 LINE SMOOTH",
"573.9 680.574 OFFCURVE",
"615.738 615.475 OFFCURVE",
"598.434 528.481 CURVE SMOOTH"
);
},
{
closed = 1;
nodes = (
"589.361 291.616 OFFCURVE",
"519.212 359.754 OFFCURVE",
"422.171 359.863 CURVE",
"413.956 357.932 LINE",
"495.264 359.158 OFFCURVE",
"596.676 408.827 OFFCURVE",
"620.536 528.781 CURVE SMOOTH",
"639.537 624.301 OFFCURVE",
"594.222 700.058 OFFCURVE",
"447.222 700.058 CURVE SMOOTH",
"194.095 700.058 LINE",
"54.854 0.05 LINE",
"308.259 0.05 LINE SMOOTH",
"460.046 0.05 OFFCURVE",
"547.966 83.507 OFFCURVE",
"568.548 186.984 CURVE SMOOTH"
);
},
{
closed = 1;
nodes = (
"526.182 84.592 OFFCURVE",
"438.836 19.532 OFFCURVE",
"311.922 19.535 CURVE SMOOTH",
"80.732 19.542 LINE",
"146.487 350.118 LINE",
"375.636 350.118 LINE SMOOTH",
"502.53 350.118 OFFCURVE",
"566.639 287.987 OFFCURVE",
"546.599 187.241 CURVE SMOOTH"
);
},
{
closed = 1;
nodes = (
"364.007 353.589 LINE",
"452.795 353.589 LINE",
"455.538 367.383 LINE",
"366.751 367.383 LINE"
);
}
);
width = 650.10426;
},
{
hints = (
{
horizontal = 1;
place = "{0, 142}";
type = Stem;
},
{
horizontal = 1;
place = "{290, 133}";
type = Stem;
},
{
horizontal = 1;
place = "{559, 141}";
type = Stem;
}
);
layerId = "9CDD62D3-67F3-4AC7-B192-D539276CE01F";
paths = (
{
closed = 1;
nodes = (
"502.042 444.675 OFFCURVE",
"467.606 422.561 OFFCURVE",
"413.172 422.561 CURVE SMOOTH",
"263.823 422.561 LINE",
"291.039 559.387 LINE",
"440.388 559.387 LINE SMOOTH",
"494.822 559.387 OFFCURVE",
"520.111 535.514 OFFCURVE",
"511.047 489.945 CURVE SMOOTH"
);
},
{
closed = 1;
nodes = (
"666.779 291.011 OFFCURVE",
"612.3 351.783 OFFCURVE",
"499.506 356.798 CURVE",
"497.327 360.54 LINE",
"593.51 365.595 OFFCURVE",
"675.294 414.26 OFFCURVE",
"695.816 517.428 CURVE SMOOTH",
"718.105 629.486 OFFCURVE",
"646.682 700.159 OFFCURVE",
"503.135 700.159 CURVE SMOOTH",
"142.89 700.159 LINE",
"3.619 0 LINE",
"375.138 0 LINE SMOOTH",
"524.044 0 OFFCURVE",
"623.632 74.103 OFFCURVE",
"646.71 190.122 CURVE SMOOTH"
);
},
{
closed = 1;
nodes = (
"463.258 167.88 OFFCURVE",
"427.193 141.85 OFFCURVE",
"371.497 141.906 CURVE SMOOTH",
"208.025 142.048 LINE",
"237.372 289.584 LINE",
"399.174 289.584 LINE SMOOTH",
"454.457 289.584 OFFCURVE",
"482.08 262.504 OFFCURVE",
"472.653 215.11 CURVE SMOOTH"
);
},
{
closed = 1;
nodes = (
"443.384 332.427 LINE",
"517.205 332.427 LINE",
"528.134 387.37 LINE",
"454.313 387.37 LINE"
);
}
);
width = 693.83302;
}
);
leftMetricsKey = H;
rightMetricsKey = "=H*0.66";
unicode = 0042;
},
{
glyphname = C;
lastChange = "2021-08-10 05:29:17 +0000";
layers = (
{
anchors = (
{
name = bottom;
position = "{341.79, 0}";
},
{
name = top;
position = "{490.79, 709}";
}
);
hints = (
{
horizontal = 1;
place = "{-6, 100}";
type = Stem;
},
{
horizontal = 1;
place = "{608, 101}";
type = Stem;
}
);
layerId = "24A19461-EE5C-48C0-A968-CC082199DAC2";
paths = (
{
closed = 1;
nodes = (
"20.766 140.674 OFFCURVE",
"150.522 -6.378 OFFCURVE",
"346.522 -6.378 CURVE SMOOTH",
"487.34 -6.378 OFFCURVE",
"620.32 58.807 OFFCURVE",
"710.746 202.733 CURVE",
"618.101 239.303 LINE",
"543.718 129.628 OFFCURVE",
"447.02 93.335 OFFCURVE",
"366.351 93.335 CURVE SMOOTH",
"228.351 93.335 OFFCURVE",
"148.181 193.048 OFFCURVE",
"179.628 351.179 CURVE SMOOTH",
"211.075 509.309 OFFCURVE",
"330.705 608.015 OFFCURVE",
"468.705 608.015 CURVE SMOOTH",
"547.133 608.015 OFFCURVE",
"627.288 573.05 OFFCURVE",
"656.421 483.845 CURVE",
"764.662 520.995 LINE",
"731.439 643.339 OFFCURVE",
"625.484 708.735 OFFCURVE",
"488.735 708.735 CURVE SMOOTH",
"292.735 708.735 OFFCURVE",
"104.291 560.676 OFFCURVE",
"62.628 351.179 CURVE SMOOTH"
);
}
);
width = 776.81525;
},
{
anchors = (
{
name = bottom;
position = "{391.5, 0}";
},
{
name = top;
position = "{399.5, 709}";
}
);
hints = (
{
place = "{42, 117}";
type = Stem;
},
{
horizontal = 1;
place = "{-6, 100}";
type = Stem;
},
{
horizontal = 1;
place = "{608, 101}";
type = Stem;
}
);
layerId = "0CF0EA28-C756-4A9E-9D7C-CFEF350B4CFE";
paths = (
{
closed = 1;
nodes = (
"42.5 140.674 OFFCURVE",
"201.5 -6.378 OFFCURVE",
"397.5 -6.378 CURVE SMOOTH",
"538.318 -6.378 OFFCURVE",
"658.335 58.807 OFFCURVE",
"720.139 202.733 CURVE",
"620.222 239.303 LINE",
"567.649 129.628 OFFCURVE",
"478.169 93.335 OFFCURVE",
"397.5 93.335 CURVE SMOOTH",
"259.5 93.335 OFFCURVE",
"159.5 193.048 OFFCURVE",
"159.5 351.179 CURVE SMOOTH",
"159.5 509.309 OFFCURVE",
"259.5 608.015 OFFCURVE",
"397.5 608.015 CURVE SMOOTH",
"475.929 608.015 OFFCURVE",
"563.037 573.05 OFFCURVE",
"609.91 483.845 CURVE",
"710.762 520.995 LINE",
"653.209 643.339 OFFCURVE",
"534.249 708.735 OFFCURVE",
"397.5 708.735 CURVE SMOOTH",
"201.5 708.735 OFFCURVE",
"42.5 560.676 OFFCURVE",
"42.5 351.179 CURVE SMOOTH"
);
}
);
width = 776.80525;
},
{
anchors = (
{
name = bottom;
position = "{403.245, 0}";
},
{
name = top;
position = "{380.904, 700.191}";
}
);
hints = (
{
place = "{64, 23}";
type = Stem;
},
{
horizontal = 1;
place = "{-7, 21}";
target = up;
type = BottomGhost;
},
{
horizontal = 1;
place = "{692, -20}";
target = down;
type = TopGhost;
}
);
layerId = "6E968933-CD79-43C6-9231-80D77C940F4D";
paths = (
{
closed = 1;
nodes = (
"52.287 140.256 OFFCURVE",
"189.755 -6.898 OFFCURVE",
"380.862 -6.898 CURVE SMOOTH",
"547.274 -6.898 OFFCURVE",
"651.147 75.23 OFFCURVE",
"700.179 201.296 CURVE",
"681.11 208.192 LINE",
"639.637 97.311 OFFCURVE",
"537.498 10.674 OFFCURVE",
"380.862 12.74 CURVE",
"211.543 12.74 OFFCURVE",
"75.33 140.398 OFFCURVE",
"75.33 349.095 CURVE SMOOTH",
"75.33 559.74 OFFCURVE",
"211.543 687.376 OFFCURVE",
"380.862 687.376 CURVE SMOOTH",
"535.241 687.376 OFFCURVE",
"633.958 608.894 OFFCURVE",
"676.883 501.157 CURVE",
"696.067 508.133 LINE",
"645.617 629.132 OFFCURVE",
"542.851 707.035 OFFCURVE",
"380.862 707.035 CURVE SMOOTH",
"189.755 707.035 OFFCURVE",
"52.287 559.86 OFFCURVE",
"52.287 349.095 CURVE SMOOTH"
);
}
);
width = 769.8984;
},
{
anchors = (
{
name = bottom;
position = "{374.524, 0.575}";
},
{
name = top;
position = "{379.646, 704.972}";
}
);
hints = (
{
place = "{26, 179}";
type = Stem;
},
{
horizontal = 1;
place = "{-5, 159}";
type = Stem;
},
{
horizontal = 1;
place = "{548, 159}";
type = Stem;
}
);
layerId = "BAF31694-0472-4296-B0EA-1654553C45D2";
paths = (
{
closed = 1;
nodes = (
"26.675 142.109 OFFCURVE",
"170.712 -4.778 OFFCURVE",
"378.797 -4.778 CURVE SMOOTH",
"540.871 -4.778 OFFCURVE",
"662.916 80.259 OFFCURVE",
"710.267 228.336 CURVE",
"544.595 265.486 LINE",
"504.919 177.589 OFFCURVE",
"439 153.755 OFFCURVE",
"376.495 153.755 CURVE SMOOTH",
"274.75 153.755 OFFCURVE",
"205.825 230.664 OFFCURVE",
"205.825 351.078 CURVE SMOOTH",
"205.825 471.491 OFFCURVE",
"274.75 547.972 OFFCURVE",
"376.495 547.972 CURVE SMOOTH",
"437.685 547.972 OFFCURVE",
"497.813 524.015 OFFCURVE",
"535.628 450.373 CURVE",
"704.921 488.217 LINE",
"657.804 624.14 OFFCURVE",
"537.041 706.933 OFFCURVE",
"378.797 706.933 CURVE SMOOTH",
"170.712 706.933 OFFCURVE",
"26.675 559.618 OFFCURVE",
"26.675 351.078 CURVE SMOOTH"
);
}
);
width = 745.82492;
},
{
anchors = (
{
name = bottom;
position = "{353.505, 0}";
},
{
name = top;
position = "{470.207, 700.191}";
}
);
hints = (
{
horizontal = 1;
place = "{0, 2}";
type = Stem;
},
{
horizontal = 1;
place = "{13, 2}";
type = Stem;
}
);
layerId = "F7832249-9EF4-4513-B883-88BAA20BF268";
paths = (
{
closed = 1;
nodes = (
"30.449 140.256 OFFCURVE",
"138.644 -6.898 OFFCURVE",
"329.751 -6.898 CURVE SMOOTH",
"496.162 -6.898 OFFCURVE",
"616.373 75.23 OFFCURVE",
"690.483 201.296 CURVE",
"672.786 208.192 LINE",
"609.256 97.311 OFFCURVE",
"489.882 10.674 OFFCURVE",
"333.657 12.74 CURVE SMOOTH",
"164.338 12.74 OFFCURVE",
"53.52 140.398 OFFCURVE",
"95.037 349.095 CURVE SMOOTH",
"136.941 559.74 OFFCURVE",
"298.545 687.376 OFFCURVE",
"467.864 687.376 CURVE SMOOTH",
"622.242 687.376 OFFCURVE",
"705.348 608.894 OFFCURVE",
"726.84 501.157 CURVE",
"747.412 508.133 LINE",
"721.032 629.132 OFFCURVE",
"633.764 707.035 OFFCURVE",
"471.775 707.035 CURVE SMOOTH",
"280.668 707.035 OFFCURVE",
"113.923 559.86 OFFCURVE",
"71.994 349.095 CURVE SMOOTH"
);
}
);
width = 769.88882;
},
{
anchors = (
{
name = bottom;
position = "{324.808, 0.575}";
},
{
name = top;
position = "{470.355, 704.972}";
}
);
hints = (
{
horizontal = 1;
place = "{-5, 159}";
type = Stem;
},
{
horizontal = 1;
place = "{548, 159}";
type = Stem;
}
);
layerId = "9CDD62D3-67F3-4AC7-B192-D539276CE01F";
paths = (
{
closed = 1;
nodes = (
"5.221 142.109 OFFCURVE",
"120.047 -4.778 OFFCURVE",
"328.132 -4.778 CURVE SMOOTH",
"490.205 -4.778 OFFCURVE",
"629.162 80.259 OFFCURVE",
"705.962 228.336 CURVE",
"547.678 265.486 LINE",
"490.522 177.589 OFFCURVE",
"419.863 153.755 OFFCURVE",
"357.358 153.755 CURVE SMOOTH",
"255.613 153.755 OFFCURVE",
"201.984 230.664 OFFCURVE",
"225.931 351.078 CURVE SMOOTH",
"249.878 471.491 OFFCURVE",
"334.013 547.972 OFFCURVE",
"435.758 547.972 CURVE SMOOTH",
"496.948 547.972 OFFCURVE",
"552.312 524.015 OFFCURVE",
"575.48 450.373 CURVE",
"752.3 488.217 LINE",
"732.215 624.14 OFFCURVE",
"627.918 706.933 OFFCURVE",
"469.674 706.933 CURVE SMOOTH",
"261.589 706.933 OFFCURVE",
"88.254 559.618 OFFCURVE",
"46.78 351.078 CURVE SMOOTH"
);
}
);
width = 745.84005;
}
);
leftMetricsKey = O;
rightMetricsKey = "=O*1.3333";
unicode = 0043;
},
{
glyphname = D;
lastChange = "2021-08-10 05:27:38 +0000";
layers = (
{
anchors = (
{
name = top;
position = "{444.28, 701}";
}
);
hints = (
{
horizontal = 1;
place = "{0, 93}";
type = Stem;
},
{
horizontal = 1;
place = "{607, 93}";
type = Stem;
}
);
layerId = "24A19461-EE5C-48C0-A968-CC082199DAC2";
paths = (
{
closed = 1;
nodes = (
"174.575 700.328 LINE",
"35.28 0 LINE",
"282.28 0 LINE SMOOTH",
"505.28 0 OFFCURVE",
"677.498 131.815 OFFCURVE",
"720.327 347.146 CURVE SMOOTH",
"763.358 563.487 OFFCURVE",
"644.575 700.328 OFFCURVE",
"421.575 700.328 CURVE SMOOTH"
);
},
{
closed = 1;
nodes = (
"167.844 93.334 LINE",
"270.078 607.328 LINE",
"403.078 607.328 LINE SMOOTH",
"567.078 607.328 OFFCURVE",
"635.221 507.496 OFFCURVE",
"603.327 347.146 CURVE SMOOTH",
"571.634 187.801 OFFCURVE",
"464.696 92.588 OFFCURVE",
"300.778 93 CURVE SMOOTH"
);
}
);
width = 743.5;
},
{
anchors = (
{
name = top;
position = "{355, 701}";
}
);
hints = (
{
place = "{85, 114}";
type = Stem;
},
{
place = "{584, 117}";
type = Stem;
},
{
horizontal = 1;
place = "{0, 93}";
type = Stem;
},
{
horizontal = 1;
place = "{607, 93}";
type = Stem;
}
);
layerId = "0CF0EA28-C756-4A9E-9D7C-CFEF350B4CFE";
paths = (
{
closed = 1;
nodes = (
"85 700.328 LINE",
"85 0 LINE",
"332 0 LINE SMOOTH",
"555 0 OFFCURVE",
"701 131.815 OFFCURVE",
"701 347.146 CURVE SMOOTH",
"701 563.487 OFFCURVE",
"555 700.328 OFFCURVE",
"332 700.328 CURVE SMOOTH"
);
},
{
closed = 1;
nodes = (
"199 93.334 LINE",
"199 607.328 LINE",
"332 607.328 LINE SMOOTH",
"496 607.328 OFFCURVE",
"584 507.496 OFFCURVE",
"584 347.146 CURVE SMOOTH",
"584 187.801 OFFCURVE",
"496 92.588 OFFCURVE",
"332 93 CURVE SMOOTH"
);
}
);
width = 743.5;
},
{
anchors = (
{
name = top;
position = "{330.532, 679.468}";
}
);
hints = (
{
place = "{103, 22}";
type = Stem;
},
{
place = "{661, 22}";
type = Stem;
},
{
horizontal = 1;
place = "{0, 21}";
target = up;
type = BottomGhost;
},
{
horizontal = 1;
place = "{685, -20}";
target = down;
type = TopGhost;
}
);
layerId = "6E968933-CD79-43C6-9231-80D77C940F4D";
paths = (
{
closed = 1;
nodes = (
"104.574 700.044 LINE",
"104.574 0.05 LINE",
"310.468 0.05 LINE",
"555 0.05 OFFCURVE",
"682.404 129.363 OFFCURVE",
"682.404 349.983 CURVE",
"682.404 570.624 OFFCURVE",
"555 700.044 OFFCURVE",
"310.468 700.044 CURVE"
);
},
{
closed = 1;
nodes = (
"126.574 19.553 LINE",
"126.574 680.549 LINE",
"310.468 680.549 LINE",
"544.936 680.549 OFFCURVE",
"660.34 553.863 OFFCURVE",
"660.34 349.983 CURVE",
"660.34 146.125 OFFCURVE",
"544.936 19.537 OFFCURVE",
"310.468 19.546 CURVE"
);
}
);
width = 734.69149;
},
{
anchors = (
{
name = top;
position = "{340.038, 701.575}";
}
);
hints = (
{
place = "{53, 176}";
type = Stem;
},
{
place = "{529, 179}";
type = Stem;
},
{
horizontal = 1;
place = "{0, 153}";
type = Stem;
},
{
horizontal = 1;
place = "{549, 151}";
type = Stem;
}
);
layerId = "BAF31694-0472-4296-B0EA-1654553C45D2";
paths = (
{
closed = 1;
nodes = (
"53.349 700.159 LINE",
"53.349 0 LINE",
"339.481 0 LINE SMOOTH",
"564.208 0 OFFCURVE",
"707.906 143.583 OFFCURVE",
"707.906 349.932 CURVE SMOOTH",
"707.906 557.853 OFFCURVE",
"564.208 700.159 OFFCURVE",
"339.481 700.159 CURVE SMOOTH"
);
},
{
closed = 1;
nodes = (
"229.5 153.385 LINE",
"229.5 549.183 LINE",
"327.972 549.183 LINE SMOOTH",
"453.991 549.183 OFFCURVE",
"528.755 475.892 OFFCURVE",
"528.755 349.932 CURVE SMOOTH",
"528.755 224.399 OFFCURVE",
"453.991 153.068 OFFCURVE",
"327.972 153.243 CURVE SMOOTH"
);
}
);
width = 734.58019;
},
{
anchors = (
{
name = top;
position = "{425.674, 679.468}";
}
);
hints = (
{
horizontal = 1;
place = "{0, 2}";
type = Stem;
},
{
horizontal = 1;
place = "{13, 2}";
type = Stem;
}
);
layerId = "F7832249-9EF4-4513-B883-88BAA20BF268";
paths = (
{
closed = 1;
nodes = (
"194.106 700.044 LINE",
"54.854 0.05 LINE",
"260.748 0.05 LINE SMOOTH",
"505.28 0.05 OFFCURVE",
"658.409 129.363 OFFCURVE",
"702.298 349.983 CURVE SMOOTH",
"746.19 570.624 OFFCURVE",
"644.532 700.044 OFFCURVE",
"400 700.044 CURVE SMOOTH"
);
},
{
closed = 1;
nodes = (
"80.735 19.553 LINE",
"212.229 680.549 LINE",
"396.122 680.549 LINE SMOOTH",
"630.59 680.549 OFFCURVE",
"720.793 553.863 OFFCURVE",
"680.234 349.983 CURVE SMOOTH",
"639.68 146.125 OFFCURVE",
"499.093 19.537 OFFCURVE",
"264.627 19.546 CURVE SMOOTH"
);
}
);
width = 734.70128;
},
{
anchors = (
{
name = top;
position = "{429.893, 701.575}";
}
);
hints = (
{
horizontal = 1;
place = "{0, 153}";
type = Stem;
},
{
horizontal = 1;
place = "{549, 151}";
type = Stem;
}
);
layerId = "9CDD62D3-67F3-4AC7-B192-D539276CE01F";
paths = (
{
closed = 1;
nodes = (
"142.891 700.159 LINE",
"3.629 0 LINE",
"289.761 0 LINE SMOOTH",
"514.488 0 OFFCURVE",
"686.744 143.583 OFFCURVE",
"727.787 349.932 CURVE SMOOTH",
"769.143 557.853 OFFCURVE",
"653.749 700.159 OFFCURVE",
"429.023 700.159 CURVE SMOOTH"
);
},
{
closed = 1;
nodes = (
"210.288 153.385 LINE",
"289.013 549.183 LINE",
"387.484 549.183 LINE SMOOTH",
"513.503 549.183 OFFCURVE",
"573.69 475.892 OFFCURVE",
"548.636 349.932 CURVE SMOOTH",
"523.668 224.399 OFFCURVE",
"434.716 153.068 OFFCURVE",
"308.732 153.243 CURVE SMOOTH"
);
}
);
width = 734.58019;
}
);
leftMetricsKey = H;
rightMetricsKey = "=H*0.5";
unicode = 0044;
},
{
glyphname = Eth;
lastChange = "2021-08-10 05:27:38 +0000";
layers = (
{
hints = (
{
horizontal = 1;
place = "{0, 87}";
type = Stem;
},
{
horizontal = 1;
place = "{295, 105}";
type = Stem;
},
{
horizontal = 1;
place = "{608, 92}";
type = Stem;
}
);
layerId = "24A19461-EE5C-48C0-A968-CC082199DAC2";
paths = (
{
closed = 1;
nodes = (
"73.977 295.107 LINE",
"443.977 295.107 LINE",
"464.878 400.193 LINE",
"94.878 400.193 LINE"
);
},
{
closed = 1;
nodes = (
"231.575 700.328 LINE",
"92.28 0 LINE",
"320.28 0 LINE SMOOTH",
"543.28 0 OFFCURVE",
"714.498 131.815 OFFCURVE",
"757.327 347.146 CURVE SMOOTH",
"800.358 563.487 OFFCURVE",
"682.575 700.328 OFFCURVE",
"459.575 700.328 CURVE SMOOTH"
);
},
{
closed = 1;
nodes = (
"224.642 87.291 LINE",
"328.278 608.336 LINE",
"441.278 608.336 LINE SMOOTH",
"604.278 608.336 OFFCURVE",
"672.221 507.495 OFFCURVE",
"640.327 347.146 CURVE SMOOTH",
"608.635 187.805 OFFCURVE",
"500.48 86.475 OFFCURVE",
"337.576 86.957 CURVE SMOOTH"
);
}
);
width = 780.5;
},
{
hints = (
{
place = "{142, 115}";
type = Stem;
},
{
place = "{621, 117}";
type = Stem;
},
{
horizontal = 1;
place = "{0, 87}";
type = Stem;
},
{
horizontal = 1;
place = "{295, 105}";
type = Stem;
},
{
horizontal = 1;
place = "{608, 92}";
type = Stem;
}
);
layerId = "0CF0EA28-C756-4A9E-9D7C-CFEF350B4CFE";
paths = (
{
closed = 1;
nodes = (
"65 295.107 LINE",
"435 295.107 LINE",
"435 400.193 LINE",
"65 400.193 LINE"
);
},
{
closed = 1;
nodes = (
"142 700.328 LINE",
"142 0 LINE",
"370 0 LINE SMOOTH",
"593 0 OFFCURVE",
"738 131.815 OFFCURVE",
"738 347.146 CURVE SMOOTH",
"738 563.487 OFFCURVE",
"593 700.328 OFFCURVE",
"370 700.328 CURVE SMOOTH"
);
},
{
closed = 1;
nodes = (
"257 87.291 LINE",
"257 608.336 LINE",
"370 608.336 LINE SMOOTH",
"533 608.336 OFFCURVE",
"621 507.495 OFFCURVE",
"621 347.146 CURVE SMOOTH",
"621 187.805 OFFCURVE",
"533 86.475 OFFCURVE",
"370 86.957 CURVE SMOOTH"
);
}
);
width = 780.5;
},
{
hints = (
{
place = "{202, 22}";
type = Stem;
},
{
place = "{734, 22}";
type = Stem;
},
{
horizontal = 1;
place = "{0, 21}";
target = up;
type = BottomGhost;
},
{
horizontal = 1;
place = "{685, -20}";
target = down;
type = TopGhost;
}
);
layerId = "6E968933-CD79-43C6-9231-80D77C940F4D";
paths = (
{
closed = 1;
nodes = (
"84.574 340.118 LINE",
"452.617 340.118 LINE",
"452.617 359.87 LINE",
"84.574 359.87 LINE"
);
},
{
closed = 1;
nodes = (
"198.766 700.044 LINE",
"198.766 0.05 LINE",
"384.681 0.05 LINE",
"629.213 0.05 OFFCURVE",
"756.596 129.363 OFFCURVE",
"756.596 349.983 CURVE",
"756.596 570.624 OFFCURVE",
"629.213 700.044 OFFCURVE",
"384.681 700.044 CURVE"
);
},
{
closed = 1;
nodes = (
"220.787 19.424 LINE",
"220.787 680.571 LINE",
"384.681 680.571 LINE",
"619.128 680.571 OFFCURVE",
"734.532 553.863 OFFCURVE",
"734.532 349.983 CURVE",
"734.532 146.125 OFFCURVE",
"619.128 19.407 OFFCURVE",
"384.681 19.417 CURVE"
);
}
);
width = 808.88298;
},
{
hints = (
{
place = "{95, 177}";
type = Stem;
},
{
place = "{550, 179}";
type = Stem;
},
{
horizontal = 1;
place = "{0, 151}";
type = Stem;
},
{
horizontal = 1;
place = "{277, 146}";
type = Stem;
},
{
horizontal = 1;
place = "{549, 151}";
type = Stem;
}
);
layerId = "BAF31694-0472-4296-B0EA-1654553C45D2";
paths = (
{
closed = 1;
nodes = (
"33.349 277.194 LINE",
"421.764 277.194 LINE",
"421.764 423.098 LINE",
"33.349 423.098 LINE"
);
},
{
closed = 1;
nodes = (
"94.811 700.159 LINE",
"94.811 0 LINE",
"361.368 0 LINE SMOOTH",
"586.094 0 OFFCURVE",
"729.368 143.583 OFFCURVE",
"729.368 349.932 CURVE SMOOTH",
"729.368 557.853 OFFCURVE",
"586.094 700.159 OFFCURVE",
"361.368 700.159 CURVE SMOOTH"
);
},
{
closed = 1;
nodes = (
"271.387 150.82 LINE",
"271.387 549.611 LINE",
"349.858 549.611 LINE SMOOTH",
"475.453 549.611 OFFCURVE",
"550.217 475.891 OFFCURVE",
"550.217 349.932 CURVE SMOOTH",
"550.217 224.401 OFFCURVE",
"475.453 150.473 OFFCURVE",
"349.858 150.678 CURVE SMOOTH"
);
}
);
width = 756.04245;
},
{
hints = (
{
horizontal = 1;
place = "{0, 2}";
type = Stem;
},
{
horizontal = 1;
place = "{6, 2}";
type = Stem;
},
{
horizontal = 1;
place = "{13, 2}";
type = Stem;
}
);
layerId = "F7832249-9EF4-4513-B883-88BAA20BF268";
paths = (
{
closed = 1;
nodes = (
"102.496 340.118 LINE",
"470.539 340.118 LINE",
"474.468 359.87 LINE",
"106.425 359.87 LINE"
);
},
{
closed = 1;
nodes = (
"288.288 700.044 LINE",
"149.036 0.05 LINE",
"334.951 0.05 LINE SMOOTH",
"579.483 0.05 OFFCURVE",
"732.591 129.363 OFFCURVE",
"776.48 349.983 CURVE SMOOTH",
"820.372 570.624 OFFCURVE",
"718.735 700.044 OFFCURVE",
"474.203 700.044 CURVE SMOOTH"
);
},
{
closed = 1;
nodes = (
"174.912 19.424 LINE",
"306.436 680.571 LINE",
"470.329 680.571 LINE SMOOTH",
"704.776 680.571 OFFCURVE",
"794.974 553.863 OFFCURVE",
"754.416 349.983 CURVE SMOOTH",
"713.861 146.125 OFFCURVE",
"573.249 19.407 OFFCURVE",
"338.804 19.417 CURVE SMOOTH"
);
}
);
width = 808.88298;
},
{
hints = (
{
horizontal = 1;
place = "{0, 151}";
type = Stem;
},
{
horizontal = 1;
place = "{277, 146}";
type = Stem;
},
{
horizontal = 1;
place = "{549, 151}";
type = Stem;
}
);
layerId = "9CDD62D3-67F3-4AC7-B192-D539276CE01F";
paths = (
{
closed = 1;
nodes = (
"38.763 277.194 LINE",
"427.178 277.194 LINE",
"456.198 423.098 LINE",
"67.783 423.098 LINE"
);
},
{
closed = 1;
nodes = (
"184.353 700.159 LINE",
"45.091 0 LINE",
"311.648 0 LINE SMOOTH",
"536.374 0 OFFCURVE",
"708.206 143.583 OFFCURVE",
"749.249 349.932 CURVE SMOOTH",
"790.605 557.853 OFFCURVE",
"675.636 700.159 OFFCURVE",
"450.91 700.159 CURVE SMOOTH"
);
},
{
closed = 1;
nodes = (
"251.665 150.82 LINE",
"330.984 549.611 LINE",
"409.456 549.611 LINE SMOOTH",
"535.05 549.611 OFFCURVE",
"595.152 475.891 OFFCURVE",
"570.098 349.932 CURVE SMOOTH",
"545.131 224.401 OFFCURVE",
"455.662 150.473 OFFCURVE",
"330.109 150.678 CURVE SMOOTH"
);
}
);
width = 756.04245;
}
);
leftMetricsKey = "=D-20";
rightMetricsKey = D;
unicode = 00D0;
},
{
glyphname = E;
lastChange = "2021-08-10 05:27:38 +0000";
layers = (
{
anchors = (
{
name = bottom;
position = "{262.28, 0}";
},
{
name = ogonek;
position = "{459.28, 0}";
},
{
name = top;
position = "{411.28, 701}";
}
);
hints = (
{
horizontal = 1;
place = "{0, 93}";
type = Stem;
},
{
horizontal = 1;
place = "{308, 93}";
type = Stem;
},
{
horizontal = 1;
place = "{607, 93}";
type = Stem;
}
);
layerId = "24A19461-EE5C-48C0-A968-CC082199DAC2";
paths = (
{
closed = 1;
nodes = (
"648.577 700.336 LINE",
"174.577 700.336 LINE",
"35.28 0 LINE",
"509.28 0 LINE",
"527.778 93 LINE",
"167.844 93.334 LINE",
"210.581 308.2 LINE",
"480.581 308.2 LINE",
"499.112 401.367 LINE",
"229.112 401.367 LINE",
"270.079 607.336 LINE",
"630.079 607.336 LINE"
);
}
);
width = 624.01;
},
{
anchors = (
{
name = bottom;
position = "{312, 0}";
},
{
name = ogonek;
position = "{509, 0}";
},
{
name = top;
position = "{322, 701}";
}
);
hints = (
{
place = "{85, 114}";
type = Stem;
},
{
horizontal = 1;
place = "{0, 93}";
type = Stem;
},
{
horizontal = 1;
place = "{308, 93}";
type = Stem;
},
{
horizontal = 1;
place = "{607, 93}";
type = Stem;
}
);
layerId = "0CF0EA28-C756-4A9E-9D7C-CFEF350B4CFE";
paths = (
{
closed = 1;
nodes = (
"559 700.336 LINE",
"85 700.336 LINE",
"85 0 LINE",
"559 0 LINE",
"559 93 LINE",
"199 93.334 LINE",
"199 308.2 LINE",
"469 308.2 LINE",
"469 401.367 LINE",
"199 401.367 LINE",
"199 607.336 LINE",
"559 607.336 LINE"
);
}
);
width = 624;
},
{
anchors = (
{
name = bottom;
position = "{293.404, 0}";
},
{
name = ogonek;
position = "{489.426, 0}";
},
{
name = top;
position = "{322, 690.234}";
}
);
hints = (
{
place = "{116, 22}";
type = Stem;
},
{
horizontal = 1;
place = "{685, -20}";
target = down;
type = TopGhost;
},
{
horizontal = 1;
place = "{0, 21}";
target = up;
type = BottomGhost;
}
);
layerId = "6E968933-CD79-43C6-9231-80D77C940F4D";
paths = (
{
closed = 1;
nodes = (
"539.426 700.044 LINE",
"104.574 700.044 LINE",
"104.574 0.05 LINE",
"539.426 0.05 LINE",
"539.426 19.546 LINE",
"126.574 19.553 LINE",
"126.574 350.183 LINE",
"449.426 350.183 LINE",
"449.426 369.682 LINE",
"126.574 369.682 LINE",
"126.574 680.549 LINE",
"539.426 680.549 LINE"
);
}
);
width = 624;
},
{
anchors = (
{
name = bottom;
position = "{306.245, 0.575}";
},
{
name = ogonek;
position = "{527.991, 0.575}";
},
{
name = top;
position = "{310.491, 701.575}";
}
);
hints = (
{
place = "{53, 176}";
type = Stem;
},
{
horizontal = 1;
place = "{0, 141}";
type = Stem;
},
{
horizontal = 1;
place = "{286, 141}";
type = Stem;
},
{
horizontal = 1;
place = "{559, 141}";
type = Stem;
}
);
layerId = "BAF31694-0472-4296-B0EA-1654553C45D2";
paths = (
{
closed = 1;
nodes = (
"577.991 700.163 LINE",
"53.349 700.163 LINE",
"53.349 0 LINE",
"577.991 0 LINE",
"577.991 141.34 LINE",
"229.5 141.481 LINE",
"229.5 286.128 LINE",
"476.481 286.128 LINE",
"476.481 427.625 LINE",
"229.5 427.625 LINE",
"229.5 558.823 LINE",
"577.991 558.823 LINE"
);
}
);
width = 611.33962;
},
{
anchors = (
{
name = bottom;
position = "{243.674, 0}";
},
{
name = ogonek;
position = "{439.696, 0}";
},
{
name = top;
position = "{409.313, 690.234}";
}
);
hints = (
{
horizontal = 1;
place = "{0, 2}";
type = Stem;
},
{
horizontal = 1;
place = "{7, 2}";
type = Stem;
},
{
horizontal = 1;
place = "{13, 2}";
type = Stem;
}
);
layerId = "F7832249-9EF4-4513-B883-88BAA20BF268";
paths = (
{
closed = 1;
nodes = (
"628.958 700.044 LINE",
"194.106 700.044 LINE",
"54.854 0.05 LINE",
"489.706 0.05 LINE",
"493.584 19.546 LINE",
"80.735 19.553 LINE",
"146.508 350.183 LINE",
"469.359 350.183 LINE",
"473.237 369.682 LINE",
"150.386 369.682 LINE",
"212.229 680.549 LINE",
"625.08 680.549 LINE"
);
}
);
width = 624.01;
},
{
anchors = (
{
name = bottom;
position = "{256.525, 0.575}";
},
{
name = ogonek;
position = "{478.271, 0.575}";
},
{
name = top;
position = "{400.346, 701.575}";
}
);
hints = (
{
horizontal = 1;
place = "{0, 141}";
type = Stem;
},
{
horizontal = 1;
place = "{286, 141}";
type = Stem;
},
{
horizontal = 1;
place = "{559, 141}";
type = Stem;
}
);
layerId = "9CDD62D3-67F3-4AC7-B192-D539276CE01F";
paths = (
{
closed = 1;
nodes = (
"667.533 700.163 LINE",
"142.892 700.163 LINE",
"3.629 0 LINE",
"528.271 0 LINE",
"556.383 141.34 LINE",
"207.92 141.481 LINE",
"236.691 286.128 LINE",
"483.672 286.128 LINE",
"511.816 427.625 LINE",
"264.834 427.625 LINE",
"290.93 558.823 LINE",
"639.421 558.823 LINE"
);
}
);
width = 611.34962;
}
);
leftMetricsKey = H;
rightMetricsKey = "=H-20";
unicode = 0045;
},
{
glyphname = F;
lastChange = "2021-08-10 05:27:38 +0000";
layers = (
{
hints = (
{
horizontal = 1;
place = "{607, 93}";
type = Stem;
},
{
horizontal = 1;
place = "{306, 93}";
type = Stem;
},
{
horizontal = 1;
place = "{0, 21}";
target = up;
type = BottomGhost;
}
);
layerId = "24A19461-EE5C-48C0-A968-CC082199DAC2";
paths = (
{
closed = 1;
nodes = (
"35.27 0 LINE",
"149.27 0 LINE",
"210.174 306.186 LINE",
"497.733 306.186 LINE",
"516.232 399.186 LINE",
"228.739 399.52 LINE",
"270.075 607.328 LINE",
"645.075 607.328 LINE",
"663.574 700.328 LINE",
"174.574 700.328 LINE"
);
}
);
width = 617.29;
},
{
hints = (
{
place = "{85, 114}";
type = Stem;
},
{
horizontal = 1;
place = "{306, 93}";
type = Stem;
},
{
horizontal = 1;
place = "{607, 93}";
type = Stem;
},
{
horizontal = 1;
place = "{0, 21}";
target = up;
type = BottomGhost;
}
);
layerId = "0CF0EA28-C756-4A9E-9D7C-CFEF350B4CFE";
paths = (
{
closed = 1;
nodes = (
"85 0 LINE",
"199 0 LINE",
"199 306.186 LINE",
"486.559 306.186 LINE",
"486.559 399.186 LINE",
"199 399.52 LINE",
"199 607.328 LINE",
"574 607.328 LINE",
"574 700.328 LINE",
"85 700.328 LINE"
);
}
);
width = 617.29;
},
{
hints = (
{
place = "{116, 22}";
type = Stem;
},
{
horizontal = 1;
place = "{685, -20}";
target = down;
type = TopGhost;
},
{
horizontal = 1;
place = "{0, 21}";
target = up;
type = BottomGhost;
}
);
layerId = "6E968933-CD79-43C6-9231-80D77C940F4D";
paths = (
{
closed = 1;
nodes = (
"104.574 0.05 LINE",
"126.574 0.05 LINE",
"126.574 340.36 LINE",
"440.012 340.36 LINE",
"440.012 359.855 LINE",
"126.574 359.862 LINE",
"126.574 680.562 LINE",
"529.957 680.562 LINE",
"529.957 700.058 LINE",
"104.574 700.058 LINE"
);
}
);
width = 586.28404;
},
{
hints = (
{
place = "{53, 176}";
type = Stem;
},
{
horizontal = 1;
place = "{281, 136}";
type = Stem;
},
{
horizontal = 1;
place = "{559, 141}";
type = Stem;
},
{
horizontal = 1;
place = "{0, 21}";
target = up;
type = BottomGhost;
}
);
layerId = "BAF31694-0472-4296-B0EA-1654553C45D2";
paths = (
{
closed = 1;
nodes = (
"53.349 0 LINE",
"229.5 0 LINE",
"229.5 281.331 LINE",
"492.833 281.331 LINE",
"492.833 417.002 LINE",
"229.5 417.144 LINE",
"229.5 559.387 LINE",
"594.717 559.387 LINE",
"594.717 700.159 LINE",
"53.349 700.159 LINE"
);
}
);
width = 616.92745;
},
{
hints = (
{
horizontal = 1;
place = "{13, 2}";
type = Stem;
},
{
horizontal = 1;
place = "{7, 2}";
type = Stem;
},
{
horizontal = 1;
place = "{0, 21}";
target = up;
type = BottomGhost;
}
);
layerId = "F7832249-9EF4-4513-B883-88BAA20BF268";
paths = (
{
closed = 1;
nodes = (
"54.854 0.05 LINE",
"76.854 0.05 LINE",
"144.547 340.36 LINE",
"457.984 340.36 LINE",
"461.862 359.855 LINE",
"148.426 359.862 LINE",
"212.217 680.562 LINE",
"615.6 680.562 LINE",
"619.478 700.058 LINE",
"194.095 700.058 LINE"
);
}
);
width = 586.28404;
},
{
hints = (
{
horizontal = 1;
place = "{281, 136}";
type = Stem;
},
{
horizontal = 1;
place = "{559, 141}";
type = Stem;
},
{
horizontal = 1;
place = "{0, 21}";
target = up;
type = BottomGhost;
}
);
layerId = "9CDD62D3-67F3-4AC7-B192-D539276CE01F";
paths = (
{
closed = 1;
nodes = (
"3.619 0 LINE",
"179.77 0 LINE",
"235.73 281.331 LINE",
"499.063 281.331 LINE",
"526.05 417.002 LINE",
"262.745 417.144 LINE",
"291.039 559.387 LINE",
"656.256 559.387 LINE",
"684.258 700.159 LINE",
"142.89 700.159 LINE"
);
}
);
width = 616.92745;
}
);
leftMetricsKey = H;
rightMetricsKey = "=E*0.666";
unicode = 0046;
},
{
glyphname = G;
lastChange = "2021-08-10 05:27:38 +0000";
layers = (
{
anchors = (
{
name = bottom;
position = "{341.78, 0}";
},
{
name = top;
position = "{480.78, 701}";
}
);
hints = (
{
horizontal = 1;
place = "{-6, 103}";
type = Stem;
},
{
horizontal = 1;
place = "{292, 91}";
type = Stem;
},
{
horizontal = 1;
place = "{604, 104}";
type = Stem;
}
);
layerId = "24A19461-EE5C-48C0-A968-CC082199DAC2";
paths = (
{
closed = 1;
nodes = (
"762.972 520.684 LINE",
"733.305 641.924 OFFCURVE",
"622.331 708.393 OFFCURVE",
"488.679 708.393 CURVE SMOOTH",
"292.679 708.393 OFFCURVE",
"104.258 560.475 OFFCURVE",
"62.629 351.175 CURVE SMOOTH",
"20.799 140.869 OFFCURVE",
"150.578 -6.043 OFFCURVE",
"346.578 -6.043 CURVE SMOOTH",
"502.631 -6.043 OFFCURVE",
"641.637 89.547 OFFCURVE",
"714.628 215.425 CURVE",
"747.973 383.071 LINE",
"427.973 383.071 LINE",
"409.876 292.085 LINE",
"607.809 291.751 LINE",
"593.609 220.356 LINE",
"544.365 143.737 OFFCURVE",
"465.37 97.029 OFFCURVE",
"367.079 97.029 CURVE SMOOTH",
"229.079 97.029 OFFCURVE",
"148.938 196.872 OFFCURVE",
"179.629 351.175 CURVE SMOOTH",
"210.32 505.479 OFFCURVE",
"329.978 604.314 OFFCURVE",
"467.978 604.314 CURVE SMOOTH",
"549.278 604.314 OFFCURVE",
"627.378 562.5 OFFCURVE",
"650.66 482.147 CURVE"
);
}
);
width = 772.51;
},
{
anchors = (
{
name = bottom;
position = "{391.5, 0}";
},
{
name = top;
position = "{391.5, 701}";
}
);
hints = (
{
place = "{42, 117}";
type = Stem;
},
{
place = "{599, 122}";
type = Stem;
},
{
horizontal = 1;
place = "{-6, 103}";
type = Stem;
},
{
horizontal = 1;
place = "{292, 91}";
type = Stem;
},
{
horizontal = 1;
place = "{604, 104}";
type = Stem;
}
);
layerId = "0CF0EA28-C756-4A9E-9D7C-CFEF350B4CFE";
paths = (
{
closed = 1;
nodes = (
"709.128 520.684 LINE",
"655.346 641.924 OFFCURVE",
"531.151 708.393 OFFCURVE",
"397.5 708.393 CURVE SMOOTH",
"201.5 708.393 OFFCURVE",
"42.5 560.475 OFFCURVE",
"42.5 351.175 CURVE SMOOTH",
"42.5 140.869 OFFCURVE",
"201.5 -6.043 OFFCURVE",
"397.5 -6.043 CURVE SMOOTH",
"553.553 -6.043 OFFCURVE",
"673.546 89.547 OFFCURVE",
"721.5 215.425 CURVE",
"721.5 383.071 LINE",
"401.5 383.071 LINE",
"401.5 292.085 LINE",
"599.5 291.751 LINE",
"599.5 220.356 LINE",
"565.495 143.737 OFFCURVE",
"495.791 97.029 OFFCURVE",
"397.5 97.029 CURVE SMOOTH",
"259.5 97.029 OFFCURVE",
"159.5 196.872 OFFCURVE",
"159.5 351.175 CURVE SMOOTH",
"159.5 505.479 OFFCURVE",
"259.5 604.314 OFFCURVE",
"397.5 604.314 CURVE SMOOTH",
"478.8 604.314 OFFCURVE",
"565.216 562.5 OFFCURVE",
"604.481 482.147 CURVE"
);
}
);
width = 772.5;
},
{
anchors = (
{
name = bottom;
position = "{403.245, 0}";
},
{
name = top;
position = "{403.245, 679.468}";
}
);
hints = (
{
place = "{64, 23}";
type = Stem;
},
{
horizontal = 1;
place = "{691, -20}";
target = down;
type = TopGhost;
},
{
horizontal = 1;
place = "{-8, 21}";
target = up;
type = BottomGhost;
}
);
layerId = "6E968933-CD79-43C6-9231-80D77C940F4D";
paths = (
{
closed = 1;
nodes = (
"695.447 508.405 LINE",
"644.437 627.811 OFFCURVE",
"536.876 706.055 OFFCURVE",
"388.691 706.055 CURVE SMOOTH",
"192.691 706.055 OFFCURVE",
"52.287 558.883 OFFCURVE",
"52.287 349.095 CURVE SMOOTH",
"52.287 139.287 OFFCURVE",
"192.691 -7.863 OFFCURVE",
"388.691 -7.863 CURVE SMOOTH",
"548.265 -7.863 OFFCURVE",
"670.712 89.733 OFFCURVE",
"710.832 238.869 CURVE",
"710.734 357.56 LINE",
"388.777 357.56 LINE",
"388.777 338.107 LINE",
"689.543 338.099 LINE",
"689.738 241.262 LINE",
"650.062 96.579 OFFCURVE",
"530.447 11.846 OFFCURVE",
"388.691 11.846 CURVE SMOOTH",
"214.479 11.846 OFFCURVE",
"75.33 139.506 OFFCURVE",
"75.33 349.095 CURVE SMOOTH",
"75.33 558.685 OFFCURVE",
"214.479 686.324 OFFCURVE",
"388.691 686.324 CURVE SMOOTH",
"529.204 686.324 OFFCURVE",
"632.928 608.312 OFFCURVE",
"676.24 501.406 CURVE"
);
}
);
width = 773.5766;
},
{
anchors = (
{
name = bottom;
position = "{374.524, 0.575}";
},
{
name = top;
position = "{374.524, 701.575}";
}
);
hints = (
{
place = "{18, 50}";
type = Stem;
},
{
place = "{263, 181}";
type = Stem;
},
{
horizontal = 1;
place = "{-5, 156}";
type = Stem;
},
{
horizontal = 1;
place = "{267, 128}";
type = Stem;
},
{
horizontal = 1;
place = "{545, 162}";
type = Stem;
}
);
layerId = "BAF31694-0472-4296-B0EA-1654553C45D2";
paths = (
{
closed = 1;
nodes = (
"700.857 508.83 LINE",
"657.107 633.275 OFFCURVE",
"537.924 707.551 OFFCURVE",
"383.401 707.551 CURVE SMOOTH",
"172.439 707.551 OFFCURVE",
"26.675 559.981 OFFCURVE",
"26.675 351.076 CURVE SMOOTH",
"26.675 141.744 OFFCURVE",
"173.014 -5.4 OFFCURVE",
"384.552 -5.4 CURVE SMOOTH",
"555.927 -5.4 OFFCURVE",
"664.501 96.046 OFFCURVE",
"713.156 197.836 CURVE",
"713.156 395.99 LINE",
"385.099 395.99 LINE",
"385.099 267.409 LINE",
"555.432 267.267 LINE",
"555.439 237.565 LINE",
"522.295 180.983 OFFCURVE",
"468.653 150.419 OFFCURVE",
"398.363 150.419 CURVE SMOOTH",
"277.052 150.419 OFFCURVE",
"205.825 223.727 OFFCURVE",
"205.825 351.076 CURVE SMOOTH",
"205.825 469.402 OFFCURVE",
"275.901 545.637 OFFCURVE",
"383.976 545.637 CURVE SMOOTH",
"444.659 545.637 OFFCURVE",
"499.62 518.607 OFFCURVE",
"526.196 469.673 CURVE"
);
}
);
width = 745.16509;
},
{
anchors = (
{
name = bottom;
position = "{353.505, 0}";
},
{
name = top;
position = "{488.59, 679.468}";
}
);
hints = (
{
horizontal = 1;
place = "{0, 2}";
type = Stem;
},
{
horizontal = 1;
place = "{6, 2}";
type = Stem;
},
{
horizontal = 1;
place = "{13, 2}";
type = Stem;
}
);
layerId = "F7832249-9EF4-4513-B883-88BAA20BF268";
paths = (
{
closed = 1;
nodes = (
"746.847 508.405 LINE",
"719.59 627.811 OFFCURVE",
"627.594 706.055 OFFCURVE",
"479.41 706.055 CURVE SMOOTH",
"283.41 706.055 OFFCURVE",
"113.728 558.883 OFFCURVE",
"71.994 349.095 CURVE SMOOTH",
"30.256 139.287 OFFCURVE",
"141.388 -7.863 OFFCURVE",
"337.388 -7.863 CURVE SMOOTH",
"496.961 -7.863 OFFCURVE",
"638.823 89.733 OFFCURVE",
"708.612 238.869 CURVE",
"732.125 357.56 LINE",
"410.167 357.56 LINE",
"406.298 338.107 LINE",
"707.062 338.099 LINE",
"687.993 241.262 LINE",
"619.535 96.579 OFFCURVE",
"483.063 11.846 OFFCURVE",
"341.308 11.846 CURVE SMOOTH",
"167.095 11.846 OFFCURVE",
"53.342 139.506 OFFCURVE",
"95.037 349.095 CURVE SMOOTH",
"136.732 558.685 OFFCURVE",
"301.272 686.324 OFFCURVE",
"475.485 686.324 CURVE SMOOTH",
"615.998 686.324 OFFCURVE",
"704.202 608.312 OFFCURVE",
"726.247 501.406 CURVE"
);
}
);
width = 773.56702;
},
{
anchors = (
{
name = bottom;
position = "{324.804, 0.575}";
},
{
name = top;
position = "{464.379, 701.575}";
}
);
hints = (
{
horizontal = 1;
place = "{-5, 156}";
type = Stem;
},
{
horizontal = 1;
place = "{267, 128}";
type = Stem;
},
{
horizontal = 1;
place = "{545, 162}";
type = Stem;
}
);
layerId = "9CDD62D3-67F3-4AC7-B192-D539276CE01F";
paths = (
{
closed = 1;
nodes = (
"752.343 508.83 LINE",
"733.346 633.275 OFFCURVE",
"628.936 707.551 OFFCURVE",
"474.412 707.551 CURVE SMOOTH",
"263.45 707.551 OFFCURVE",
"88.335 559.981 OFFCURVE",
"46.783 351.076 CURVE SMOOTH",
"5.147 141.744 OFFCURVE",
"122.22 -5.4 OFFCURVE",
"333.758 -5.4 CURVE SMOOTH",
"505.133 -5.4 OFFCURVE",
"633.884 96.046 OFFCURVE",
"702.785 197.836 CURVE",
"742.198 395.99 LINE",
"414.142 395.99 LINE",
"388.567 267.409 LINE",
"558.871 267.267 LINE",
"552.971 237.565 LINE",
"508.573 180.983 OFFCURVE",
"448.851 150.419 OFFCURVE",
"378.561 150.419 CURVE SMOOTH",
"257.25 150.419 OFFCURVE",
"200.605 223.727 OFFCURVE",
"225.934 351.076 CURVE SMOOTH",
"249.469 469.402 OFFCURVE",
"334.708 545.637 OFFCURVE",
"442.783 545.637 CURVE SMOOTH",
"503.466 545.637 OFFCURVE",
"553.051 518.607 OFFCURVE",
"569.894 469.673 CURVE"
);
}
);
width = 745.17509;
}
);
leftMetricsKey = O;
rightMetricsKey = "=O*1.2";
unicode = 0047;
},
{
glyphname = Gcommaaccent;
lastChange = "2021-08-10 05:27:38 +0000";
layers = (
{
anchors = (
{
name = _bottom;
position = "{386, 0}";
}
);
components = (
{
alignment = -1;
name = G;
}
);
hints = (
{
horizontal = 1;
place = "{-143, 96}";
type = Stem;
},
{
horizontal = 1;
place = "{-272, 21}";
target = up;
type = BottomGhost;
}
);
layerId = "24A19461-EE5C-48C0-A968-CC082199DAC2";
paths = (
{
closed = 1;
nodes = (
"322.651 -47 LINE",
"303.551 -143.022 LINE",
"356.485 -143.356 LINE",
"352.278 -164.507 LINE SMOOTH",
"344.62 -203.003 OFFCURVE",
"325.792 -222.251 OFFCURVE",
"291.792 -222.251 CURVE",
"281.907 -271.942 LINE",
"355.907 -271.942 OFFCURVE",
"403.299 -229.752 OFFCURVE",
"419.884 -146.377 CURVE SMOOTH",
"425.683 -117.224 OFFCURVE",
"427.293 -84.102 OFFCURVE",
"425.713 -47 CURVE"
);
}
);
width = 772.51;
},
{
anchors = (
{
name = _bottom;
position = "{386, 0}";
}
);
components = (
{
alignment = -1;
name = G;
}
);
hints = (
{
place = "{332, 117}";
type = Stem;
},
{
place = "{336, 113}";
type = Stem;
},
{
place = "{385, 64}";
type = Stem;
},
{
horizontal = 1;
place = "{-143, 96}";
type = Stem;
},
{
horizontal = 1;
place = "{-272, 21}";
target = up;
type = BottomGhost;
}
);
layerId = "0CF0EA28-C756-4A9E-9D7C-CFEF350B4CFE";
paths = (
{
closed = 1;
nodes = (
"332 -47 LINE",
"332 -143.022 LINE",
"385 -143.356 LINE",
"385 -164.507 LINE SMOOTH",
"385 -203.003 OFFCURVE",
"370 -222.251 OFFCURVE",
"336 -222.251 CURVE",
"336 -271.942 LINE",
"410 -271.942 OFFCURVE",
"449 -229.752 OFFCURVE",
"449 -146.377 CURVE SMOOTH",
"449 -117.224 OFFCURVE",
"444.022 -84.102 OFFCURVE",
"435.062 -47 CURVE"
);
}
);
width = 772.5;
},
{
anchors = (
{
name = _bottom;
position = "{395.787, -7.83}";
}
);
components = (
{
alignment = -1;
name = G;
}
);
hints = (
{
place = "{396, 24}";
type = Stem;
},
{
horizontal = 1;
place = "{-58, -20}";
target = down;
type = TopGhost;
},
{
horizontal = 1;
place = "{-177, 21}";
target = up;
type = BottomGhost;
}
);
layerId = "6E968933-CD79-43C6-9231-80D77C940F4D";
paths = (
{
closed = 1;
nodes = (
"376.043 -58.367 LINE",
"376.043 -97.39 LINE",
"407.511 -97.397 LINE",
"407.511 -104.659 LINE SMOOTH",
"407.511 -137.593 OFFCURVE",
"396.426 -158.438 OFFCURVE",
"364.383 -158.438 CURVE",
"364.383 -177.013 LINE",
"401.191 -177.013 OFFCURVE",
"430.404 -161.517 OFFCURVE",
"430.404 -90.649 CURVE SMOOTH",
"430.404 -81.271 OFFCURVE",
"429.32 -67.915 OFFCURVE",
"428.15 -58.367 CURVE"
);
}
);
width = 773.5766;
},
{
anchors = (
{
name = _bottom;
position = "{381.396, 0.575}";
}
);
components = (
{
alignment = -1;
name = G;
}
);
hints = (
{
place = "{312, 154}";
type = Stem;
},
{
place = "{356, 111}";
type = Stem;
},
{
place = "{-33, 73}";
type = Stem;
},
{
horizontal = 1;
place = "{-164, 125}";
type = Stem;
},
{
horizontal = 1;
place = "{-115, 21}";
target = up;
type = BottomGhost;
}
);
layerId = "BAF31694-0472-4296-B0EA-1654553C45D2";
paths = (
{
closed = 1;
nodes = (
"312.434 -38.264 LINE",
"312.434 -163.882 LINE",
"376.368 -164.023 LINE",
"376.368 -178.474 LINE SMOOTH",
"376.368 -223.763 OFFCURVE",
"358.491 -244.737 OFFCURVE",
"323.915 -244.737 CURVE",
"323.915 -311.574 LINE",
"420.934 -311.574 OFFCURVE",
"466.84 -247.969 OFFCURVE",
"466.84 -157.74 CURVE SMOOTH",
"466.84 -121.385 OFFCURVE",
"460.064 -80.996 OFFCURVE",
"445.769 -38.264 CURVE"
);
}
);
width = 745.16509;
},
{
anchors = (
{
name = _bottom;
position = "{393.83, -7.83}";
}
);
components = (
{
alignment = -1;
name = G;
}
);
hints = (
{
horizontal = 1;
place = "{-3, 2}";
type = Stem;
},
{
horizontal = 1;
place = "{-177, 21}";
target = up;
type = BottomGhost;
}
);
layerId = "F7832249-9EF4-4513-B883-88BAA20BF268";
paths = (
{
closed = 1;
nodes = (
"364.433 -58.367 LINE",
"356.67 -97.39 LINE",
"388.137 -97.397 LINE",
"386.693 -104.659 LINE SMOOTH",
"380.142 -137.593 OFFCURVE",
"364.911 -158.438 OFFCURVE",
"332.868 -158.438 CURVE",
"329.172 -177.013 LINE",
"365.981 -177.013 OFFCURVE",
"398.276 -161.517 OFFCURVE",
"412.373 -90.649 CURVE SMOOTH",
"414.239 -81.271 OFFCURVE",
"415.811 -67.915 OFFCURVE",
"416.54 -58.367 CURVE"
);
}
);
width = 773.56702;
},
{
anchors = (
{
name = _bottom;
position = "{381.396, 0.575}";
}
);
components = (
{
alignment = -1;
name = G;
}
);
hints = (
{
horizontal = 1;
place = "{-196, 45}";
type = Stem;
},
{
horizontal = 1;
place = "{-164, 125}";
type = Stem;
}
);
layerId = "9CDD62D3-67F3-4AC7-B192-D539276CE01F";
paths = (
{
closed = 1;
nodes = (
"304.823 -38.264 LINE",
"279.836 -163.882 LINE",
"343.742 -164.023 LINE",
"340.868 -178.474 LINE SMOOTH",
"331.858 -223.763 OFFCURVE",
"309.809 -244.737 OFFCURVE",
"275.234 -244.737 CURVE",
"261.939 -311.574 LINE",
"358.958 -311.574 OFFCURVE",
"417.515 -247.969 OFFCURVE",
"435.463 -157.74 CURVE SMOOTH",
"442.695 -121.385 OFFCURVE",
"443.952 -80.996 OFFCURVE",
"438.158 -38.264 CURVE"
);
}
);
width = 745.17509;
}
);
leftMetricsKey = G;
rightMetricsKey = G;
unicode = 0122;
},
{
glyphname = H;
lastChange = "2021-08-10 05:27:38 +0000";
layers = (
{
guideLines = (
{
position = "{-49.73, 699.66}";
}
);
hints = (
{
horizontal = 1;
place = "{306, 93}";
type = Stem;
},
{
horizontal = 1;
place = "{0, 21}";
target = up;
type = BottomGhost;
},
{
horizontal = 1;
place = "{700, -20}";
target = down;
type = TopGhost;
}
);
layerId = "24A19461-EE5C-48C0-A968-CC082199DAC2";
paths = (
{
closed = 1;
nodes = (
"35.27 0 LINE",
"149.27 0 LINE",
"288.574 700.328 LINE",
"174.574 700.328 LINE"
);
},
{
closed = 1;
nodes = (
"476.27 0 LINE",
"590.27 0 LINE",
"729.574 700.328 LINE",
"615.574 700.328 LINE"
);
},
{
closed = 1;
nodes = (
"190.174 306.186 LINE",
"564.174 306.186 LINE",
"582.673 399.186 LINE",
"208.673 399.186 LINE"
);
}
);
width = 725;
},
{
guideLines = (
{
position = "{0, 699.66}";
}
);
hints = (
{
place = "{85, 114}";
type = Stem;
},
{
place = "{526, 114}";
type = Stem;
},
{
horizontal = 1;
place = "{306, 93}";
type = Stem;
},
{
horizontal = 1;
place = "{0, 21}";
target = up;
type = BottomGhost;
},
{
horizontal = 1;
place = "{700, -20}";
target = down;
type = TopGhost;
}
);
layerId = "0CF0EA28-C756-4A9E-9D7C-CFEF350B4CFE";
paths = (
{
closed = 1;
nodes = (
"85 0 LINE",
"199 0 LINE",
"199 700.328 LINE",
"85 700.328 LINE"
);
},
{
closed = 1;
nodes = (
"526 0 LINE",
"640 0 LINE",
"640 700.328 LINE",
"526 700.328 LINE"
);
},
{
closed = 1;
nodes = (
"179 306.186 LINE",
"553 306.186 LINE",
"553 399.186 LINE",
"179 399.186 LINE"
);
}
);
width = 725;
},
{
hints = (
{
place = "{114, 22}";
type = Stem;
},
{
place = "{559, 22}";
type = Stem;
},
{
horizontal = 1;
place = "{0, 21}";
target = up;
type = BottomGhost;
},
{
horizontal = 1;
place = "{700, -20}";
target = down;
type = TopGhost;
}
);
layerId = "6E968933-CD79-43C6-9231-80D77C940F4D";
paths = (
{
closed = 1;
nodes = (
"104.574 0.05 LINE",
"126.574 0.05 LINE",
"126.574 700.058 LINE",
"104.574 700.058 LINE"
);
},
{
closed = 1;
nodes = (
"563.191 0.05 LINE",
"585.191 0.05 LINE",
"585.191 700.058 LINE",
"563.191 700.058 LINE"
);
},
{
closed = 1;
nodes = (
"116.362 350.092 LINE",
"575.511 350.092 LINE",
"575.511 369.587 LINE",
"116.362 369.587 LINE"
);
}
);
width = 689.76596;
},
{
hints = (
{
place = "{53, 176}";
type = Stem;
},
{
place = "{490, 176}";
type = Stem;
},
{
horizontal = 1;
place = "{286, 141}";
type = Stem;
},
{
horizontal = 1;
place = "{0, 21}";
target = up;
type = BottomGhost;
},
{
horizontal = 1;
place = "{700, -20}";
target = down;
type = TopGhost;
}
);
layerId = "BAF31694-0472-4296-B0EA-1654553C45D2";
paths = (
{
closed = 1;
nodes = (
"53.349 0 LINE",
"229.5 0 LINE",
"229.5 700.159 LINE",
"53.349 700.159 LINE"
);
},
{
closed = 1;
nodes = (
"489.745 0 LINE",
"665.896 0 LINE",
"665.896 700.159 LINE",
"489.745 700.159 LINE"
);
},
{
closed = 1;
nodes = (
"209.5 286.432 LINE",
"513.868 286.432 LINE",
"513.868 427.772 LINE",
"209.5 427.772 LINE"
);
}
);
width = 719.24528;
},
{
hints = (
{
horizontal = 1;
place = "{7, 2}";
type = Stem;
},
{
horizontal = 1;
place = "{0, 21}";
target = up;
type = BottomGhost;
},
{
horizontal = 1;
place = "{700, -20}";
target = down;
type = TopGhost;
}
);
layerId = "F7832249-9EF4-4513-B883-88BAA20BF268";
paths = (
{
closed = 1;
nodes = (
"54.854 0.05 LINE",
"76.854 0.05 LINE",
"216.095 700.058 LINE",
"194.095 700.058 LINE"
);
},
{
closed = 1;
nodes = (
"513.471 0.05 LINE",
"535.471 0.05 LINE",
"674.712 700.058 LINE",
"652.712 700.058 LINE"
);
},
{
closed = 1;
nodes = (
"136.269 350.092 LINE",
"595.418 350.092 LINE",
"599.296 369.587 LINE",
"140.147 369.587 LINE"
);
}
);
width = 689.76596;
},
{
hints = (
{
horizontal = 1;
place = "{286, 141}";
type = Stem;
},
{
horizontal = 1;
place = "{0, 21}";
target = up;
type = BottomGhost;
},
{
horizontal = 1;
place = "{700, -20}";
target = down;
type = TopGhost;
}
);
layerId = "9CDD62D3-67F3-4AC7-B192-D539276CE01F";
paths = (
{
closed = 1;
nodes = (
"3.619 0 LINE",
"179.77 0 LINE",
"319.041 700.159 LINE",
"142.89 700.159 LINE"
);
},
{
closed = 1;
nodes = (
"440.015 0 LINE",
"616.166 0 LINE",
"755.437 700.159 LINE",
"579.286 700.159 LINE"
);
},
{
closed = 1;
nodes = (
"216.745 286.432 LINE",
"521.113 286.432 LINE",
"549.227 427.772 LINE",
"244.859 427.772 LINE"
);
}
);
width = 719.24528;
}
);
unicode = 0048;
},
{
glyphname = I;
lastChange = "2021-08-10 05:27:38 +0000";
layers = (
{
anchors = (
{
name = ogonek;
position = "{149.28, 1}";
},
{
name = top;
position = "{231.28, 701}";
}
);
hints = (
{
horizontal = 1;
place = "{0, 21}";
target = up;
type = BottomGhost;
},
{
horizontal = 1;
place = "{700, -20}";
target = down;
type = TopGhost;
}
);
layerId = "24A19461-EE5C-48C0-A968-CC082199DAC2";
paths = (
{
closed = 1;
nodes = (
"35.28 0 LINE",
"149.28 0 LINE",
"288.575 700.328 LINE",
"174.575 700.328 LINE"
);
}
);
width = 284.01;
},
{
anchors = (
{
name = ogonek;
position = "{199, 1}";
},
{
name = top;
position = "{142, 701}";
}
);
hints = (
{
place = "{85, 114}";
type = Stem;
},
{
horizontal = 1;
place = "{0, 21}";
target = up;
type = BottomGhost;
},
{
horizontal = 1;
place = "{700, -20}";
target = down;
type = TopGhost;
}
);
layerId = "0CF0EA28-C756-4A9E-9D7C-CFEF350B4CFE";
paths = (
{
closed = 1;
nodes = (
"85 0 LINE",
"199 0 LINE",
"199 700.328 LINE",
"85 700.328 LINE"
);
}
);
width = 284;
},
{
anchors = (
{
name = ogonek;
position = "{126.574, 0.021}";
},
{
name = top;
position = "{115.574, 679.468}";
}
);
hints = (
{
place = "{105, 22}";
type = Stem;
},
{
horizontal = 1;
place = "{0, 21}";
target = up;
type = BottomGhost;
},
{
horizontal = 1;
place = "{700, -20}";
target = down;
type = TopGhost;
}
);
layerId = "6E968933-CD79-43C6-9231-80D77C940F4D";
paths = (
{
closed = 1;
nodes = (
"104.574 0.05 LINE",
"126.574 0.05 LINE",
"126.574 700.044 LINE",
"104.574 700.044 LINE"
);
}
);
width = 231.14894;
},
{
anchors = (
{
name = ogonek;
position = "{229.5, 1}";
},
{
name = top;
position = "{142, 701.575}";
}
);
hints = (
{
place = "{53, 176}";
type = Stem;
},
{
horizontal = 1;
place = "{0, 21}";
target = up;
type = BottomGhost;
},
{
horizontal = 1;
place = "{700, -20}";
target = down;
type = TopGhost;
}
);
layerId = "BAF31694-0472-4296-B0EA-1654553C45D2";
paths = (
{
closed = 1;
nodes = (
"53.349 0 LINE",
"229.5 0 LINE",
"229.5 700.159 LINE",
"53.349 700.159 LINE"
);
}
);
width = 282.84906;
},
{
anchors = (
{
name = ogonek;
position = "{76.845, 0.021}";
},
{
name = top;
position = "{200.93, 679.468}";
}
);
hints = (
{
horizontal = 1;
place = "{0, 21}";
target = up;
type = BottomGhost;
},
{
horizontal = 1;
place = "{700, -20}";
target = down;
type = TopGhost;
}
);
layerId = "F7832249-9EF4-4513-B883-88BAA20BF268";
paths = (
{
closed = 1;
nodes = (
"54.854 0.05 LINE",
"76.854 0.05 LINE",
"216.106 700.044 LINE",
"194.106 700.044 LINE"
);
}
);
width = 231.15894;
},
{
anchors = (
{
name = ogonek;
position = "{179.78, 1}";
},
{
name = top;
position = "{231.855, 701.575}";
}
);
hints = (
{
horizontal = 1;
place = "{0, 21}";
target = up;
type = BottomGhost;
},
{
horizontal = 1;
place = "{700, -20}";
target = down;
type = TopGhost;
}
);
layerId = "9CDD62D3-67F3-4AC7-B192-D539276CE01F";
paths = (
{
closed = 1;
nodes = (
"3.629 0 LINE",
"179.78 0 LINE",
"319.042 700.159 LINE",
"142.891 700.159 LINE"
);
}
);
width = 282.85906;
}
);
leftMetricsKey = H;
rightMetricsKey = H;
unicode = 0049;
},
{
glyphname = J;
lastChange = "2021-08-10 05:27:38 +0000";
layers = (
{
hints = (
{
horizontal = 1;
place = "{-7, 102}";
type = Stem;
},
{
horizontal = 1;
place = "{700, -20}";
target = down;
type = TopGhost;
}
);
layerId = "24A19461-EE5C-48C0-A968-CC082199DAC2";
paths = (
{
closed = 1;
nodes = (
"333.073 200.099 LINE SMOOTH",
"321.456 141.681 OFFCURVE",
"278.042 94.343 OFFCURVE",
"217.042 94.343 CURVE SMOOTH",
"167.161 94.343 OFFCURVE",
"144.169 121.955 OFFCURVE",
"138.875 163.963 CURVE",
"31.707 127.377 LINE",
"41.624 41.765 OFFCURVE",
"100.017 -7.385 OFFCURVE",
"196.811 -7.385 CURVE SMOOTH",
"316.811 -7.385 OFFCURVE",
"422.835 73.191 OFFCURVE",
"448.073 200.099 CURVE SMOOTH",
"547.422 699.67 LINE",
"432.422 699.67 LINE"
);
}
);
width = 538.75;
},
{
hints = (
{
place = "{343, 115}";
type = Stem;
},
{
horizontal = 1;
place = "{-7, 102}";
type = Stem;
},
{
horizontal = 1;
place = "{700, -20}";
target = down;
type = TopGhost;
}
);
layerId = "0CF0EA28-C756-4A9E-9D7C-CFEF350B4CFE";
paths = (
{
closed = 1;
nodes = (
"343 200.099 LINE SMOOTH",
"343 141.681 OFFCURVE",
"309 94.343 OFFCURVE",
"248 94.343 CURVE SMOOTH",
"198.119 94.343 OFFCURVE",
"169.636 121.955 OFFCURVE",
"155.988 163.963 CURVE",
"56.096 127.377 LINE",
"83.039 41.765 OFFCURVE",
"151.205 -7.385 OFFCURVE",
"248 -7.385 CURVE SMOOTH",
"368 -7.385 OFFCURVE",
"458 73.191 OFFCURVE",
"458 200.099 CURVE SMOOTH",
"458 699.67 LINE",
"343 699.67 LINE"
);
}
);
width = 538.75;
},
{
hints = (
{
place = "{359, 22}";
type = Stem;
},
{
horizontal = 1;
place = "{-7, 21}";
target = up;
type = BottomGhost;
},
{
horizontal = 1;
place = "{700, -20}";
target = down;
type = TopGhost;
}
);
layerId = "6E968933-CD79-43C6-9231-80D77C940F4D";
paths = (
{
closed = 1;
nodes = (
"365.814 155.145 LINE SMOOTH",
"365.814 97.459 OFFCURVE",
"334.75 12.762 OFFCURVE",
"230.686 12.762 CURVE SMOOTH",
"137.248 12.762 OFFCURVE",
"101.382 72.411 OFFCURVE",
"90.031 143.337 CURVE",
"69.022 135.693 LINE",
"84.407 47.447 OFFCURVE",
"137.706 -6.919 OFFCURVE",
"230.686 -6.919 CURVE SMOOTH",
"332.091 -6.919 OFFCURVE",
"387.835 71.674 OFFCURVE",
"387.835 155.145 CURVE SMOOTH",
"387.835 700.03 LINE",
"365.814 700.03 LINE"
);
}
);
width = 487.18106;
},
{
hints = (
{
place = "{334, 176}";
type = Stem;
},
{
horizontal = 1;
place = "{-6, 157}";
type = Stem;
},
{
horizontal = 1;
place = "{700, -20}";
target = down;
type = TopGhost;
}
);
layerId = "BAF31694-0472-4296-B0EA-1654553C45D2";
paths = (
{
closed = 1;
nodes = (
"333.948 227.989 LINE SMOOTH",
"333.948 177.114 OFFCURVE",
"305.703 150.216 OFFCURVE",
"265.995 150.216 CURVE SMOOTH",
"230.836 150.216 OFFCURVE",
"207.186 168.304 OFFCURVE",
"196.996 208.873 CURVE",
"35.21 172.534 LINE",
"60.451 54.824 OFFCURVE",
"146.683 -6.339 OFFCURVE",
"271.75 -6.339 CURVE SMOOTH",
"412.467 -6.339 OFFCURVE",
"509.948 76.049 OFFCURVE",
"509.948 227.989 CURVE SMOOTH",
"509.948 699.692 LINE",
"333.948 699.692 LINE"
);
}
);
width = 560.62943;
},
{
hints = (
{
horizontal = 1;
place = "{95, 23}";
type = Stem;
},
{
horizontal = 1;
place = "{700, -20}";
target = down;
type = TopGhost;
}
);
layerId = "F7832249-9EF4-4513-B883-88BAA20BF268";
paths = (
{
closed = 1;
nodes = (
"346.947 155.145 LINE SMOOTH",
"335.472 97.459 OFFCURVE",
"287.559 12.762 OFFCURVE",
"183.495 12.762 CURVE SMOOTH",
"90.057 12.762 OFFCURVE",
"66.057 72.411 OFFCURVE",
"68.815 143.337 CURVE",
"46.286 135.693 LINE",
"44.116 47.447 OFFCURVE",
"86.601 -6.919 OFFCURVE",
"179.581 -6.919 CURVE SMOOTH",
"280.985 -6.919 OFFCURVE",
"352.364 71.674 OFFCURVE",
"368.969 155.145 CURVE SMOOTH",
"477.364 700.03 LINE",
"455.343 700.03 LINE"
);
}
);
width = 487.19085;
},
{
hints = (
{
horizontal = 1;
place = "{-6, 157}";
type = Stem;
},
{
horizontal = 1;
place = "{700, -20}";
target = down;
type = TopGhost;
}
);
layerId = "9CDD62D3-67F3-4AC7-B192-D539276CE01F";
paths = (
{
closed = 1;
nodes = (
"329.57 227.989 LINE SMOOTH",
"319.452 177.114 OFFCURVE",
"285.857 150.216 OFFCURVE",
"246.15 150.216 CURVE SMOOTH",
"210.991 150.216 OFFCURVE",
"190.938 168.304 OFFCURVE",
"188.816 208.873 CURVE",
"19.803 172.534 LINE",
"21.634 54.824 OFFCURVE",
"95.703 -6.339 OFFCURVE",
"220.769 -6.339 CURVE SMOOTH",
"361.486 -6.339 OFFCURVE",
"475.352 76.049 OFFCURVE",
"505.57 227.989 CURVE SMOOTH",
"599.38 699.692 LINE",
"423.38 699.692 LINE"
);
}
);
width = 560.62943;
}
);
leftMetricsKey = "=H*0.66";
rightMetricsKey = U;
unicode = 004A;
},
{
glyphname = K;
lastChange = "2021-08-10 05:27:38 +0000";
layers = (
{
anchors = (
{
name = bottom;
position = "{277.28, 0}";
},
{
name = top;
position = "{416.28, 701}";
}
);
hints = (
{
horizontal = 1;
place = "{0, 21}";
target = up;
type = BottomGhost;
},
{
horizontal = 1;
place = "{700, -20}";
target = down;
type = TopGhost;
}
);
layerId = "24A19461-EE5C-48C0-A968-CC082199DAC2";
paths = (
{
closed = 1;
nodes = (
"35.28 0 LINE",
"149.28 0 LINE",
"288.575 700.328 LINE",
"174.575 700.328 LINE"
);
},
{
closed = 1;
nodes = (
"360.75 356.017 LINE",
"731.086 700.328 LINE",
"588.476 700.328 LINE",
"220.714 353.185 LINE",
"448.181 0 LINE",
"596.802 0 LINE"
);
},
{
closed = 1;
nodes = (
"190.18 306.186 LINE",
"334.18 306.186 LINE",
"352.678 399.186 LINE",
"208.678 399.186 LINE"
);
}
);
width = 659.28;
},
{
anchors = (
{
name = bottom;
position = "{327, 0}";
},
{
name = top;
position = "{327, 701}";
}
);
hints = (
{
place = "{85, 114}";
type = Stem;
},
{
horizontal = 1;
place = "{0, 21}";
target = up;
type = BottomGhost;
},
{
horizontal = 1;
place = "{700, -20}";
target = down;
type = TopGhost;
}
);
layerId = "0CF0EA28-C756-4A9E-9D7C-CFEF350B4CFE";
paths = (
{
closed = 1;
nodes = (
"85 0 LINE",
"199 0 LINE",
"199 700.328 LINE",
"85 700.328 LINE"
);
},
{
closed = 1;
nodes = (
"339.659 356.017 LINE",
"641.511 700.328 LINE",
"498.901 700.328 LINE",
"200.186 353.185 LINE",
"497.901 0 LINE",
"646.522 0 LINE"
);
},
{
closed = 1;
nodes = (
"179 306.186 LINE",
"323 306.186 LINE",
"323 399.186 LINE",
"179 399.186 LINE"
);
}
);
width = 659.27;
},
{
anchors = (
{
name = bottom;
position = "{276.106, 0}";
},
{
name = top;
position = "{276.106, 679.468}";
}
);
hints = (
{
place = "{105, 22}";
type = Stem;
},
{
horizontal = 1;
place = "{0, 21}";
target = up;
type = BottomGhost;
},
{
horizontal = 1;
place = "{700, -20}";
target = down;
type = TopGhost;
}
);
layerId = "6E968933-CD79-43C6-9231-80D77C940F4D";
paths = (
{
closed = 1;
nodes = (
"104.574 0.05 LINE",
"126.574 0.05 LINE",
"126.574 700.044 LINE",
"104.574 700.044 LINE"
);
},
{
closed = 1;
nodes = (
"170.638 360.67 LINE",
"526.5 700.044 LINE",
"497.04 700.044 LINE",
"141.281 359.843 LINE",
"497.019 0.05 LINE",
"526.607 0.05 LINE"
);
},
{
closed = 1;
nodes = (
"116.362 350.085 LINE",
"169.34 350.085 LINE",
"169.34 369.58 LINE",
"116.362 369.58 LINE"
);
}
);
width = 542.29298;
},
{
anchors = (
{
name = bottom;
position = "{342.538, 0.575}";
},
{
name = top;
position = "{342.538, 701.575}";
}
);
hints = (
{
place = "{53, 176}";
type = Stem;
},
{
horizontal = 1;
place = "{0, 21}";
target = up;
type = BottomGhost;
},
{
horizontal = 1;
place = "{700, -20}";
target = down;
type = TopGhost;
}
);
layerId = "BAF31694-0472-4296-B0EA-1654553C45D2";
paths = (
{
closed = 1;
nodes = (
"53.349 0 LINE",
"229.5 0 LINE",
"229.5 700.159 LINE",
"53.349 700.159 LINE"
);
},
{
closed = 1;
nodes = (
"427.374 360.833 LINE",
"696.772 700.159 LINE",
"491.132 700.159 LINE",
"226.832 354.202 LINE",
"492.433 0 LINE",
"708.086 0 LINE"
);
},
{
closed = 1;
nodes = (
"209.5 286.432 LINE",
"381.698 286.432 LINE",
"381.698 427.772 LINE",
"209.5 427.772 LINE"
);
}
);
width = 716.08632;
},
{
anchors = (
{
name = bottom;
position = "{226.377, 0}";
},
{
name = top;
position = "{361.462, 679.468}";
}
);
hints = (
{
horizontal = 1;
place = "{0, 21}";
target = up;
type = BottomGhost;
},
{
horizontal = 1;
place = "{700, -20}";
target = down;
type = TopGhost;
}
);
layerId = "F7832249-9EF4-4513-B883-88BAA20BF268";
paths = (
{
closed = 1;
nodes = (
"54.854 0.05 LINE",
"76.854 0.05 LINE",
"216.106 700.044 LINE",
"194.106 700.044 LINE"
);
},
{
closed = 1;
nodes = (
"192.657 360.67 LINE",
"616.032 700.044 LINE",
"586.572 700.044 LINE",
"163.136 359.843 LINE",
"447.299 0.05 LINE",
"476.887 0.05 LINE"
);
},
{
closed = 1;
nodes = (
"136.276 350.085 LINE",
"189.255 350.085 LINE",
"193.132 369.58 LINE",
"140.154 369.58 LINE"
);
}
);
width = 542.30298;
},
{
anchors = (
{
name = bottom;
position = "{292.818, 0.575}";
},
{
name = top;
position = "{432.393, 701.575}";
}
);
hints = (
{
horizontal = 1;
place = "{0, 21}";
target = up;
type = BottomGhost;
},
{
horizontal = 1;
place = "{700, -20}";
target = down;
type = TopGhost;
}
);
layerId = "9CDD62D3-67F3-4AC7-B192-D539276CE01F";
paths = (
{
closed = 1;
nodes = (
"3.629 0 LINE",
"179.78 0 LINE",
"319.042 700.159 LINE",
"142.891 700.159 LINE"
);
},
{
closed = 1;
nodes = (
"449.423 360.833 LINE",
"786.313 700.159 LINE",
"580.674 700.159 LINE",
"247.563 354.202 LINE",
"442.713 0 LINE",
"658.366 0 LINE"
);
},
{
closed = 1;
nodes = (
"216.751 286.432 LINE",
"388.949 286.432 LINE",
"417.062 427.772 LINE",
"244.864 427.772 LINE"
);
}
);
width = 716.09632;
}
);
leftMetricsKey = H;
rightMetricsKey = "=H*0.15";
unicode = 004B;
},
{
glyphname = Kcommaaccent;
lastChange = "2021-08-10 05:27:38 +0000";
layers = (
{
anchors = (
{
name = _bottom;
position = "{317, 0}";
}
);
components = (
{
alignment = -1;
name = K;
}
);
hints = (
{
horizontal = 1;
place = "{-143, 96}";
type = Stem;
},
{
horizontal = 1;
place = "{-272, 21}";
target = up;
type = BottomGhost;
}
);
layerId = "24A19461-EE5C-48C0-A968-CC082199DAC2";
paths = (
{
closed = 1;
nodes = (
"252.651 -47 LINE",
"233.551 -143.022 LINE",
"286.485 -143.356 LINE",
"282.278 -164.507 LINE SMOOTH",
"274.62 -203.003 OFFCURVE",
"255.792 -222.251 OFFCURVE",
"222.792 -222.251 CURVE",
"212.907 -271.942 LINE",
"286.907 -271.942 OFFCURVE",
"333.299 -229.752 OFFCURVE",
"349.884 -146.377 CURVE SMOOTH",
"355.683 -117.223 OFFCURVE",
"358.292 -84.089 OFFCURVE",
"355.717 -47 CURVE"
);
}
);
width = 659.28;
},
{
anchors = (
{
name = _bottom;
position = "{317, 0}";
}
);
components = (
{
alignment = -1;
name = K;
}
);
hints = (
{
place = "{262, 117}";
type = Stem;
},
{
place = "{267, 112}";
type = Stem;
},
{
place = "{315, 64}";
type = Stem;
},
{
horizontal = 1;
place = "{-143, 96}";
type = Stem;
},
{
horizontal = 1;
place = "{-272, 21}";
target = up;
type = BottomGhost;
}
);
layerId = "0CF0EA28-C756-4A9E-9D7C-CFEF350B4CFE";
paths = (
{
closed = 1;
nodes = (
"262 -47 LINE",
"262 -143.022 LINE",
"315 -143.356 LINE",
"315 -164.507 LINE SMOOTH",
"315 -203.003 OFFCURVE",
"300 -222.251 OFFCURVE",
"267 -222.251 CURVE",
"267 -271.942 LINE",
"341 -271.942 OFFCURVE",
"379 -229.752 OFFCURVE",
"379 -146.377 CURVE SMOOTH",
"379 -117.223 OFFCURVE",
"375.019 -84.089 OFFCURVE",
"365.066 -47 CURVE"
);
}
);
width = 659.27;
},
{
anchors = (
{
name = _bottom;
position = "{242.617, 0}";
}
);
components = (
{
alignment = -1;
name = K;
}
);
hints = (
{
place = "{240, 24}";
type = Stem;
},
{
horizontal = 1;
place = "{-58, -20}";
target = down;
type = TopGhost;
},
{
horizontal = 1;
place = "{-177, 21}";
target = up;
type = BottomGhost;
}
);
layerId = "6E968933-CD79-43C6-9231-80D77C940F4D";
paths = (
{
closed = 1;
nodes = (
"217.957 -58.367 LINE",
"217.957 -97.39 LINE",
"249.426 -97.397 LINE",
"249.426 -104.659 LINE SMOOTH",
"249.426 -137.593 OFFCURVE",
"238.34 -158.438 OFFCURVE",
"206.319 -158.438 CURVE",
"206.319 -177.013 LINE",
"243.128 -177.013 OFFCURVE",
"272.319 -161.517 OFFCURVE",
"272.319 -90.649 CURVE SMOOTH",
"272.319 -81.271 OFFCURVE",
"271.256 -67.915 OFFCURVE",
"270.065 -58.367 CURVE"
);
}
);
width = 542.29298;
},
{
anchors = (
{
name = _bottom;
position = "{364.189, 0.575}";
}
);
components = (
{
alignment = -1;
name = K;
}
);
hints = (
{
place = "{111, 50}";
type = Stem;
},
{
place = "{297, 152}";
type = Stem;
},
{
place = "{359, 90}";
type = Stem;
},
{
horizontal = 1;
place = "{-164, 125}";
type = Stem;
},
{
horizontal = 1;
place = "{-312, 21}";
target = up;
type = BottomGhost;
}
);
layerId = "BAF31694-0472-4296-B0EA-1654553C45D2";
paths = (
{
closed = 1;
nodes = (
"294.802 -38.264 LINE",
"294.802 -163.882 LINE",
"358.736 -164.023 LINE",
"358.736 -178.474 LINE SMOOTH",
"358.736 -223.763 OFFCURVE",
"340.283 -244.737 OFFCURVE",
"306.708 -244.737 CURVE",
"306.708 -311.574 LINE",
"403.151 -311.574 OFFCURVE",
"448.632 -247.969 OFFCURVE",
"448.632 -157.74 CURVE SMOOTH",
"448.632 -121.391 OFFCURVE",
"442.86 -81.004 OFFCURVE",
"428.139 -38.264 CURVE"
);
}
);
width = 716.08632;
},
{
anchors = (
{
name = _bottom;
position = "{242.617, 0}";
}
);
components = (
{
alignment = -1;
name = K;
}
);
hints = (
{
horizontal = 1;
place = "{-3, 2}";
type = Stem;
},
{
horizontal = 1;
place = "{-177, 21}";
target = up;
type = BottomGhost;
}
);
layerId = "F7832249-9EF4-4513-B883-88BAA20BF268";
paths = (
{
closed = 1;
nodes = (
"206.348 -58.367 LINE",
"198.585 -97.39 LINE",
"230.052 -97.397 LINE",
"228.608 -104.659 LINE SMOOTH",
"222.057 -137.593 OFFCURVE",
"206.825 -158.438 OFFCURVE",
"174.804 -158.438 CURVE",
"171.109 -177.013 LINE",
"207.917 -177.013 OFFCURVE",
"240.191 -161.517 OFFCURVE",
"254.288 -90.649 CURVE SMOOTH",
"256.154 -81.271 OFFCURVE",
"257.747 -67.915 OFFCURVE",
"258.455 -58.367 CURVE"
);
}
);
width = 542.30298;
},
{
anchors = (
{
name = _bottom;
position = "{364.189, 0.575}";
}
);
components = (
{
alignment = -1;
name = K;
}
);
hints = (
{
horizontal = 1;
place = "{-164, 125}";
type = Stem;
},
{
horizontal = 1;
place = "{-312, 21}";
target = up;
type = BottomGhost;
}
);
layerId = "9CDD62D3-67F3-4AC7-B192-D539276CE01F";
paths = (
{
closed = 1;
nodes = (
"287.191 -38.264 LINE",
"262.204 -163.882 LINE",
"326.11 -164.023 LINE",
"323.235 -178.474 LINE SMOOTH",
"314.226 -223.763 OFFCURVE",
"291.602 -244.737 OFFCURVE",
"258.026 -244.737 CURVE",
"244.732 -311.574 LINE",
"341.175 -311.574 OFFCURVE",
"399.308 -247.969 OFFCURVE",
"417.256 -157.74 CURVE SMOOTH",
"424.486 -121.391 OFFCURVE",
"426.747 -81.004 OFFCURVE",
"420.528 -38.264 CURVE"
);
}
);
width = 716.09632;
}
);
leftMetricsKey = H;
rightMetricsKey = K;
unicode = 0136;
},
{
glyphname = L;
lastChange = "2021-08-10 05:27:38 +0000";
layers = (
{
anchors = (
{
name = bottom;
position = "{208.28, 0}";
},
{
name = commaaccent;
position = "{210.28, 10}";
},
{
name = top;
position = "{321.28, 701}";
},
{
name = topright;
position = "{523.28, 701}";
}
);
hints = (
{
horizontal = 1;
place = "{0, 92}";
type = Stem;
},
{
horizontal = 1;
place = "{700, -20}";
target = down;
type = TopGhost;
}
);
layerId = "24A19461-EE5C-48C0-A968-CC082199DAC2";
paths = (
{
closed = 1;
nodes = (
"174.575 700.328 LINE",
"35.28 0 LINE",
"464.28 0 LINE",
"482.577 91.993 LINE",
"167.644 92.327 LINE",
"288.575 700.328 LINE"
);
}
);
width = 542.315;
},
{
anchors = (
{
name = bottom;
position = "{258, 0}";
},
{
name = commaaccent;
position = "{258, 10}";
},
{
name = top;
position = "{232, 701}";
},
{
name = topright;
position = "{434, 701}";
}
);
hints = (
{
place = "{85, 114}";
type = Stem;
},
{
horizontal = 1;
place = "{0, 92}";
type = Stem;
},
{
horizontal = 1;
place = "{700, -20}";
target = down;
type = TopGhost;
}
);
layerId = "0CF0EA28-C756-4A9E-9D7C-CFEF350B4CFE";
paths = (
{
closed = 1;
nodes = (
"85 700.328 LINE",
"85 0 LINE",
"514 0 LINE",
"514 91.993 LINE",
"199 92.327 LINE",
"199 700.328 LINE"
);
}
);
width = 542.305;
},
{
anchors = (
{
name = bottom;
position = "{240.383, 0}";
},
{
name = commaaccent;
position = "{240.383, 10}";
},
{
name = top;
position = "{222.213, 679.468}";
},
{
name = topright;
position = "{395.83, 679.468}";
}
);
hints = (
{
place = "{103, 22}";
type = Stem;
},
{
horizontal = 1;
place = "{0, 21}";
target = up;
type = BottomGhost;
},
{
horizontal = 1;
place = "{700, -20}";
target = down;
type = TopGhost;
}
);
layerId = "6E968933-CD79-43C6-9231-80D77C940F4D";
paths = (
{
closed = 1;
nodes = (
"104.574 700.044 LINE",
"104.574 0.05 LINE",
"475.83 0.05 LINE",
"475.83 19.524 LINE",
"126.574 19.532 LINE",
"126.574 700.044 LINE"
);
}
);
width = 510.65309;
},
{
anchors = (
{
name = bottom;
position = "{250.519, 0.575}";
},
{
name = commaaccent;
position = "{250.519, 10.575}";
},
{
name = top;
position = "{219.915, 701.575}";
},
{
name = topright;
position = "{440.906, 701.575}";
}
);
hints = (
{
place = "{53, 176}";
type = Stem;
},
{
horizontal = 1;
place = "{0, 136}";
type = Stem;
},
{
horizontal = 1;
place = "{700, -20}";
target = down;
type = TopGhost;
}
);
layerId = "BAF31694-0472-4296-B0EA-1654553C45D2";
paths = (
{
closed = 1;
nodes = (
"53.349 700.159 LINE",
"53.349 0 LINE",
"532.415 0 LINE",
"532.415 135.811 LINE",
"229.5 135.952 LINE",
"229.5 700.159 LINE"
);
}
);
width = 550.18033;
},
{
anchors = (
{
name = bottom;
position = "{190.653, 0}";
},
{
name = commaaccent;
position = "{192.653, 10}";
},
{
name = top;
position = "{307.568, 679.468}";
},
{
name = topright;
position = "{481.185, 679.468}";
}
);
hints = (
{
horizontal = 1;
place = "{0, 2}";
type = Stem;
},
{
horizontal = 1;
place = "{700, -20}";
target = down;
type = TopGhost;
}
);
layerId = "F7832249-9EF4-4513-B883-88BAA20BF268";
paths = (
{
closed = 1;
nodes = (
"194.106 700.044 LINE",
"54.854 0.05 LINE",
"426.11 0.05 LINE",
"429.984 19.524 LINE",
"80.73 19.532 LINE",
"216.106 700.044 LINE"
);
}
);
width = 510.6533;
},
{
anchors = (
{
name = bottom;
position = "{200.799, 0.575}";
},
{
name = commaaccent;
position = "{202.799, 10.575}";
},
{
name = top;
position = "{309.771, 701.575}";
},
{
name = topright;
position = "{530.761, 701.575}";
}
);
hints = (
{
horizontal = 1;
place = "{0, 136}";
type = Stem;
},
{
horizontal = 1;
place = "{700, -20}";
target = down;
type = TopGhost;
}
);
layerId = "9CDD62D3-67F3-4AC7-B192-D539276CE01F";
paths = (
{
closed = 1;
nodes = (
"142.891 700.159 LINE",
"3.629 0 LINE",
"482.695 0 LINE",
"509.708 135.811 LINE",
"206.821 135.952 LINE",
"319.042 700.159 LINE"
);
}
);
width = 550.19033;
}
);
leftMetricsKey = H;
rightMetricsKey = "=H*0.333";
unicode = 004C;
},
{
glyphname = Lcaron;
lastChange = "2021-08-10 05:29:08 +0000";
layers = (
{
anchors = (
{
name = _bottom;
position = "{500, 746}";
}
);
components = (
{
alignment = -1;
name = L;
}
);
hints = (
{
horizontal = 1;
place = "{603, 96}";
type = Stem;
},
{
horizontal = 1;
place = "{474, 21}";
target = up;
type = BottomGhost;
}
);
layerId = "24A19461-EE5C-48C0-A968-CC082199DAC2";
paths = (
{
closed = 1;
nodes = (
"436.105 699.328 LINE",
"417.005 603.307 LINE",
"469.939 602.973 LINE",
"465.732 581.822 LINE SMOOTH",
"458.074 543.325 OFFCURVE",
"439.245 524.077 OFFCURVE",
"406.245 524.077 CURVE",
"396.361 474.387 LINE",
"470.361 474.387 OFFCURVE",
"516.753 516.576 OFFCURVE",
"533.338 599.951 CURVE SMOOTH",
"539.137 629.106 OFFCURVE",
"541.746 662.239 OFFCURVE",
"539.171 699.328 CURVE"
);
}
);
width = 542.32;
},
{
anchors = (
{
name = _bottom;
position = "{352, 746}";
}
);
components = (
{
alignment = -1;
name = L;
}
);
hints = (
{
place = "{297, 117}";
type = Stem;
},
{
place = "{302, 112}";
type = Stem;
},
{
place = "{350, 64}";
type = Stem;
},
{
horizontal = 1;
place = "{603, 96}";
type = Stem;
},
{
horizontal = 1;
place = "{474, 21}";
target = up;
type = BottomGhost;
}
);
layerId = "0CF0EA28-C756-4A9E-9D7C-CFEF350B4CFE";
paths = (
{
closed = 1;
nodes = (
"297 699.328 LINE",
"297 603.307 LINE",
"350 602.973 LINE",
"350 581.822 LINE SMOOTH",
"350 543.325 OFFCURVE",
"335 524.077 OFFCURVE",
"302 524.077 CURVE",
"302 474.387 LINE",
"376 474.387 OFFCURVE",
"414 516.576 OFFCURVE",
"414 599.951 CURVE SMOOTH",
"414 629.106 OFFCURVE",
"410.019 662.239 OFFCURVE",
"400.066 699.328 CURVE"
);
}
);
width = 542.3;
},
{
anchors = (
{
name = _bottom;
position = "{260.979, 736.213}";
}
);
components = (
{
alignment = -1;
name = L;
}
);
hints = (
{
place = "{233, 61}";
type = Stem;
},
{
place = "{272, 23}";
type = Stem;
},
{
horizontal = 1;
place = "{555, 22}";
type = Stem;
},
{
horizontal = 1;
place = "{685, -20}";
target = down;
type = TopGhost;
}
);
layerId = "6E968933-CD79-43C6-9231-80D77C940F4D";
paths = (
{
closed = 1;
nodes = (
"233.383 700.037 LINE",
"233.383 646.416 LINE",
"271.702 646.409 LINE",
"271.702 617.737 LINE SMOOTH",
"271.702 588.697 OFFCURVE",
"261.596 572.717 OFFCURVE",
"226.638 572.717 CURVE",
"226.638 552.196 LINE",
"267.362 552.196 OFFCURVE",
"294.596 567.691 OFFCURVE",
"294.596 630.774 CURVE SMOOTH",
"294.596 648.911 OFFCURVE",
"293.532 671.026 OFFCURVE",
"290.384 700.037 CURVE"
);
}
);
width = 510.65787;
},
{
anchors = (
{
name = _bottom;
position = "{407.821, 738.519}";
}
);
components = (
{
alignment = -1;
name = L;
}
);
hints = (
{
place = "{126, 50}";
type = Stem;
},
{
place = "{341, 152}";
type = Stem;
},
{
place = "{402, 90}";
type = Stem;
},
{
horizontal = 1;
place = "{575, 124}";
type = Stem;
},
{
horizontal = 1;
place = "{426, 21}";
target = up;
type = BottomGhost;
}
);
layerId = "BAF31694-0472-4296-B0EA-1654553C45D2";
paths = (
{
closed = 1;
nodes = (
"338.434 699.735 LINE",
"338.434 574.685 LINE",
"402.368 575.307 LINE",
"402.368 559.525 LINE SMOOTH",
"402.368 514.8 OFFCURVE",
"383.915 493.829 OFFCURVE",
"350.34 493.829 CURVE",
"350.34 426.426 LINE",
"446.783 426.426 OFFCURVE",
"492.264 490.029 OFFCURVE",
"492.264 580.826 CURVE SMOOTH",
"492.264 617.177 OFFCURVE",
"486.492 657.565 OFFCURVE",
"471.769 699.735 CURVE"
);
}
);
width = 550.19009;
},
{
anchors = (
{
name = _bottom;
position = "{407.021, 736.213}";
}
);
components = (
{
alignment = -1;
name = L;
}
);
hints = (
{
horizontal = 1;
place = "{555, 22}";
type = Stem;
},
{
horizontal = 1;
place = "{10, 21}";
target = up;
type = BottomGhost;
}
);
layerId = "F7832249-9EF4-4513-B883-88BAA20BF268";
paths = (
{
closed = 1;
nodes = (
"372.629 700.037 LINE",
"361.964 646.416 LINE",
"400.281 646.409 LINE",
"394.578 617.737 LINE SMOOTH",
"388.801 588.697 OFFCURVE",
"375.516 572.717 OFFCURVE",
"340.559 572.717 CURVE",
"336.477 552.196 LINE",
"377.2 552.196 OFFCURVE",
"407.517 567.691 OFFCURVE",
"420.064 630.774 CURVE SMOOTH",
"423.672 648.911 OFFCURVE",
"427.007 671.026 OFFCURVE",
"429.63 700.037 CURVE"
);
}
);
width = 510.6583;
},
{
anchors = (
{
name = _bottom;
position = "{554.67, 738.519}";
}
);
components = (
{
alignment = -1;
name = L;
}
);
hints = (
{
horizontal = 1;
place = "{575, 124}";
type = Stem;
},
{
horizontal = 1;
place = "{426, 21}";
target = up;
type = BottomGhost;
}
);
layerId = "9CDD62D3-67F3-4AC7-B192-D539276CE01F";
paths = (
{
closed = 1;
nodes = (
"477.62 699.735 LINE",
"452.746 574.685 LINE",
"516.804 575.307 LINE",
"513.665 559.525 LINE SMOOTH",
"504.768 514.8 OFFCURVE",
"482.144 493.829 OFFCURVE",
"448.568 493.829 CURVE",
"435.161 426.426 LINE",
"531.604 426.426 OFFCURVE",
"589.737 490.029 OFFCURVE",
"607.798 580.826 CURVE SMOOTH",
"615.028 617.177 OFFCURVE",
"617.289 657.565 OFFCURVE",
"610.955 699.735 CURVE"
);
}
);
width = 559.76679;
}
);
leftMetricsKey = L;
rightMetricsKey = L;
unicode = 013D;
},
{
glyphname = Lcommaaccent;
lastChange = "2021-08-10 05:27:38 +0000";
layers = (
{
anchors = (
{
name = _commaaccent;
position = "{248, 0}";
}
);
components = (
{
alignment = -1;
name = L;
}
);
hints = (
{
horizontal = 1;
place = "{-143, 96}";
type = Stem;
},
{
horizontal = 1;
place = "{-272, 21}";
target = up;
type = BottomGhost;
}
);
layerId = "24A19461-EE5C-48C0-A968-CC082199DAC2";
paths = (
{
closed = 1;
nodes = (
"183.651 -47 LINE",
"164.551 -143.022 LINE",
"217.485 -143.356 LINE",
"213.278 -164.507 LINE SMOOTH",
"205.62 -203.003 OFFCURVE",
"186.792 -222.251 OFFCURVE",
"152.792 -222.251 CURVE",
"142.907 -271.942 LINE",
"217.907 -271.942 OFFCURVE",
"264.299 -229.752 OFFCURVE",
"280.884 -146.377 CURVE SMOOTH",
"286.683 -117.223 OFFCURVE",
"289.292 -84.089 OFFCURVE",
"286.717 -47 CURVE"
);
}
);
width = 542.32;
},
{
anchors = (
{
name = _commaaccent;
position = "{248, 0}";
}
);
components = (
{
alignment = -1;
name = L;
}
);
hints = (
{
place = "{193, 117}";
type = Stem;
},
{
place = "{197, 113}";
type = Stem;
},
{
place = "{246, 64}";
type = Stem;
},
{
horizontal = 1;
place = "{-143, 96}";
type = Stem;
},
{
horizontal = 1;
place = "{-272, 21}";
target = up;
type = BottomGhost;
}
);
layerId = "0CF0EA28-C756-4A9E-9D7C-CFEF350B4CFE";
paths = (
{
closed = 1;
nodes = (
"193 -47 LINE",
"193 -143.022 LINE",
"246 -143.356 LINE",
"246 -164.507 LINE SMOOTH",
"246 -203.003 OFFCURVE",
"231 -222.251 OFFCURVE",
"197 -222.251 CURVE",
"197 -271.942 LINE",
"272 -271.942 OFFCURVE",
"310 -229.752 OFFCURVE",
"310 -146.377 CURVE SMOOTH",
"310 -117.223 OFFCURVE",
"306.019 -84.089 OFFCURVE",
"296.066 -47 CURVE"
);
}
);
width = 542.3;
},
{
anchors = (
{
name = _commaaccent;
position = "{231.362, 0}";
}
);
components = (
{
alignment = -1;
name = L;
}
);
hints = (
{
place = "{230, 24}";
type = Stem;
},
{
horizontal = 1;
place = "{-58, -20}";
target = down;
type = TopGhost;
},
{
horizontal = 1;
place = "{-177, 21}";
target = up;
type = BottomGhost;
}
);
layerId = "6E968933-CD79-43C6-9231-80D77C940F4D";
paths = (
{
closed = 1;
nodes = (
"206.702 -58.367 LINE",
"206.702 -97.39 LINE",
"238.17 -97.397 LINE",
"238.17 -104.659 LINE SMOOTH",
"238.17 -137.593 OFFCURVE",
"227.085 -158.438 OFFCURVE",
"195.043 -158.438 CURVE",
"195.043 -177.013 LINE",
"231.872 -177.013 OFFCURVE",
"261.064 -161.517 OFFCURVE",
"261.064 -90.649 CURVE SMOOTH",
"261.064 -81.271 OFFCURVE",
"260 -67.915 OFFCURVE",
"258.81 -58.367 CURVE"
);
}
);
width = 510.65787;
},
{
anchors = (
{
name = _commaaccent;
position = "{272.17, 6.33}";
}
);
components = (
{
alignment = -1;
name = L;
}
);
hints = (
{
place = "{203, 154}";
type = Stem;
},
{
place = "{246, 111}";
type = Stem;
},
{
place = "{-92, 73}";
type = Stem;
},
{
horizontal = 1;
place = "{-164, 125}";
type = Stem;
},
{
horizontal = 1;
place = "{-115, 21}";
target = up;
type = BottomGhost;
}
);
layerId = "BAF31694-0472-4296-B0EA-1654553C45D2";
paths = (
{
closed = 1;
nodes = (
"202.783 -38.264 LINE",
"202.783 -163.882 LINE",
"266.717 -164.023 LINE",
"266.717 -178.474 LINE SMOOTH",
"266.717 -223.763 OFFCURVE",
"248.84 -244.737 OFFCURVE",
"214.264 -244.737 CURVE",
"214.264 -311.574 LINE",
"311.708 -311.574 OFFCURVE",
"357.189 -247.969 OFFCURVE",
"357.189 -157.74 CURVE SMOOTH",
"357.189 -121.385 OFFCURVE",
"350.836 -80.991 OFFCURVE",
"336.12 -38.264 CURVE"
);
}
);
width = 550.17821;
},
{
anchors = (
{
name = _commaaccent;
position = "{231.362, 0}";
}
);
components = (
{
alignment = -1;
name = L;
}
);
hints = (
{
horizontal = 1;
place = "{-3, 2}";
type = Stem;
},
{
horizontal = 1;
place = "{-177, 21}";
target = up;
type = BottomGhost;
}
);
layerId = "F7832249-9EF4-4513-B883-88BAA20BF268";
paths = (
{
closed = 1;
nodes = (
"195.092 -58.367 LINE",
"187.33 -97.39 LINE",
"218.796 -97.397 LINE",
"217.352 -104.659 LINE SMOOTH",
"210.801 -137.593 OFFCURVE",
"195.57 -158.438 OFFCURVE",
"163.528 -158.438 CURVE",
"159.832 -177.013 LINE",
"196.662 -177.013 OFFCURVE",
"228.936 -161.517 OFFCURVE",
"243.033 -90.649 CURVE SMOOTH",
"244.898 -81.271 OFFCURVE",
"246.491 -67.915 OFFCURVE",
"247.2 -58.367 CURVE"
);
}
);
width = 510.6583;
},
{
anchors = (
{
name = _commaaccent;
position = "{273.321, 6.33}";
}
);
components = (
{
alignment = -1;
name = L;
}
);
hints = (
{
horizontal = 1;
place = "{-196, 45}";
type = Stem;
},
{
horizontal = 1;
place = "{-164, 125}";
type = Stem;
}
);
layerId = "9CDD62D3-67F3-4AC7-B192-D539276CE01F";
paths = (
{
closed = 1;
nodes = (
"195.172 -38.264 LINE",
"170.185 -163.882 LINE",
"234.091 -164.023 LINE",
"231.217 -178.474 LINE SMOOTH",
"222.207 -223.763 OFFCURVE",
"200.158 -244.737 OFFCURVE",
"165.583 -244.737 CURVE",
"152.288 -311.574 LINE",
"249.732 -311.574 OFFCURVE",
"307.865 -247.969 OFFCURVE",
"325.812 -157.74 CURVE SMOOTH",
"333.044 -121.385 OFFCURVE",
"334.725 -80.991 OFFCURVE",
"328.509 -38.264 CURVE"
);
}
);
width = 550.19245;
}
);
leftMetricsKey = L;
rightMetricsKey = L;
unicode = 013B;
},
{
color = 4;
glyphname = Ldot;
lastChange = "2021-08-10 05:29:07 +0000";
layers = (
{
hints = (
{
horizontal = 1;
place = "{0, 92}";
type = Stem;
},
{
horizontal = 1;
place = "{317, 120}";
type = Stem;
},
{
horizontal = 1;
place = "{699, -20}";
target = down;
type = TopGhost;
}
);
layerId = "24A19461-EE5C-48C0-A968-CC082199DAC2";
paths = (
{
closed = 1;
nodes = (
"384.27 0 LINE",
"402.569 91.993 LINE",
"167.635 92.327 LINE",
"288.375 699.328 LINE",
"174.375 699.328 LINE",
"35.27 0 LINE"
);
},
{
closed = 1;
nodes = (
"408.378 317.265 OFFCURVE",
"440.558 343.307 OFFCURVE",
"447.332 377.362 CURVE SMOOTH",
"453.907 410.415 OFFCURVE",
"432.286 437.459 OFFCURVE",
"399.286 437.459 CURVE SMOOTH",
"365.286 437.459 OFFCURVE",
"333.907 410.415 OFFCURVE",
"327.332 377.362 CURVE SMOOTH",
"320.558 343.307 OFFCURVE",
"341.378 317.265 OFFCURVE",
"375.378 317.265 CURVE SMOOTH"
);
}
);
width = 462.31;
},
{
hints = (
{
place = "{85, 114}";
type = Stem;
},
{
place = "{302, 120}";
type = Stem;
},
{
horizontal = 1;
place = "{0, 92}";
type = Stem;
},
{
horizontal = 1;
place = "{317, 120}";
type = Stem;
},
{
horizontal = 1;
place = "{699, -20}";
target = down;
type = TopGhost;
}
);
layerId = "0CF0EA28-C756-4A9E-9D7C-CFEF350B4CFE";
paths = (
{
closed = 1;
nodes = (
"434 0 LINE",
"434 91.993 LINE",
"199 92.327 LINE",
"199 699.328 LINE",
"85 699.328 LINE",
"85 0 LINE"
);
},
{
closed = 1;
nodes = (
"395 317.265 OFFCURVE",
"422 343.307 OFFCURVE",
"422 377.362 CURVE SMOOTH",
"422 410.415 OFFCURVE",
"395 437.459 OFFCURVE",
"362 437.459 CURVE SMOOTH",
"328 437.459 OFFCURVE",
"302 410.415 OFFCURVE",
"302 377.362 CURVE SMOOTH",
"302 343.307 OFFCURVE",
"328 317.265 OFFCURVE",
"362 317.265 CURVE SMOOTH"
);
}
);
width = 462.3;
},
{
hints = (
{
place = "{109, 22}";
type = Stem;
},
{
place = "{305, 61}";
type = Stem;
},
{
horizontal = 1;
place = "{345, 61}";
type = Stem;
},
{
horizontal = 1;
place = "{0, 21}";
target = up;
type = BottomGhost;
},
{
horizontal = 1;
place = "{700, -20}";
target = down;
type = TopGhost;
}
);
layerId = "6E968933-CD79-43C6-9231-80D77C940F4D";
paths = (
{
closed = 1;
nodes = (
"395.83 0.05 LINE",
"395.83 19.524 LINE",
"126.574 19.532 LINE",
"126.574 700.037 LINE",
"104.574 700.037 LINE",
"104.574 0.05 LINE"
);
},
{
closed = 1;
nodes = (
"358.787 345.461 OFFCURVE",
"373.064 359.64 OFFCURVE",
"373.064 375.935 CURVE SMOOTH",
"373.064 392.209 OFFCURVE",
"358.787 406.409 OFFCURVE",
"342.426 406.409 CURVE SMOOTH",
"326.043 406.409 OFFCURVE",
"311.787 392.209 OFFCURVE",
"311.787 375.935 CURVE SMOOTH",
"311.787 359.64 OFFCURVE",
"326.043 345.461 OFFCURVE",
"342.426 345.461 CURVE SMOOTH"
);
}
);
width = 430.65787;
},
{
hints = (
{
place = "{53, 176}";
type = Stem;
},
{
place = "{306, 150}";
type = Stem;
},
{
horizontal = 1;
place = "{0, 136}";
type = Stem;
},
{
horizontal = 1;
place = "{320, 150}";
type = Stem;
},
{
horizontal = 1;
place = "{700, -20}";
target = down;
type = TopGhost;
}
);
layerId = "BAF31694-0472-4296-B0EA-1654553C45D2";
paths = (
{
closed = 1;
nodes = (
"452.415 0 LINE",
"452.415 135.811 LINE",
"229.5 135.952 LINE",
"229.5 699.735 LINE",
"53.349 699.735 LINE",
"53.349 0 LINE"
);
},
{
closed = 1;
nodes = (
"423.198 320.045 OFFCURVE",
"455.953 352.406 OFFCURVE",
"455.953 394.503 CURVE SMOOTH",
"455.953 437.315 OFFCURVE",
"423.198 470.095 OFFCURVE",
"380.415 470.095 CURVE SMOOTH",
"338.358 470.095 OFFCURVE",
"306.028 437.315 OFFCURVE",
"306.028 394.503 CURVE SMOOTH",
"306.028 352.406 OFFCURVE",
"338.358 320.045 OFFCURVE",
"380.415 320.045 CURVE SMOOTH"
);
}
);
width = 473.72028;
},
{
hints = (
{
horizontal = 1;
place = "{0, 2}";
type = Stem;
},
{
horizontal = 1;
place = "{345, 61}";
type = Stem;
},
{
horizontal = 1;
place = "{700, -20}";
target = down;
type = TopGhost;
}
);
layerId = "F7832249-9EF4-4513-B883-88BAA20BF268";
paths = (
{
closed = 1;
nodes = (
"346.11 0.05 LINE",
"349.983 19.524 LINE",
"80.729 19.532 LINE",
"216.09 700.037 LINE",
"194.09 700.037 LINE",
"54.854 0.05 LINE"
);
},
{
closed = 1;
nodes = (
"377.774 345.461 OFFCURVE",
"394.87 359.64 OFFCURVE",
"398.112 375.935 CURVE SMOOTH",
"401.349 392.209 OFFCURVE",
"389.897 406.409 OFFCURVE",
"373.535 406.409 CURVE SMOOTH",
"357.152 406.409 OFFCURVE",
"340.072 392.209 OFFCURVE",
"336.835 375.935 CURVE SMOOTH",
"333.594 359.64 OFFCURVE",
"345.03 345.461 OFFCURVE",
"361.413 345.461 CURVE SMOOTH"
);
}
);
width = 430.65809;
},
{
hints = (
{
horizontal = 1;
place = "{0, 136}";
type = Stem;
},
{
horizontal = 1;
place = "{320, 150}";
type = Stem;
},
{
horizontal = 1;
place = "{700, -20}";
target = down;
type = TopGhost;
}
);
layerId = "9CDD62D3-67F3-4AC7-B192-D539276CE01F";
paths = (
{
closed = 1;
nodes = (
"402.685 0 LINE",
"429.7 135.811 LINE",
"206.813 135.952 LINE",
"318.956 699.735 LINE",
"142.805 699.735 LINE",
"3.619 0 LINE"
);
},
{
closed = 1;
nodes = (
"437.129 320.045 OFFCURVE",
"476.321 352.406 OFFCURVE",
"484.694 394.503 CURVE SMOOTH",
"493.211 437.315 OFFCURVE",
"466.976 470.095 OFFCURVE",
"424.193 470.095 CURVE SMOOTH",
"382.136 470.095 OFFCURVE",
"343.286 437.315 OFFCURVE",
"334.77 394.503 CURVE SMOOTH",
"326.396 352.406 OFFCURVE",
"352.29 320.045 OFFCURVE",
"394.346 320.045 CURVE SMOOTH"
);
}
);
width = 473.72453;
}
);
leftMetricsKey = L;
rightMetricsKey = L;
unicode = 013F;
},
{
glyphname = Lslash;
lastChange = "2021-08-10 05:27:38 +0000";
layers = (
{
hints = (
{
horizontal = 1;
place = "{0, 87}";
type = Stem;
},
{
horizontal = 1;
place = "{699, -20}";
target = down;
type = TopGhost;
}
);
layerId = "24A19461-EE5C-48C0-A968-CC082199DAC2";
paths = (
{
closed = 1;
nodes = (
"88.758 268.903 LINE",
"391.19 361.565 LINE",
"408.493 448.555 LINE",
"105.861 354.886 LINE"
);
},
{
closed = 1;
nodes = (
"251.375 699.328 LINE",
"112.27 0 LINE",
"461.27 0 LINE",
"478.567 86.957 LINE",
"244.633 87.291 LINE",
"366.375 699.328 LINE"
);
}
);
width = 539.31;
},
{
hints = (
{
place = "{85, 192}";
type = Stem;
},
{
place = "{162, 115}";
type = Stem;
},
{
place = "{162, 207}";
type = Stem;
},
{
horizontal = 1;
place = "{0, 87}";
type = Stem;
},
{
horizontal = 1;
place = "{699, -20}";
target = down;
type = TopGhost;
}
);
layerId = "0CF0EA28-C756-4A9E-9D7C-CFEF350B4CFE";
paths = (
{
closed = 1;
nodes = (
"85 268.903 LINE",
"369 361.565 LINE",
"369 448.555 LINE",
"85 354.886 LINE"
);
},
{
closed = 1;
nodes = (
"162 699.328 LINE",
"162 0 LINE",
"511 0 LINE",
"511 86.957 LINE",
"277 87.291 LINE",
"277 699.328 LINE"
);
}
);
width = 539.3;
},
{
hints = (
{
place = "{196, 21}";
type = Stem;
},
{
horizontal = 1;
place = "{0, 21}";
target = up;
type = BottomGhost;
},
{
horizontal = 1;
place = "{700, -20}";
target = down;
type = TopGhost;
}
);
layerId = "6E968933-CD79-43C6-9231-80D77C940F4D";
paths = (
{
closed = 1;
nodes = (
"104.574 311.345 LINE",
"380.745 439.828 LINE",
"380.745 461.142 LINE",
"104.574 332.638 LINE"
);
},
{
closed = 1;
nodes = (
"199.191 700.037 LINE",
"199.191 0.05 LINE",
"490.447 0.05 LINE",
"490.447 19.417 LINE",
"221.213 19.424 LINE",
"221.213 700.037 LINE"
);
}
);
width = 525.27489;
},
{
hints = (
{
place = "{36, 82}";
type = Stem;
},
{
place = "{69, 49}";
type = Stem;
},
{
place = "{118, 216}";
type = Stem;
},
{
horizontal = 1;
place = "{0, 134}";
type = Stem;
},
{
horizontal = 1;
place = "{700, -20}";
target = down;
type = TopGhost;
}
);
layerId = "BAF31694-0472-4296-B0EA-1654553C45D2";
paths = (
{
closed = 1;
nodes = (
"53.349 250.793 LINE",
"376.481 345.114 LINE",
"376.481 494.617 LINE",
"53.349 399.868 LINE"
);
},
{
closed = 1;
nodes = (
"117.689 699.735 LINE",
"117.689 0 LINE",
"516.755 0 LINE",
"516.755 133.673 LINE",
"294.264 133.814 LINE",
"294.264 699.735 LINE"
);
}
);
width = 534.51783;
},
{
hints = (
{
horizontal = 1;
place = "{0, 2}";
type = Stem;
},
{
horizontal = 1;
place = "{700, -20}";
target = down;
type = TopGhost;
}
);
layerId = "F7832249-9EF4-4513-B883-88BAA20BF268";
paths = (
{
closed = 1;
nodes = (
"116.775 311.345 LINE",
"418.502 439.828 LINE",
"422.741 461.142 LINE",
"121.011 332.638 LINE"
);
},
{
closed = 1;
nodes = (
"288.707 700.037 LINE",
"149.471 0.05 LINE",
"440.727 0.05 LINE",
"444.579 19.417 LINE",
"175.346 19.424 LINE",
"310.729 700.037 LINE"
);
}
);
width = 525.27511;
},
{
hints = (
{
horizontal = 1;
place = "{0, 134}";
type = Stem;
},
{
horizontal = 1;
place = "{700, -20}";
target = down;
type = TopGhost;
}
);
layerId = "9CDD62D3-67F3-4AC7-B192-D539276CE01F";
paths = (
{
closed = 1;
nodes = (
"53.505 250.793 LINE",
"395.398 345.114 LINE",
"425.137 494.617 LINE",
"83.157 399.868 LINE"
);
},
{
closed = 1;
nodes = (
"207.145 699.735 LINE",
"67.959 0 LINE",
"467.025 0 LINE",
"493.614 133.673 LINE",
"271.151 133.814 LINE",
"383.72 699.735 LINE"
);
}
);
width = 534.52208;
}
);
leftMetricsKey = L;
rightMetricsKey = L;
unicode = 0141;
},
{
glyphname = M;
lastChange = "2021-08-10 05:27:38 +0000";
layers = (
{
hints = (
{
horizontal = 1;
place = "{700, -20}";
target = down;
type = TopGhost;
},
{
horizontal = 1;
place = "{0, 21}";
target = up;
type = BottomGhost;
}
);
layerId = "24A19461-EE5C-48C0-A968-CC082199DAC2";
paths = (
{
closed = 1;
nodes = (
"244.627 479.392 LINE",
"362.182 0 LINE",
"441.358 0 LINE",
"748.547 478.99 LINE",
"653.27 0 LINE",
"767.27 0 LINE",
"906.574 700.328 LINE",
"784.486 700.328 LINE",
"431.706 150.499 LINE",
"297.662 700.328 LINE",
"174.574 700.328 LINE",
"35.27 0 LINE",
"149.27 0 LINE"
);
}
);
width = 902;
},
{
hints = (
{
place = "{85, 114}";
type = Stem;
},
{
place = "{703, 114}";
type = Stem;
},
{
horizontal = 1;
place = "{700, -20}";
target = down;
type = TopGhost;
},
{
horizontal = 1;
place = "{0, 21}";
target = up;
type = BottomGhost;
}
);
layerId = "0CF0EA28-C756-4A9E-9D7C-CFEF350B4CFE";
paths = (
{
closed = 1;
nodes = (
"199 479.392 LINE",
"411.912 0 LINE",
"491.088 0 LINE",
"703 478.99 LINE",
"703 0 LINE",
"817 0 LINE",
"817 700.328 LINE",
"694.912 700.328 LINE",
"451.5 150.499 LINE",
"208.088 700.328 LINE",
"85 700.328 LINE",
"85 0 LINE",
"199 0 LINE"
);
}
);
width = 902;
},
{
hints = (
{
place = "{105, 22}";
type = Stem;
},
{
place = "{712, 22}";
type = Stem;
},
{
horizontal = 1;
place = "{0, 21}";
target = up;
type = BottomGhost;
},
{
horizontal = 1;
place = "{700, -20}";
target = down;
type = TopGhost;
}
);
layerId = "6E968933-CD79-43C6-9231-80D77C940F4D";
paths = (
{
closed = 1;
nodes = (
"126.574 647.031 LINE",
"409.062 0.05 LINE",
"430.321 0.05 LINE",
"711.809 647.043 LINE",
"711.809 0.05 LINE",
"733.809 0.05 LINE",
"733.809 700.051 LINE",
"711.636 700.051 LINE",
"419.917 28.545 LINE",
"126.768 700.051 LINE",
"104.574 700.051 LINE",
"104.574 0.05 LINE",
"126.574 0.05 LINE"
);
}
);
width = 838.38298;
},
{
hints = (
{
place = "{53, 176}";
type = Stem;
},
{
place = "{678, 176}";
type = Stem;
},
{
horizontal = 1;
place = "{700, -20}";
target = down;
type = TopGhost;
},
{
horizontal = 1;
place = "{0, 21}";
target = up;
type = BottomGhost;
}
);
layerId = "BAF31694-0472-4296-B0EA-1654553C45D2";
paths = (
{
closed = 1;
nodes = (
"229.5 404.325 LINE",
"382.782 0 LINE",
"525.397 0 LINE",
"678.255 404.379 LINE",
"678.255 0 LINE",
"853.83 0 LINE",
"853.83 700.159 LINE",
"646.231 700.159 LINE",
"455.456 225.328 LINE",
"261.945 700.159 LINE",
"53.349 700.159 LINE",
"53.349 0 LINE",
"229.5 0 LINE"
);
}
);
width = 907.17925;
},
{
hints = (
{
horizontal = 1;
place = "{700, -20}";
target = down;
type = TopGhost;
},
{
horizontal = 1;
place = "{0, 21}";
target = up;
type = BottomGhost;
}
);
layerId = "F7832249-9EF4-4513-B883-88BAA20BF268";
paths = (
{
closed = 1;
nodes = (
"205.547 647.031 LINE",
"359.342 0.05 LINE",
"380.601 0.05 LINE",
"790.784 647.043 LINE",
"662.088 0.05 LINE",
"684.088 0.05 LINE",
"823.328 700.051 LINE",
"801.156 700.051 LINE",
"375.865 28.545 LINE",
"216.287 700.051 LINE",
"194.094 700.051 LINE",
"54.854 0.05 LINE",
"76.854 0.05 LINE"
);
}
);
width = 838.38298;
},
{
hints = (
{
horizontal = 1;
place = "{700, -20}";
target = down;
type = TopGhost;
},
{
horizontal = 1;
place = "{0, 21}";
target = up;
type = BottomGhost;
}
);
layerId = "9CDD62D3-67F3-4AC7-B192-D539276CE01F";
paths = (
{
closed = 1;
nodes = (
"260.195 404.325 LINE",
"333.052 0 LINE",
"475.667 0 LINE",
"708.961 404.379 LINE",
"628.525 0 LINE",
"804.1 0 LINE",
"943.371 700.159 LINE",
"735.772 700.159 LINE",
"450.547 225.328 LINE",
"351.485 700.159 LINE",
"142.89 700.159 LINE",
"3.619 0 LINE",
"179.77 0 LINE"
);
}
);
width = 907.17925;
}
);
leftMetricsKey = H;
rightMetricsKey = H;
unicode = 004D;
},
{
glyphname = N;
lastChange = "2021-08-10 05:27:38 +0000";
layers = (
{
anchors = (
{
name = bottom;
position = "{321.28, 0}";
},
{
name = top;
position = "{460.28, 701}";
}
);
hints = (
{
horizontal = 1;
place = "{700, -20}";
target = down;
type = TopGhost;
},
{
horizontal = 1;
place = "{0, 21}";
target = up;
type = BottomGhost;
}
);
layerId = "24A19461-EE5C-48C0-A968-CC082199DAC2";
paths = (
{
closed = 1;
nodes = (
"631.577 700.336 LINE",
"527.836 178.761 LINE",
"288.675 700.336 LINE",
"174.577 700.336 LINE",
"35.28 0 LINE",
"149.28 0 LINE",
"253.221 522.582 LINE",
"492.182 0 LINE",
"606.28 0 LINE",
"745.577 700.336 LINE"
);
}
);
width = 741.01;
},
{
anchors = (
{
name = bottom;
position = "{371, 0}";
},
{
name = top;
position = "{371, 701}";
}
);
hints = (
{
place = "{85, 114}";
type = Stem;
},
{
place = "{542, 114}";
type = Stem;
},
{
horizontal = 1;
place = "{700, -20}";
target = down;
type = TopGhost;
},
{
horizontal = 1;
place = "{0, 21}";
target = up;
type = BottomGhost;
}
);
layerId = "0CF0EA28-C756-4A9E-9D7C-CFEF350B4CFE";
paths = (
{
closed = 1;
nodes = (
"542 700.336 LINE",
"542 178.761 LINE",
"199.098 700.336 LINE",
"85 700.336 LINE",
"85 0 LINE",
"199 0 LINE",
"199 522.582 LINE",
"541.902 0 LINE",
"656 0 LINE",
"656 700.336 LINE"
);
}
);
width = 741;
},
{
anchors = (
{
name = bottom;
position = "{344.574, 0}";
},
{
name = top;
position = "{344.574, 679.468}";
}
);
hints = (
{
place = "{105, 22}";
type = Stem;
},
{
place = "{562, 22}";
type = Stem;
},
{
horizontal = 1;
place = "{699, -20}";
target = down;
type = TopGhost;
},
{
horizontal = 1;
place = "{0, 21}";
target = up;
type = BottomGhost;
}
);
layerId = "6E968933-CD79-43C6-9231-80D77C940F4D";
paths = (
{
closed = 1;
nodes = (
"561.574 699.071 LINE",
"561.574 39.86 LINE",
"126.577 699.071 LINE",
"104.574 699.071 LINE",
"104.574 0.05 LINE",
"126.574 0.05 LINE",
"126.574 660.256 LINE",
"561.572 0.05 LINE",
"583.574 0.05 LINE",
"583.574 699.071 LINE"
);
}
);
width = 688.14894;
},
{
anchors = (
{
name = bottom;
position = "{369.849, 0.575}";
},
{
name = top;
position = "{369.849, 701.575}";
}
);
hints = (
{
place = "{53, 176}";
type = Stem;
},
{
place = "{510, 176}";
type = Stem;
},
{
horizontal = 1;
place = "{700, -20}";
target = down;
type = TopGhost;
},
{
horizontal = 1;
place = "{0, 21}";
target = up;
type = BottomGhost;
}
);
layerId = "BAF31694-0472-4296-B0EA-1654553C45D2";
paths = (
{
closed = 1;
nodes = (
"510.349 700.163 LINE",
"510.349 273.195 LINE",
"229.312 700.163 LINE",
"53.349 700.163 LINE",
"53.349 0 LINE",
"229.5 0 LINE",
"229.5 423.989 LINE",
"510.538 0 LINE",
"686.5 0 LINE",
"686.5 700.163 LINE"
);
}
);
width = 739.84906;
},
{
anchors = (
{
name = bottom;
position = "{294.845, 0}";
},
{
name = top;
position = "{429.93, 679.468}";
}
);
hints = (
{
horizontal = 1;
place = "{699, -20}";
target = down;
type = TopGhost;
},
{
horizontal = 1;
place = "{0, 21}";
target = up;
type = BottomGhost;
}
);
layerId = "F7832249-9EF4-4513-B883-88BAA20BF268";
paths = (
{
closed = 1;
nodes = (
"650.914 699.071 LINE",
"519.774 39.86 LINE",
"215.916 699.071 LINE",
"193.914 699.071 LINE",
"54.854 0.05 LINE",
"76.854 0.05 LINE",
"208.192 660.256 LINE",
"511.852 0.05 LINE",
"533.854 0.05 LINE",
"672.914 699.071 LINE"
);
}
);
width = 688.15894;
},
{
anchors = (
{
name = bottom;
position = "{320.129, 0.575}";
},
{
name = top;
position = "{459.705, 701.575}";
}
);
hints = (
{
horizontal = 1;
place = "{700, -20}";
target = down;
type = TopGhost;
},
{
horizontal = 1;
place = "{0, 21}";
target = up;
type = BottomGhost;
}
);
layerId = "9CDD62D3-67F3-4AC7-B192-D539276CE01F";
paths = (
{
closed = 1;
nodes = (
"599.892 700.163 LINE",
"514.968 273.195 LINE",
"318.854 700.163 LINE",
"142.892 700.163 LINE",
"3.629 0 LINE",
"179.78 0 LINE",
"264.111 423.989 LINE",
"460.818 0 LINE",
"636.78 0 LINE",
"776.042 700.163 LINE"
);
}
);
width = 739.85906;
}
);
leftMetricsKey = H;
rightMetricsKey = H;
unicode = 004E;
},
{
glyphname = Ncommaaccent;
lastChange = "2021-08-10 05:27:38 +0000";
layers = (
{
anchors = (
{
name = _bottom;
position = "{361, 0}";
}
);
components = (
{
alignment = -1;
name = N;
}
);
hints = (
{
horizontal = 1;
place = "{-143, 96}";
type = Stem;
},
{
horizontal = 1;
place = "{-272, 21}";
target = up;
type = BottomGhost;
}
);
layerId = "24A19461-EE5C-48C0-A968-CC082199DAC2";
paths = (
{
closed = 1;
nodes = (
"296.651 -47 LINE",
"277.551 -143.022 LINE",
"330.485 -143.356 LINE",
"326.278 -164.507 LINE SMOOTH",
"318.62 -203.003 OFFCURVE",
"299.792 -222.251 OFFCURVE",
"266.792 -222.251 CURVE",
"256.907 -271.942 LINE",
"330.907 -271.942 OFFCURVE",
"377.299 -229.752 OFFCURVE",
"393.884 -146.377 CURVE SMOOTH",
"399.683 -117.223 OFFCURVE",
"402.292 -84.089 OFFCURVE",
"399.717 -47 CURVE"
);
}
);
width = 741;
},
{
anchors = (
{
name = _bottom;
position = "{361, 0}";
}
);
components = (
{
alignment = -1;
name = N;
}
);
hints = (
{
place = "{306, 117}";
type = Stem;
},
{
place = "{311, 112}";
type = Stem;
},
{
place = "{359, 64}";
type = Stem;
},
{
horizontal = 1;
place = "{-143, 96}";
type = Stem;
},
{
horizontal = 1;
place = "{-272, 21}";
target = up;
type = BottomGhost;
}
);
layerId = "0CF0EA28-C756-4A9E-9D7C-CFEF350B4CFE";
paths = (
{
closed = 1;
nodes = (
"306 -47 LINE",
"306 -143.022 LINE",
"359 -143.356 LINE",
"359 -164.507 LINE SMOOTH",
"359 -203.003 OFFCURVE",
"344 -222.251 OFFCURVE",
"311 -222.251 CURVE",
"311 -271.942 LINE",
"385 -271.942 OFFCURVE",
"423 -229.752 OFFCURVE",
"423 -146.377 CURVE SMOOTH",
"423 -117.223 OFFCURVE",
"419.019 -84.089 OFFCURVE",
"409.066 -47 CURVE"
);
}
);
width = 741;
},
{
anchors = (
{
name = _bottom;
position = "{323.809, 0}";
}
);
components = (
{
alignment = -1;
name = N;
}
);
hints = (
{
place = "{318, 24}";
type = Stem;
},
{
horizontal = 1;
place = "{-58, -20}";
target = down;
type = TopGhost;
},
{
horizontal = 1;
place = "{-177, 21}";
target = up;
type = BottomGhost;
}
);
layerId = "6E968933-CD79-43C6-9231-80D77C940F4D";
paths = (
{
closed = 1;
nodes = (
"297.191 -58.367 LINE",
"297.191 -97.39 LINE",
"328.66 -97.397 LINE",
"328.66 -104.659 LINE SMOOTH",
"328.66 -137.593 OFFCURVE",
"317.574 -158.438 OFFCURVE",
"285.553 -158.438 CURVE",
"285.553 -177.013 LINE",
"322.362 -177.013 OFFCURVE",
"351.553 -161.517 OFFCURVE",
"351.553 -90.649 CURVE SMOOTH",
"351.553 -81.271 OFFCURVE",
"350.49 -67.915 OFFCURVE",
"349.299 -58.367 CURVE"
);
}
);
width = 688.14894;
},
{
anchors = (
{
name = _bottom;
position = "{391.5, 0.575}";
}
);
components = (
{
alignment = -1;
name = N;
}
);
hints = (
{
place = "{322, 154}";
type = Stem;
},
{
place = "{366, 111}";
type = Stem;
},
{
place = "{-44, 73}";
type = Stem;
},
{
horizontal = 1;
place = "{-164, 125}";
type = Stem;
},
{
horizontal = 1;
place = "{-115, 21}";
target = up;
type = BottomGhost;
}
);
layerId = "BAF31694-0472-4296-B0EA-1654553C45D2";
paths = (
{
closed = 1;
nodes = (
"322.113 -38.264 LINE",
"322.113 -163.882 LINE",
"386.047 -164.023 LINE",
"386.047 -178.474 LINE SMOOTH",
"386.047 -223.763 OFFCURVE",
"368.17 -244.737 OFFCURVE",
"334.019 -244.737 CURVE",
"334.019 -311.574 LINE",
"431.038 -311.574 OFFCURVE",
"476.519 -247.969 OFFCURVE",
"476.519 -157.74 CURVE SMOOTH",
"476.519 -121.385 OFFCURVE",
"470.166 -80.991 OFFCURVE",
"455.45 -38.264 CURVE"
);
}
);
width = 739.84906;
},
{
anchors = (
{
name = _bottom;
position = "{323.809, 0}";
}
);
components = (
{
alignment = -1;
name = N;
}
);
hints = (
{
horizontal = 1;
place = "{-3, 2}";
type = Stem;
},
{
horizontal = 1;
place = "{-177, 21}";
target = up;
type = BottomGhost;
}
);
layerId = "F7832249-9EF4-4513-B883-88BAA20BF268";
paths = (
{
closed = 1;
nodes = (
"285.582 -58.367 LINE",
"277.819 -97.39 LINE",
"309.286 -97.397 LINE",
"307.842 -104.659 LINE SMOOTH",
"301.291 -137.593 OFFCURVE",
"286.06 -158.438 OFFCURVE",
"254.038 -158.438 CURVE",
"250.343 -177.013 LINE",
"287.151 -177.013 OFFCURVE",
"319.425 -161.517 OFFCURVE",
"333.522 -90.649 CURVE SMOOTH",
"335.388 -81.271 OFFCURVE",
"336.981 -67.915 OFFCURVE",
"337.689 -58.367 CURVE"
);
}
);
width = 688.14894;
},
{
anchors = (
{
name = _bottom;
position = "{391.5, 0.575}";
}
);
components = (
{
alignment = -1;
name = N;
}
);
hints = (
{
horizontal = 1;
place = "{-196, 45}";
type = Stem;
},
{
horizontal = 1;
place = "{-164, 125}";
type = Stem;
}
);
layerId = "9CDD62D3-67F3-4AC7-B192-D539276CE01F";
paths = (
{
closed = 1;
nodes = (
"314.502 -38.264 LINE",
"289.515 -163.882 LINE",
"353.421 -164.023 LINE",
"350.547 -178.474 LINE SMOOTH",
"341.538 -223.763 OFFCURVE",
"319.489 -244.737 OFFCURVE",
"285.338 -244.737 CURVE",
"272.043 -311.574 LINE",
"369.062 -311.574 OFFCURVE",
"427.195 -247.969 OFFCURVE",
"445.142 -157.74 CURVE SMOOTH",
"452.374 -121.385 OFFCURVE",
"454.056 -80.991 OFFCURVE",
"447.839 -38.264 CURVE"
);
}
);
width = 739.84906;
}
);
leftMetricsKey = H;
rightMetricsKey = H;
unicode = 0145;
},
{
glyphname = O;
lastChange = "2021-08-10 05:27:38 +0000";
layers = (
{
anchors = (
{
name = top;
position = "{486.78, 701}";
}
);
hints = (
{
horizontal = 1;
place = "{-7, 99}";
type = Stem;
},
{
horizontal = 1;
place = "{608, 100}";
type = Stem;
}
);
layerId = "24A19461-EE5C-48C0-A968-CC082199DAC2";
paths = (
{
closed = 1;
nodes = (
"544.378 -7.05 OFFCURVE",
"730.799 140.869 OFFCURVE",
"772.629 351.175 CURVE SMOOTH",
"814.258 560.475 OFFCURVE",
"686.679 708.393 OFFCURVE",
"488.679 708.393 CURVE SMOOTH",
"292.679 708.393 OFFCURVE",
"104.258 560.475 OFFCURVE",
"62.629 351.175 CURVE SMOOTH",
"20.799 140.869 OFFCURVE",
"150.378 -7.05 OFFCURVE",
"346.378 -7.05 CURVE SMOOTH"
);
},
{
closed = 1;
nodes = (
"228.077 91.993 OFFCURVE",
"148.136 192.842 OFFCURVE",
"179.629 351.175 CURVE SMOOTH",
"211.121 509.51 OFFCURVE",
"330.779 608.343 OFFCURVE",
"468.779 608.343 CURVE SMOOTH",
"606.779 608.343 OFFCURVE",
"687.121 509.51 OFFCURVE",
"655.629 351.175 CURVE SMOOTH",
"624.136 192.842 OFFCURVE",
"504.077 91.993 OFFCURVE",
"366.077 91.993 CURVE SMOOTH"
);
}
);
width = 795;
},
{
anchors = (
{
name = top;
position = "{397.5, 701}";
}
);
hints = (
{
place = "{42, 117}";
type = Stem;
},
{
place = "{635, 117}";
type = Stem;
},
{
horizontal = 1;
place = "{-7, 99}";
type = Stem;
},
{
horizontal = 1;
place = "{608, 100}";
type = Stem;
}
);
layerId = "0CF0EA28-C756-4A9E-9D7C-CFEF350B4CFE";
paths = (
{
closed = 1;
nodes = (
"595.5 -7.05 OFFCURVE",
"752.5 140.869 OFFCURVE",
"752.5 351.175 CURVE SMOOTH",
"752.5 560.475 OFFCURVE",
"595.5 708.393 OFFCURVE",
"397.5 708.393 CURVE SMOOTH",
"201.5 708.393 OFFCURVE",
"42.5 560.475 OFFCURVE",
"42.5 351.175 CURVE SMOOTH",
"42.5 140.869 OFFCURVE",
"201.5 -7.05 OFFCURVE",
"397.5 -7.05 CURVE SMOOTH"
);
},
{
closed = 1;
nodes = (
"259.5 91.993 OFFCURVE",
"159.5 192.842 OFFCURVE",
"159.5 351.175 CURVE SMOOTH",
"159.5 509.51 OFFCURVE",
"259.5 608.343 OFFCURVE",
"397.5 608.343 CURVE SMOOTH",
"535.5 608.343 OFFCURVE",
"635.5 509.51 OFFCURVE",
"635.5 351.175 CURVE SMOOTH",
"635.5 192.842 OFFCURVE",
"535.5 91.993 OFFCURVE",
"397.5 91.993 CURVE SMOOTH"
);
}
);
width = 795;
},
{
anchors = (
{
name = top;
position = "{399.457, 679.468}";
}
);
hints = (
{
place = "{51, 23}";
type = Stem;
},
{
place = "{701, 23}";
type = Stem;
},
{
horizontal = 1;
place = "{691, -20}";
target = down;
type = TopGhost;
},
{
horizontal = 1;
place = "{-8, 21}";
target = up;
type = BottomGhost;
}
);
layerId = "6E968933-CD79-43C6-9231-80D77C940F4D";
paths = (
{
closed = 1;
nodes = (
"584.734 -7.885 OFFCURVE",
"725.096 139.287 OFFCURVE",
"725.096 349.095 CURVE",
"725.096 558.883 OFFCURVE",
"584.734 706.055 OFFCURVE",
"388.691 706.055 CURVE",
"192.691 706.055 OFFCURVE",
"52.287 558.883 OFFCURVE",
"52.287 349.095 CURVE",
"52.287 139.287 OFFCURVE",
"192.691 -7.885 OFFCURVE",
"388.691 -7.885 CURVE"
);
},
{
closed = 1;
nodes = (
"214.479 11.739 OFFCURVE",
"75.33 139.42 OFFCURVE",
"75.33 349.095 CURVE",
"75.33 558.771 OFFCURVE",
"214.479 686.41 OFFCURVE",
"388.691 686.41 CURVE",
"562.904 686.41 OFFCURVE",
"702.053 558.771 OFFCURVE",
"702.053 349.095 CURVE",
"702.053 139.42 OFFCURVE",
"562.904 11.739 OFFCURVE",
"388.691 11.739 CURVE"
);
}
);
width = 777.38298;
},
{
anchors = (
{
name = top;
position = "{387.429, 701.575}";
}
);
hints = (
{
place = "{26, 180}";
type = Stem;
},
{
place = "{568, 179}";
type = Stem;
},
{
horizontal = 1;
place = "{-7, 161}";
type = Stem;
},
{
horizontal = 1;
place = "{550, 160}";
type = Stem;
}
);
layerId = "BAF31694-0472-4296-B0EA-1654553C45D2";
paths = (
{
closed = 1;
nodes = (
"586.58 -6.961 OFFCURVE",
"747.033 141.745 OFFCURVE",
"747.033 352.209 CURVE SMOOTH",
"747.033 562.248 OFFCURVE",
"587.731 710.385 OFFCURVE",
"387.429 710.385 CURVE SMOOTH",
"188.552 710.385 OFFCURVE",
"26.675 562.248 OFFCURVE",
"26.675 352.209 CURVE SMOOTH",
"26.675 141.745 OFFCURVE",
"188.552 -6.961 OFFCURVE",
"387.429 -6.961 CURVE SMOOTH"
);
},
{
closed = 1;
nodes = (
"276.476 153.949 OFFCURVE",
"206.401 232.167 OFFCURVE",
"206.401 352.209 CURVE SMOOTH",
"206.401 473.38 OFFCURVE",
"276.476 550.181 OFFCURVE",
"387.429 550.181 CURVE SMOOTH",
"497.231 550.181 OFFCURVE",
"567.882 473.38 OFFCURVE",
"567.882 352.209 CURVE SMOOTH",
"567.882 232.167 OFFCURVE",
"497.231 153.949 OFFCURVE",
"387.429 153.949 CURVE SMOOTH"
);
}
);
width = 773.70755;
},
{
anchors = (
{
name = top;
position = "{484.803, 679.468}";
}
);
hints = (
{
horizontal = 1;
place = "{0, 2}";
type = Stem;
},
{
horizontal = 1;
place = "{13, 2}";
type = Stem;
}
);
layerId = "F7832249-9EF4-4513-B883-88BAA20BF268";
paths = (
{
closed = 1;
nodes = (
"533.426 -7.885 OFFCURVE",
"703.065 139.287 OFFCURVE",
"744.803 349.095 CURVE SMOOTH",
"786.537 558.883 OFFCURVE",
"675.452 706.055 OFFCURVE",
"479.41 706.055 CURVE SMOOTH",
"283.41 706.055 OFFCURVE",
"113.728 558.883 OFFCURVE",
"71.994 349.095 CURVE SMOOTH",
"30.256 139.287 OFFCURVE",
"141.384 -7.885 OFFCURVE",
"337.384 -7.885 CURVE SMOOTH"
);
},
{
closed = 1;
nodes = (
"167.074 11.739 OFFCURVE",
"53.325 139.42 OFFCURVE",
"95.037 349.095 CURVE SMOOTH",
"136.749 558.771 OFFCURVE",
"301.289 686.41 OFFCURVE",
"475.502 686.41 CURVE SMOOTH",
"649.715 686.41 OFFCURVE",
"763.472 558.771 OFFCURVE",
"721.76 349.095 CURVE SMOOTH",
"680.049 139.42 OFFCURVE",
"515.5 11.739 OFFCURVE",
"341.287 11.739 CURVE SMOOTH"
);
}
);
width = 777.38298;
},
{
anchors = (
{
name = top;
position = "{477.285, 701.575}";
}
);
hints = (
{
horizontal = 1;
place = "{-7, 161}";
type = Stem;
},
{
horizontal = 1;
place = "{550, 160}";
type = Stem;
}
);
layerId = "9CDD62D3-67F3-4AC7-B192-D539276CE01F";
paths = (
{
closed = 1;
nodes = (
"535.476 -6.961 OFFCURVE",
"725.506 141.745 OFFCURVE",
"767.367 352.209 CURVE SMOOTH",
"809.144 562.248 OFFCURVE",
"679.307 710.385 OFFCURVE",
"479.005 710.385 CURVE SMOOTH",
"280.127 710.385 OFFCURVE",
"88.785 562.248 OFFCURVE",
"47.009 352.209 CURVE SMOOTH",
"5.148 141.745 OFFCURVE",
"137.448 -6.961 OFFCURVE",
"336.325 -6.961 CURVE SMOOTH"
);
},
{
closed = 1;
nodes = (
"257.377 153.949 OFFCURVE",
"202.859 232.167 OFFCURVE",
"226.735 352.209 CURVE SMOOTH",
"250.836 473.38 OFFCURVE",
"336.187 550.181 OFFCURVE",
"447.14 550.181 CURVE SMOOTH",
"556.942 550.181 OFFCURVE",
"612.317 473.38 OFFCURVE",
"588.217 352.209 CURVE SMOOTH",
"564.34 232.167 OFFCURVE",
"478.131 153.949 OFFCURVE",
"368.329 153.949 CURVE SMOOTH"
);
}
);
width = 773.70755;
}
);
leftMetricsKey = "=H*0.5";
rightMetricsKey = "=H*0.5";
unicode = 004F;
},
{
glyphname = Oslash;
lastChange = "2021-08-10 05:27:38 +0000";
layers = (
{
components = (
{
alignment = -1;
name = O;
}
);
layerId = "24A19461-EE5C-48C0-A968-CC082199DAC2";
paths = (
{
closed = 1;
nodes = (
"177.04 156.466 LINE",
"258.372 109.274 LINE",
"761.399 561.102 LINE",
"680.066 608.294 LINE"
);
}
);
width = 795;
},
{
components = (
{
alignment = -1;
name = O;
}
);
layerId = "0CF0EA28-C756-4A9E-9D7C-CFEF350B4CFE";
paths = (
{
closed = 1;
nodes = (
"145.917 156.466 LINE",
"236.636 109.274 LINE",
"649.788 561.102 LINE",
"559.069 608.294 LINE"
);
}
);
width = 795;
},
{
components = (
{
alignment = -1;
name = O;
}
);
layerId = "6E968933-CD79-43C6-9231-80D77C940F4D";
paths = (
{
closed = 1;
nodes = (
"148.042 103.93 LINE",
"172.483 100.969 LINE",
"633.951 601.316 LINE",
"610.489 605.256 LINE"
);
}
);
width = 777.38298;
},
{
components = (
{
alignment = -1;
name = O;
}
);
layerId = "BAF31694-0472-4296-B0EA-1654553C45D2";
paths = (
{
closed = 1;
nodes = (
"150.8 170.038 LINE",
"256.699 115.673 LINE",
"652.606 551.25 LINE",
"547.286 605.618 LINE"
);
}
);
width = 773.70755;
},
{
components = (
{
alignment = -1;
name = O;
}
);
layerId = "F7832249-9EF4-4513-B883-88BAA20BF268";
paths = (
{
closed = 1;
nodes = (
"168.715 103.93 LINE",
"192.567 100.969 LINE",
"753.56 601.316 LINE",
"730.882 605.256 LINE"
);
}
);
width = 777.38298;
},
{
components = (
{
alignment = -1;
name = O;
}
);
layerId = "9CDD62D3-67F3-4AC7-B192-D539276CE01F";
paths = (
{
closed = 1;
nodes = (
"184.624 170.038 LINE",
"279.708 115.673 LINE",
"762.257 551.25 LINE",
"667.751 605.618 LINE"
);
}
);
width = 773.70755;
}
);
leftMetricsKey = O;
rightMetricsKey = O;
unicode = 00D8;
},
{
glyphname = OE;
lastChange = "2021-08-10 05:27:38 +0000";
layers = (
{
hints = (
{
horizontal = 1;
place = "{-7, 103}";
type = Stem;
},
{
horizontal = 1;
place = "{0, 89}";
type = Stem;
},
{
horizontal = 1;
place = "{309, 88}";
type = Stem;
},
{
horizontal = 1;
place = "{604, 104}";
type = Stem;
},
{
horizontal = 1;
place = "{611, 89}";
type = Stem;
}
);
layerId = "24A19461-EE5C-48C0-A968-CC082199DAC2";
paths = (
{
closed = 1;
nodes = (
"1091.376 611.357 LINE",
"1109.074 700.328 LINE",
"725.074 700.328 LINE",
"703.665 592.698 LINE",
"660.939 669.157 OFFCURVE",
"583.743 708.393 OFFCURVE",
"478.678 708.393 CURVE SMOOTH",
"293.678 708.393 OFFCURVE",
"104.656 562.487 OFFCURVE",
"62.623 351.175 CURVE SMOOTH",
"20.79 140.869 OFFCURVE",
"150.368 -7.05 OFFCURVE",
"337.368 -7.05 CURVE SMOOTH",
"441.432 -7.05 OFFCURVE",
"534.239 32.185 OFFCURVE",
"607.941 111.464 CURVE",
"585.77 0 LINE",
"969.77 0 LINE",
"987.467 88.971 LINE",
"717.534 89.306 LINE",
"761.275 309.207 LINE",
"1001.275 309.207 LINE",
"1018.772 397.171 LINE",
"778.839 397.506 LINE",
"821.376 611.357 LINE"
);
},
{
closed = 1;
nodes = (
"210.316 505.479 OFFCURVE",
"329.976 604.314 OFFCURVE",
"467.976 604.314 CURVE SMOOTH",
"605.976 604.314 OFFCURVE",
"686.316 505.479 OFFCURVE",
"655.623 351.175 CURVE SMOOTH",
"624.93 196.873 OFFCURVE",
"504.87 96.022 OFFCURVE",
"366.87 96.022 CURVE SMOOTH",
"228.87 96.022 OFFCURVE",
"148.93 196.873 OFFCURVE",
"179.623 351.175 CURVE SMOOTH"
);
}
);
width = 1084.5;
},
{
hints = (
{
place = "{42, 117}";
type = Stem;
},
{
place = "{635, 114}";
type = Stem;
},
{
horizontal = 1;
place = "{-7, 103}";
type = Stem;
},
{
horizontal = 1;
place = "{0, 89}";
type = Stem;
},
{
horizontal = 1;
place = "{309, 88}";
type = Stem;
},
{
horizontal = 1;
place = "{604, 104}";
type = Stem;
},
{
horizontal = 1;
place = "{611, 89}";
type = Stem;
}
);
layerId = "0CF0EA28-C756-4A9E-9D7C-CFEF350B4CFE";
paths = (
{
closed = 1;
nodes = (
"1019.5 611.357 LINE",
"1019.5 700.328 LINE",
"635.5 700.328 LINE",
"635.5 592.698 LINE",
"577.566 669.157 OFFCURVE",
"492.565 708.393 OFFCURVE",
"387.5 708.393 CURVE SMOOTH",
"202.5 708.393 OFFCURVE",
"42.5 562.487 OFFCURVE",
"42.5 351.175 CURVE SMOOTH",
"42.5 140.869 OFFCURVE",
"201.5 -7.05 OFFCURVE",
"388.5 -7.05 CURVE SMOOTH",
"492.565 -7.05 OFFCURVE",
"577.567 32.185 OFFCURVE",
"635.5 111.464 CURVE",
"635.5 0 LINE",
"1019.5 0 LINE",
"1019.5 88.971 LINE",
"749.5 89.306 LINE",
"749.5 309.207 LINE",
"989.5 309.207 LINE",
"989.5 397.171 LINE",
"749.5 397.506 LINE",
"749.5 611.357 LINE"
);
},
{
closed = 1;
nodes = (
"159.5 505.479 OFFCURVE",
"259.5 604.314 OFFCURVE",
"397.5 604.314 CURVE SMOOTH",
"535.5 604.314 OFFCURVE",
"635.5 505.479 OFFCURVE",
"635.5 351.175 CURVE SMOOTH",
"635.5 196.873 OFFCURVE",
"535.5 96.022 OFFCURVE",
"397.5 96.022 CURVE SMOOTH",
"259.5 96.022 OFFCURVE",
"159.5 196.873 OFFCURVE",
"159.5 351.175 CURVE SMOOTH"
);
}
);
width = 1084.5;
},
{
hints = (
{
place = "{64, 23}";
type = Stem;
},
{
place = "{701, 22}";
type = Stem;
},
{
horizontal = 1;
place = "{691, -20}";
target = down;
type = TopGhost;
},
{
horizontal = 1;
place = "{-8, 21}";
target = up;
type = BottomGhost;
}
);
layerId = "6E968933-CD79-43C6-9231-80D77C940F4D";
paths = (
{
closed = 1;
nodes = (
"1047.883 680.649 LINE",
"1047.883 700.058 LINE",
"703.032 700.058 LINE",
"703.032 462.263 LINE",
"670.48 609.864 OFFCURVE",
"542.416 706.069 OFFCURVE",
"388.479 706.069 CURVE",
"192.713 706.069 OFFCURVE",
"52.287 558.936 OFFCURVE",
"52.287 349.102 CURVE",
"52.287 139.29 OFFCURVE",
"192.691 -7.885 OFFCURVE",
"388.5 -7.885 CURVE",
"542.416 -7.885 OFFCURVE",
"670.48 88.32 OFFCURVE",
"703.032 235.981 CURVE",
"703.032 0.05 LINE",
"1047.883 0.05 LINE",
"1047.883 19.46 LINE",
"725.032 19.467 LINE",
"725.032 340.424 LINE",
"1017.883 340.424 LINE",
"1017.883 359.812 LINE",
"725.032 359.819 LINE",
"725.032 680.648 LINE"
);
},
{
closed = 1;
nodes = (
"75.33 558.696 OFFCURVE",
"214.479 686.338 OFFCURVE",
"388.691 686.338 CURVE",
"562.904 686.338 OFFCURVE",
"702.053 558.696 OFFCURVE",
"702.053 349.102 CURVE",
"702.053 139.509 OFFCURVE",
"562.904 11.824 OFFCURVE",
"388.691 11.824 CURVE",
"214.479 11.824 OFFCURVE",
"75.33 139.509 OFFCURVE",
"75.33 349.102 CURVE"
);
}
);
width = 1132.45745;
},
{
hints = (
{
place = "{26, 180}";
type = Stem;
},
{
place = "{568, 182}";
type = Stem;
},
{
horizontal = 1;
place = "{-10, 162}";
type = Stem;
},
{
horizontal = 1;
place = "{0, 140}";
type = Stem;
},
{
horizontal = 1;
place = "{288, 133}";
type = Stem;
},
{
horizontal = 1;
place = "{548, 162}";
type = Stem;
},
{
horizontal = 1;
place = "{561, 139}";
type = Stem;
}
);
layerId = "BAF31694-0472-4296-B0EA-1654553C45D2";
paths = (
{
closed = 1;
nodes = (
"1008.278 561.097 LINE",
"1008.278 700.159 LINE",
"573.637 700.159 LINE",
"573.637 633.342 LINE",
"523.651 684.135 OFFCURVE",
"451.411 710.385 OFFCURVE",
"373.401 710.385 CURVE SMOOTH",
"178.618 710.385 OFFCURVE",
"26.675 562.4 OFFCURVE",
"26.675 350.509 CURVE SMOOTH",
"26.675 139.045 OFFCURVE",
"178.193 -9.794 OFFCURVE",
"373.825 -9.794 CURVE SMOOTH",
"451.412 -8.122 OFFCURVE",
"523.625 16.476 OFFCURVE",
"573.637 68.446 CURVE",
"573.637 0 LINE",
"1008.278 0 LINE",
"1008.278 139.629 LINE",
"749.788 139.771 LINE",
"749.788 288.282 LINE",
"978.278 288.282 LINE",
"978.278 421.815 LINE",
"749.788 421.957 LINE",
"749.788 561.097 LINE"
);
},
{
closed = 1;
nodes = (
"206.401 471.001 OFFCURVE",
"276.476 548.471 OFFCURVE",
"387.429 548.471 CURVE SMOOTH",
"497.231 548.471 OFFCURVE",
"567.882 471.001 OFFCURVE",
"567.882 350.509 CURVE SMOOTH",
"567.882 230.017 OFFCURVE",
"497.231 151.692 OFFCURVE",
"387.429 151.692 CURVE SMOOTH",
"276.476 151.692 OFFCURVE",
"206.401 230.017 OFFCURVE",
"206.401 350.509 CURVE SMOOTH"
);
}
);
width = 1041.62736;
},
{
hints = (
{
horizontal = 1;
place = "{0, 2}";
type = Stem;
},
{
horizontal = 1;
place = "{0, 2}";
type = Stem;
},
{
horizontal = 1;
place = "{7, 2}";
type = Stem;
},
{
horizontal = 1;
place = "{13, 2}";
type = Stem;
},
{
horizontal = 1;
place = "{13, 2}";
type = Stem;
}
);
layerId = "F7832249-9EF4-4513-B883-88BAA20BF268";
paths = (
{
closed = 1;
nodes = (
"1133.542 680.649 LINE",
"1137.403 700.058 LINE",
"792.552 700.058 LINE",
"745.252 462.263 LINE",
"742.06 609.864 OFFCURVE",
"633.132 706.069 OFFCURVE",
"479.195 706.069 CURVE SMOOTH",
"283.429 706.069 OFFCURVE",
"113.737 558.936 OFFCURVE",
"71.998 349.102 CURVE SMOOTH",
"30.264 139.29 OFFCURVE",
"141.393 -7.885 OFFCURVE",
"337.202 -7.885 CURVE SMOOTH",
"491.118 -7.885 OFFCURVE",
"638.318 88.32 OFFCURVE",
"700.241 235.981 CURVE",
"653.312 0.05 LINE",
"998.163 0.05 LINE",
"1002.024 19.46 LINE",
"679.174 19.467 LINE",
"743.017 340.424 LINE",
"1035.868 340.424 LINE",
"1039.725 359.812 LINE",
"746.875 359.819 LINE",
"810.691 680.648 LINE"
);
},
{
closed = 1;
nodes = (
"136.732 558.696 OFFCURVE",
"301.27 686.338 OFFCURVE",
"475.483 686.338 CURVE SMOOTH",
"649.696 686.338 OFFCURVE",
"763.455 558.696 OFFCURVE",
"721.764 349.102 CURVE SMOOTH",
"680.073 139.509 OFFCURVE",
"515.526 11.824 OFFCURVE",
"341.314 11.824 CURVE SMOOTH",
"167.101 11.824 OFFCURVE",
"53.35 139.509 OFFCURVE",
"95.041 349.102 CURVE SMOOTH"
);
}
);
width = 1132.45745;
},
{
hints = (
{
horizontal = 1;
place = "{-10, 162}";
type = Stem;
},
{
horizontal = 1;
place = "{0, 140}";
type = Stem;
},
{
horizontal = 1;
place = "{288, 133}";
type = Stem;
},
{
horizontal = 1;
place = "{548, 162}";
type = Stem;
},
{
horizontal = 1;
place = "{561, 139}";
type = Stem;
}
);
layerId = "9CDD62D3-67F3-4AC7-B192-D539276CE01F";
paths = (
{
closed = 1;
nodes = (
"1070.157 561.097 LINE",
"1097.819 700.159 LINE",
"663.177 700.159 LINE",
"649.886 633.342 LINE",
"610.003 684.135 OFFCURVE",
"542.986 710.385 OFFCURVE",
"464.975 710.385 CURVE SMOOTH",
"270.192 710.385 OFFCURVE",
"88.813 562.4 OFFCURVE",
"46.665 350.509 CURVE SMOOTH",
"4.602 139.045 OFFCURVE",
"126.515 -9.794 OFFCURVE",
"322.147 -9.794 CURVE",
"400.066 -8.122 OFFCURVE",
"477.172 16.476 OFFCURVE",
"537.521 68.446 CURVE",
"523.907 0 LINE",
"958.548 0 LINE",
"986.322 139.629 LINE",
"727.86 139.771 LINE",
"757.4 288.282 LINE",
"985.891 288.282 LINE",
"1012.452 421.815 LINE",
"783.99 421.957 LINE",
"811.667 561.097 LINE"
);
},
{
closed = 1;
nodes = (
"250.359 471.001 OFFCURVE",
"335.844 548.471 OFFCURVE",
"446.797 548.471 CURVE SMOOTH",
"556.599 548.471 OFFCURVE",
"611.84 471.001 OFFCURVE",
"587.873 350.509 CURVE SMOOTH",
"563.905 230.017 OFFCURVE",
"477.674 151.692 OFFCURVE",
"367.872 151.692 CURVE SMOOTH",
"256.92 151.692 OFFCURVE",
"202.424 230.017 OFFCURVE",
"226.392 350.509 CURVE SMOOTH"
);
}
);
width = 1041.62736;
}
);
leftMetricsKey = O;
rightMetricsKey = E;
unicode = 0152;
},
{
glyphname = P;
lastChange = "2021-08-10 05:27:38 +0000";
layers = (
{
hints = (
{
horizontal = 1;
place = "{607, 93}";
type = Stem;
},
{
horizontal = 1;
place = "{284, 93}";
type = Stem;
},
{
horizontal = 1;
place = "{0, 21}";
target = up;
type = BottomGhost;
}
);
layerId = "24A19461-EE5C-48C0-A968-CC082199DAC2";
paths = (
{
closed = 1;
nodes = (
"224.332 377.362 LINE",
"270.075 607.328 LINE",
"426.075 607.328 LINE SMOOTH",
"515.075 607.328 OFFCURVE",
"546.437 563.903 OFFCURVE",
"531.971 491.174 CURVE SMOOTH",
"517.905 420.464 OFFCURVE",
"469.227 376.837 OFFCURVE",
"380.265 377.028 CURVE SMOOTH"
);
},
{
closed = 1;
nodes = (
"671.573 604.804 OFFCURVE",
"609.574 700.328 OFFCURVE",
"444.574 700.328 CURVE SMOOTH",
"174.574 700.328 LINE",
"35.27 0 LINE",
"149.27 0 LINE",
"205.767 284.028 LINE",
"361.767 284.028 LINE SMOOTH",
"542.767 284.028 OFFCURVE",
"629.169 391.623 OFFCURVE",
"648.971 491.174 CURVE SMOOTH"
);
}
);
width = 643.5;
},
{
hints = (
{
place = "{85, 114}";
type = Stem;
},
{
place = "{484, 117}";
type = Stem;
},
{
horizontal = 1;
place = "{284, 93}";
type = Stem;
},
{
horizontal = 1;
place = "{607, 93}";
type = Stem;
},
{
horizontal = 1;
place = "{0, 21}";
target = up;
type = BottomGhost;
}
);
layerId = "0CF0EA28-C756-4A9E-9D7C-CFEF350B4CFE";
paths = (
{
closed = 1;
nodes = (
"199 377.362 LINE",
"199 607.328 LINE",
"355 607.328 LINE SMOOTH",
"444 607.328 OFFCURVE",
"484 563.903 OFFCURVE",
"484 491.174 CURVE SMOOTH",
"484 420.464 OFFCURVE",
"444 376.837 OFFCURVE",
"355 377.028 CURVE SMOOTH"
);
},
{
closed = 1;
nodes = (
"601 604.804 OFFCURVE",
"520 700.328 OFFCURVE",
"355 700.328 CURVE SMOOTH",
"85 700.328 LINE",
"85 0 LINE",
"199 0 LINE",
"199 284.028 LINE",
"355 284.028 LINE SMOOTH",
"536 284.028 OFFCURVE",
"601 391.623 OFFCURVE",
"601 491.174 CURVE SMOOTH"
);
}
);
width = 643.5;
},
{
hints = (
{
place = "{105, 22}";
type = Stem;
},
{
place = "{517, 22}";
type = Stem;
},
{
horizontal = 1;
place = "{314, 23}";
type = Stem;
},
{
horizontal = 1;
place = "{677, 23}";
type = Stem;
},
{
horizontal = 1;
place = "{0, 21}";
target = up;
type = BottomGhost;
}
);
layerId = "6E968933-CD79-43C6-9231-80D77C940F4D";
paths = (
{
closed = 1;
nodes = (
"126.574 337.008 LINE",
"126.574 677.643 LINE",
"313.894 677.643 LINE",
"463.574 677.643 OFFCURVE",
"517.277 613.647 OFFCURVE",
"517.277 506.331 CURVE SMOOTH",
"517.277 403.91 OFFCURVE",
"463.574 336.997 OFFCURVE",
"313.894 337.001 CURVE SMOOTH"
);
},
{
closed = 1;
nodes = (
"539.34 622.279 OFFCURVE",
"474 700.058 OFFCURVE",
"313.894 700.058 CURVE SMOOTH",
"104.574 700.058 LINE",
"104.574 0.05 LINE",
"126.574 0.05 LINE",
"126.574 314.587 LINE",
"313.894 314.587 LINE SMOOTH",
"460.638 314.587 OFFCURVE",
"539.34 378.067 OFFCURVE",
"539.34 506.331 CURVE SMOOTH"
);
}
);
width = 591.62766;
},
{
hints = (
{
place = "{53, 176}";
type = Stem;
},
{
place = "{444, 179}";
type = Stem;
},
{
horizontal = 1;
place = "{248, 140}";
type = Stem;
},
{
horizontal = 1;
place = "{558, 142}";
type = Stem;
},
{
horizontal = 1;
place = "{0, 21}";
target = up;
type = BottomGhost;
}
);
layerId = "BAF31694-0472-4296-B0EA-1654553C45D2";
paths = (
{
closed = 1;
nodes = (
"229.5 388.465 LINE",
"229.5 558.253 LINE",
"349.245 558.253 LINE SMOOTH",
"415.802 558.253 OFFCURVE",
"443.717 525.386 OFFCURVE",
"443.717 472.861 CURVE SMOOTH",
"443.717 421.195 OFFCURVE",
"415.802 388.242 OFFCURVE",
"349.245 388.323 CURVE SMOOTH"
);
},
{
closed = 1;
nodes = (
"622.868 602.54 OFFCURVE",
"536.113 700.159 OFFCURVE",
"363.632 700.159 CURVE SMOOTH",
"53.349 700.159 LINE",
"53.349 0 LINE",
"229.5 0 LINE",
"229.5 248.117 LINE",
"363.632 248.117 LINE SMOOTH",
"542.906 248.117 OFFCURVE",
"622.868 355.926 OFFCURVE",
"622.868 472.862 CURVE SMOOTH"
);
}
);
width = 649.54245;
},
{
hints = (
{
horizontal = 1;
place = "{677, 23}";
type = Stem;
},
{
horizontal = 1;
place = "{314, 23}";
type = Stem;
},
{
horizontal = 1;
place = "{0, 21}";
target = up;
type = BottomGhost;
}
);
layerId = "F7832249-9EF4-4513-B883-88BAA20BF268";
paths = (
{
closed = 1;
nodes = (
"143.88 337.008 LINE",
"211.636 677.643 LINE",
"398.956 677.643 LINE SMOOTH",
"548.636 677.643 OFFCURVE",
"589.608 613.647 OFFCURVE",
"568.262 506.331 CURVE SMOOTH",
"547.889 403.91 OFFCURVE",
"480.878 336.997 OFFCURVE",
"331.198 337.001 CURVE SMOOTH"
);
},
{
closed = 1;
nodes = (
"613.39 622.279 OFFCURVE",
"563.52 700.058 OFFCURVE",
"403.414 700.058 CURVE SMOOTH",
"194.095 700.058 LINE",
"54.854 0.05 LINE",
"76.854 0.05 LINE",
"139.419 314.587 LINE",
"326.738 314.587 LINE SMOOTH",
"473.483 314.587 OFFCURVE",
"564.813 378.067 OFFCURVE",
"590.326 506.331 CURVE SMOOTH"
);
}
);
width = 591.62766;
},
{
hints = (
{
horizontal = 1;
place = "{248, 140}";
type = Stem;
},
{
horizontal = 1;
place = "{558, 142}";
type = Stem;
},
{
horizontal = 1;
place = "{0, 21}";
target = up;
type = BottomGhost;
}
);
layerId = "9CDD62D3-67F3-4AC7-B192-D539276CE01F";
paths = (
{
closed = 1;
nodes = (
"257.041 388.465 LINE",
"290.813 558.253 LINE",
"410.559 558.253 LINE SMOOTH",
"477.115 558.253 OFFCURVE",
"498.493 525.386 OFFCURVE",
"488.045 472.861 CURVE SMOOTH",
"477.768 421.195 OFFCURVE",
"443.298 388.242 OFFCURVE",
"376.758 388.323 CURVE SMOOTH"
);
},
{
closed = 1;
nodes = (
"692.99 602.54 OFFCURVE",
"625.654 700.159 OFFCURVE",
"453.173 700.159 CURVE SMOOTH",
"142.89 700.159 LINE",
"3.619 0 LINE",
"179.77 0 LINE",
"229.124 248.117 LINE",
"363.256 248.117 LINE SMOOTH",
"542.529 248.117 OFFCURVE",
"643.936 355.926 OFFCURVE",
"667.196 472.862 CURVE SMOOTH"
);
}
);
width = 649.54245;
}
);
leftMetricsKey = H;
rightMetricsKey = "=H*0.5";
unicode = 0050;
},
{
glyphname = Thorn;
lastChange = "2021-08-10 05:27:38 +0000";
layers = (
{
hints = (
{
horizontal = 1;
place = "{469, 231}";
type = Stem;
},
{
horizontal = 1;
place = "{469, 89}";
type = Stem;
},
{
horizontal = 1;
place = "{143, 89}";
type = Stem;
},
{
horizontal = 1;
place = "{0, 21}";
target = up;
type = BottomGhost;
}
);
layerId = "24A19461-EE5C-48C0-A968-CC082199DAC2";
paths = (
{
closed = 1;
nodes = (
"195.483 232.327 LINE",
"242.63 469.351 LINE",
"368.63 469.351 LINE SMOOTH",
"457.63 469.351 OFFCURVE",
"488.187 421.879 OFFCURVE",
"473.923 350.168 CURVE SMOOTH",
"459.859 279.464 OFFCURVE",
"410.369 231.756 OFFCURVE",
"321.416 231.992 CURVE SMOOTH"
);
},
{
closed = 1;
nodes = (
"613.525 463.798 OFFCURVE",
"551.36 558.489 OFFCURVE",
"386.36 558.489 CURVE SMOOTH",
"259.36 558.489 LINE",
"287.575 700.336 LINE",
"174.575 700.336 LINE",
"35.27 0 LINE",
"149.27 0 LINE",
"177.719 143.021 LINE",
"303.719 143.021 LINE SMOOTH",
"484.719 143.021 OFFCURVE",
"571.121 250.617 OFFCURVE",
"590.923 350.168 CURVE SMOOTH"
);
}
);
width = 613.5;
},
{
hints = (
{
place = "{85, 114}";
type = Stem;
},
{
place = "{454, 117}";
type = Stem;
},
{
horizontal = 1;
place = "{143, 89}";
type = Stem;
},
{
horizontal = 1;
place = "{469, 89}";
type = Stem;
},
{
horizontal = 1;
place = "{0, 21}";
target = up;
type = BottomGhost;
},
{
horizontal = 1;
place = "{700, -20}";
target = down;
type = TopGhost;
}
);
layerId = "0CF0EA28-C756-4A9E-9D7C-CFEF350B4CFE";
paths = (
{
closed = 1;
nodes = (
"199 232.327 LINE",
"199 469.351 LINE",
"325 469.351 LINE SMOOTH",
"414 469.351 OFFCURVE",
"454 421.879 OFFCURVE",
"454 350.168 CURVE SMOOTH",
"454 279.464 OFFCURVE",
"414 231.756 OFFCURVE",
"325 231.992 CURVE SMOOTH"
);
},
{
closed = 1;
nodes = (
"571 463.798 OFFCURVE",
"490 558.489 OFFCURVE",
"325 558.489 CURVE SMOOTH",
"198 558.489 LINE",
"198 700.336 LINE",
"85 700.336 LINE",
"85 0 LINE",
"199 0 LINE",
"199 143.021 LINE",
"325 143.021 LINE SMOOTH",
"506 143.021 OFFCURVE",
"571 250.617 OFFCURVE",
"571 350.168 CURVE SMOOTH"
);
}
);
width = 613.5;
},
{
hints = (
{
place = "{105, 22}";
type = Stem;
},
{
place = "{487, 22}";
type = Stem;
},
{
horizontal = 1;
place = "{158, 22}";
type = Stem;
},
{
horizontal = 1;
place = "{522, 21}";
type = Stem;
},
{
horizontal = 1;
place = "{700, -20}";
target = down;
type = TopGhost;
},
{
horizontal = 1;
place = "{0, 21}";
target = up;
type = BottomGhost;
}
);
layerId = "6E968933-CD79-43C6-9231-80D77C940F4D";
paths = (
{
closed = 1;
nodes = (
"126.574 180.163 LINE",
"126.574 521.92 LINE",
"283.894 521.92 LINE SMOOTH",
"433.574 521.92 OFFCURVE",
"487.277 457.655 OFFCURVE",
"487.277 350.054 CURVE SMOOTH",
"487.277 247.34 OFFCURVE",
"433.574 180.151 OFFCURVE",
"283.894 180.156 CURVE SMOOTH"
);
},
{
closed = 1;
nodes = (
"509.34 466.332 OFFCURVE",
"444 543.281 OFFCURVE",
"283.894 543.281 CURVE SMOOTH",
"126.553 543.281 LINE",
"126.553 700.058 LINE",
"104.574 700.058 LINE",
"104.574 0.05 LINE",
"126.574 0.05 LINE",
"126.574 157.826 LINE",
"283.894 157.826 LINE SMOOTH",
"430.638 157.826 OFFCURVE",
"509.34 221.425 OFFCURVE",
"509.34 350.054 CURVE SMOOTH"
);
}
);
width = 561.62766;
},
{
hints = (
{
place = "{53, 176}";
type = Stem;
},
{
place = "{414, 179}";
type = Stem;
},
{
horizontal = 1;
place = "{131, 133}";
type = Stem;
},
{
horizontal = 1;
place = "{437, 134}";
type = Stem;
},
{
horizontal = 1;
place = "{0, 21}";
target = up;
type = BottomGhost;
},
{
horizontal = 1;
place = "{700, -20}";
target = down;
type = TopGhost;
}
);
layerId = "BAF31694-0472-4296-B0EA-1654553C45D2";
paths = (
{
closed = 1;
nodes = (
"229.5 264.541 LINE",
"229.5 437.325 LINE",
"319.245 437.325 LINE SMOOTH",
"385.802 437.325 OFFCURVE",
"413.717 402.74 OFFCURVE",
"413.717 350.649 CURVE SMOOTH",
"413.717 298.984 OFFCURVE",
"385.802 264.298 OFFCURVE",
"319.245 264.399 CURVE SMOOTH"
);
},
{
closed = 1;
nodes = (
"592.868 476.994 OFFCURVE",
"506.113 571.924 OFFCURVE",
"333.632 571.924 CURVE SMOOTH",
"227.925 571.924 LINE",
"227.925 700.163 LINE",
"53.349 700.163 LINE",
"53.349 0 LINE",
"229.5 0 LINE",
"229.5 131.571 LINE",
"333.632 131.571 LINE SMOOTH",
"512.906 131.571 OFFCURVE",
"592.868 236.546 OFFCURVE",
"592.868 350.649 CURVE SMOOTH"
);
}
);
width = 619.54245;
},
{
hints = (
{
horizontal = 1;
place = "{522, 24}";
type = Stem;
},
{
horizontal = 1;
place = "{165, 22}";
type = Stem;
},
{
horizontal = 1;
place = "{3, 2}";
type = Stem;
},
{
horizontal = 1;
place = "{0, 21}";
target = up;
type = BottomGhost;
}
);
layerId = "F7832249-9EF4-4513-B883-88BAA20BF268";
paths = (
{
closed = 1;
nodes = (
"112.681 180.163 LINE",
"180.661 521.92 LINE",
"337.98 521.92 LINE SMOOTH",
"487.661 521.92 OFFCURVE",
"528.58 457.655 OFFCURVE",
"507.177 350.054 CURVE SMOOTH",
"486.746 247.34 OFFCURVE",
"419.679 180.151 OFFCURVE",
"269.999 180.156 CURVE SMOOTH"
);
},
{
closed = 1;
nodes = (
"552.369 466.332 OFFCURVE",
"502.336 543.281 OFFCURVE",
"342.229 543.281 CURVE SMOOTH",
"184.889 543.281 LINE",
"216.074 700.058 LINE",
"194.096 700.058 LINE",
"54.855 0.05 LINE",
"76.855 0.05 LINE",
"108.238 157.826 LINE",
"265.558 157.826 LINE SMOOTH",
"412.302 157.826 OFFCURVE",
"503.655 221.425 OFFCURVE",
"529.241 350.054 CURVE SMOOTH"
);
}
);
width = 561.62766;
},
{
hints = (
{
horizontal = 1;
place = "{270, 133}";
type = Stem;
},
{
horizontal = 1;
place = "{437, 195}";
type = Stem;
},
{
horizontal = 1;
place = "{0, 21}";
target = up;
type = BottomGhost;
},
{
horizontal = 1;
place = "{403, -20}";
target = down;
type = TopGhost;
}
);
layerId = "9CDD62D3-67F3-4AC7-B192-D539276CE01F";
paths = (
{
closed = 1;
nodes = (
"232.39 264.541 LINE",
"266.76 437.325 LINE",
"356.505 437.325 LINE SMOOTH",
"423.061 437.325 OFFCURVE",
"444.097 402.74 OFFCURVE",
"433.736 350.649 CURVE SMOOTH",
"423.459 298.984 OFFCURVE",
"388.644 264.298 OFFCURVE",
"322.107 264.399 CURVE SMOOTH"
);
},
{
closed = 1;
nodes = (
"638.018 476.994 OFFCURVE",
"570.146 571.924 OFFCURVE",
"397.665 571.924 CURVE SMOOTH",
"291.957 571.924 LINE",
"317.466 700.163 LINE",
"142.89 700.163 LINE",
"3.619 0 LINE",
"179.77 0 LINE",
"205.941 131.571 LINE",
"310.073 131.571 LINE SMOOTH",
"489.347 131.571 OFFCURVE",
"590.19 236.546 OFFCURVE",
"612.886 350.649 CURVE SMOOTH"
);
}
);
width = 619.54245;
}
);
leftMetricsKey = H;
rightMetricsKey = D;
unicode = 00DE;
},
{
glyphname = Q;
lastChange = "2021-08-10 05:27:38 +0000";
layers = (
{
components = (
{
alignment = -1;
name = O;
}
);
hints = (
{
horizontal = 1;
place = "{-100, 21}";
target = up;
type = BottomGhost;
},
{
horizontal = 1;
place = "{200, -20}";
target = down;
type = TopGhost;
}
);
layerId = "24A19461-EE5C-48C0-A968-CC082199DAC2";
paths = (
{
closed = 1;
nodes = (
"273.82 -99.834 LINE",
"387.82 -99.834 LINE",
"447.418 199.784 LINE",
"333.418 199.784 LINE"
);
}
);
width = 795;
},
{
components = (
{
alignment = -1;
name = O;
}
);
hints = (
{
place = "{383, 114}";
type = Stem;
},
{
horizontal = 1;
place = "{-100, 21}";
target = up;
type = BottomGhost;
},
{
horizontal = 1;
place = "{200, -20}";
target = down;
type = TopGhost;
}
);
layerId = "0CF0EA28-C756-4A9E-9D7C-CFEF350B4CFE";
paths = (
{
closed = 1;
nodes = (
"344.367 -99.834 LINE",
"458.367 -99.834 LINE",
"458.367 199.784 LINE",
"344.367 199.784 LINE"
);
}
);
width = 795;
},
{
components = (
{
alignment = -1;
name = O;
}
);
hints = (
{
place = "{386, 22}";
type = Stem;
},
{
horizontal = 1;
place = "{-100, 21}";
target = up;
type = BottomGhost;
},
{
horizontal = 1;
place = "{102, -20}";
target = down;
type = TopGhost;
}
);
layerId = "6E968933-CD79-43C6-9231-80D77C940F4D";
paths = (
{
closed = 1;
nodes = (
"384.941 -100.081 LINE",
"406.941 -100.081 LINE",
"406.941 102.312 LINE",
"384.941 102.312 LINE"
);
}
);
width = 777.38298;
},
{
components = (
{
alignment = -1;
name = O;
}
);
hints = (
{
place = "{348, 131}";
type = Stem;
},
{
horizontal = 1;
place = "{-85, 21}";
target = up;
type = BottomGhost;
},
{
horizontal = 1;
place = "{238, -20}";
target = down;
type = TopGhost;
}
);
layerId = "BAF31694-0472-4296-B0EA-1654553C45D2";
paths = (
{
closed = 1;
nodes = (
"323.335 -84.969 LINE",
"454.599 -84.969 LINE",
"454.599 237.688 LINE",
"323.335 237.688 LINE"
);
}
);
width = 773.70755;
},
{
components = (
{
alignment = -1;
name = O;
}
);
hints = (
{
horizontal = 1;
place = "{-100, 21}";
target = up;
type = BottomGhost;
},
{
horizontal = 1;
place = "{102, -20}";
target = down;
type = TopGhost;
}
);
layerId = "F7832249-9EF4-4513-B883-88BAA20BF268";
paths = (
{
closed = 1;
nodes = (
"309.648 -100.081 LINE",
"331.648 -100.081 LINE",
"371.907 102.312 LINE",
"349.907 102.312 LINE"
);
}
);
width = 777.38298;
},
{
components = (
{
alignment = -1;
name = O;
}
);
hints = (
{
horizontal = 1;
place = "{-85, 21}";
target = up;
type = BottomGhost;
},
{
horizontal = 1;
place = "{238, -20}";
target = down;
type = TopGhost;
}
);
layerId = "9CDD62D3-67F3-4AC7-B192-D539276CE01F";
paths = (
{
closed = 1;
nodes = (
"256.878 -84.969 LINE",
"388.142 -84.969 LINE",
"452.323 237.688 LINE",
"321.059 237.688 LINE"
);
}
);
width = 773.70755;
}
);
leftMetricsKey = O;
rightMetricsKey = O;
unicode = 0051;
},
{
glyphname = R;
lastChange = "2021-08-10 05:27:38 +0000";
layers = (
{
anchors = (
{
name = bottom;
position = "{306.28, 0}";
},
{
name = top;
position = "{405.28, 701}";
}
);
hints = (
{
horizontal = 1;
place = "{280, 91}";
type = Stem;
},
{
horizontal = 1;
place = "{607, 93}";
type = Stem;
},
{
horizontal = 1;
place = "{0, 21}";
target = up;
type = BottomGhost;
}
);
layerId = "24A19461-EE5C-48C0-A968-CC082199DAC2";
paths = (
{
closed = 1;
nodes = (
"517.913 420.476 OFFCURVE",
"468.031 370.794 OFFCURVE",
"379.069 370.984 CURVE SMOOTH",
"223.135 371.319 LINE",
"270.078 607.328 LINE",
"426.078 607.328 LINE SMOOTH",
"515.078 607.328 OFFCURVE",
"545.838 560.874 OFFCURVE",
"531.774 490.167 CURVE SMOOTH"
);
},
{
closed = 1;
nodes = (
"174.575 700.328 LINE",
"35.28 0 LINE",
"149.28 0 LINE",
"204.972 279.999 LINE",
"360.972 279.999 LINE SMOOTH",
"541.972 279.999 OFFCURVE",
"628.973 390.614 OFFCURVE",
"648.774 490.167 CURVE SMOOTH",
"671.375 603.798 OFFCURVE",
"609.575 700.328 OFFCURVE",
"444.575 700.328 CURVE SMOOTH"
);
},
{
closed = 1;
nodes = (
"308.537 316.596 LINE",
"426.184 0 LINE",
"561.98 0 LINE",
"437.348 316.596 LINE"
);
}
);
width = 654.205;
},
{
anchors = (
{
name = bottom;
position = "{356, 0}";
},
{
name = top;
position = "{326, 701}";
}
);
hints = (
{
place = "{85, 114}";
type = Stem;
},
{
place = "{484, 117}";
type = Stem;
},
{
horizontal = 1;
place = "{280, 91}";
type = Stem;
},
{
horizontal = 1;
place = "{607, 93}";
type = Stem;
},
{
horizontal = 1;
place = "{0, 21}";
target = up;
type = BottomGhost;
}
);
layerId = "0CF0EA28-C756-4A9E-9D7C-CFEF350B4CFE";
paths = (
{
closed = 1;
nodes = (
"484 420.476 OFFCURVE",
"444 370.794 OFFCURVE",
"355 370.984 CURVE SMOOTH",
"199 371.319 LINE",
"199 607.328 LINE",
"355 607.328 LINE SMOOTH",
"444 607.328 OFFCURVE",
"484 560.874 OFFCURVE",
"484 490.167 CURVE SMOOTH"
);
},
{
closed = 1;
nodes = (
"85 700.328 LINE",
"85 0 LINE",
"199 0 LINE",
"199 279.999 LINE",
"355 279.999 LINE SMOOTH",
"536 279.999 OFFCURVE",
"601 390.614 OFFCURVE",
"601 490.167 CURVE SMOOTH",
"601 603.798 OFFCURVE",
"520 700.328 OFFCURVE",
"355 700.328 CURVE SMOOTH"
);
},
{
closed = 1;
nodes = (
"295.286 316.596 LINE",
"475.904 0 LINE",
"611.7 0 LINE",
"424.097 316.596 LINE"
);
}
);
width = 654.2;
},
{
anchors = (
{
name = bottom;
position = "{346.213, 0}";
},
{
name = top;
position = "{296.638, 679.468}";
}
);
hints = (
{
place = "{113, 22}";
type = Stem;
},
{
place = "{514, 22}";
type = Stem;
},
{
horizontal = 1;
place = "{678, 22}";
type = Stem;
},
{
horizontal = 1;
place = "{0, 21}";
target = up;
type = BottomGhost;
}
);
layerId = "6E968933-CD79-43C6-9231-80D77C940F4D";
paths = (
{
closed = 1;
nodes = (
"518.255 401.174 OFFCURVE",
"456.723 325.185 OFFCURVE",
"313.894 325.189 CURVE SMOOTH",
"126.574 325.196 LINE",
"126.574 678.603 LINE",
"311.936 678.603 LINE SMOOTH",
"461.617 678.603 OFFCURVE",
"518.255 610.468 OFFCURVE",
"518.255 502.89 CURVE SMOOTH"
);
},
{
closed = 1;
nodes = (
"104.574 700.044 LINE",
"104.574 0.05 LINE",
"126.574 0.05 LINE",
"126.574 304.763 LINE",
"313.894 304.763 LINE SMOOTH",
"460.638 304.763 OFFCURVE",
"541.298 377.183 OFFCURVE",
"541.298 502.89 CURVE SMOOTH",
"541.298 619.166 OFFCURVE",
"472.043 700.044 OFFCURVE",
"311.936 700.044 CURVE SMOOTH"
);
},
{
closed = 1;
nodes = (
"326.325 313.327 LINE",
"519.062 0.05 LINE",
"546.419 0.05 LINE",
"352.555 313.327 LINE"
);
}
);
width = 598.70638;
},
{
anchors = (
{
name = bottom;
position = "{343.915, 0.575}";
},
{
name = top;
position = "{331.179, 701.575}";
}
);
hints = (
{
place = "{36, 48}";
type = Stem;
},
{
place = "{223, 177}";
type = Stem;
},
{
horizontal = 1;
place = "{369, 168}";
type = Stem;
},
{
horizontal = 1;
place = "{553, 147}";
type = Stem;
},
{
horizontal = 1;
place = "{0, 21}";
target = up;
type = BottomGhost;
}
);
layerId = "BAF31694-0472-4296-B0EA-1654553C45D2";
paths = (
{
closed = 1;
nodes = (
"455.226 417.875 OFFCURVE",
"425.585 386.81 OFFCURVE",
"363.632 386.891 CURVE SMOOTH",
"229.5 387.033 LINE",
"229.5 553.718 LINE",
"363.632 553.718 LINE SMOOTH",
"425.585 553.718 OFFCURVE",
"455.226 520.699 OFFCURVE",
"455.226 470.733 CURVE SMOOTH"
);
},
{
closed = 1;
nodes = (
"53.349 700.159 LINE",
"53.349 0 LINE",
"229.5 0 LINE",
"229.5 262.845 LINE",
"375.142 262.845 LINE SMOOTH",
"554.415 262.845 OFFCURVE",
"634.377 365.691 OFFCURVE",
"634.377 478.67 CURVE SMOOTH",
"634.377 600.79 OFFCURVE",
"547.623 700.159 OFFCURVE",
"375.142 700.159 CURVE SMOOTH"
);
},
{
closed = 1;
nodes = (
"274.959 303.15 LINE",
"441.649 0 LINE",
"640.155 0 LINE",
"462.95 303.15 LINE"
);
}
);
width = 666.8316;
},
{
anchors = (
{
name = bottom;
position = "{296.483, 0}";
},
{
name = top;
position = "{371.994, 679.468}";
}
);
hints = (
{
horizontal = 1;
place = "{6, 2}";
type = Stem;
},
{
horizontal = 1;
place = "{678, 22}";
type = Stem;
},
{
horizontal = 1;
place = "{0, 21}";
target = up;
type = BottomGhost;
}
);
layerId = "F7832249-9EF4-4513-B883-88BAA20BF268";
paths = (
{
closed = 1;
nodes = (
"548.333 401.174 OFFCURVE",
"471.684 325.185 OFFCURVE",
"328.855 325.189 CURVE SMOOTH",
"141.537 325.196 LINE",
"211.841 678.603 LINE",
"397.203 678.603 LINE SMOOTH",
"546.884 678.603 OFFCURVE",
"589.968 610.468 OFFCURVE",
"568.567 502.89 CURVE SMOOTH"
);
},
{
closed = 1;
nodes = (
"194.106 700.044 LINE",
"54.854 0.05 LINE",
"76.854 0.05 LINE",
"137.472 304.763 LINE",
"324.792 304.763 LINE SMOOTH",
"471.536 304.763 OFFCURVE",
"566.602 377.183 OFFCURVE",
"591.61 502.89 CURVE SMOOTH",
"614.741 619.166 OFFCURVE",
"561.574 700.044 OFFCURVE",
"401.468 700.044 CURVE SMOOTH"
);
},
{
closed = 1;
nodes = (
"338.926 313.327 LINE",
"469.342 0.05 LINE",
"496.699 0.05 LINE",
"365.156 313.327 LINE"
);
}
);
width = 598.7016;
},
{
anchors = (
{
name = bottom;
position = "{294.195, 0.575}";
},
{
name = top;
position = "{405.28, 701.575}";
}
);
hints = (
{
horizontal = 1;
place = "{553, 147}";
type = Stem;
},
{
horizontal = 1;
place = "{0, 21}";
target = up;
type = BottomGhost;
}
);
layerId = "9CDD62D3-67F3-4AC7-B192-D539276CE01F";
paths = (
{
closed = 1;
nodes = (
"488.622 417.875 OFFCURVE",
"452.802 386.81 OFFCURVE",
"390.865 386.891 CURVE SMOOTH",
"256.761 387.033 LINE",
"289.915 553.718 LINE",
"424.047 553.718 LINE SMOOTH",
"486 553.718 OFFCURVE",
"509.073 520.699 OFFCURVE",
"499.135 470.733 CURVE SMOOTH"
);
},
{
closed = 1;
nodes = (
"142.891 700.159 LINE",
"3.629 0 LINE",
"179.78 0 LINE",
"232.06 262.845 LINE",
"377.702 262.845 LINE SMOOTH",
"556.975 262.845 OFFCURVE",
"657.393 365.691 OFFCURVE",
"679.864 478.67 CURVE SMOOTH",
"704.154 600.79 OFFCURVE",
"637.164 700.159 OFFCURVE",
"464.683 700.159 CURVE SMOOTH"
);
},
{
closed = 1;
nodes = (
"285.535 303.15 LINE",
"391.929 0 LINE",
"590.435 0 LINE",
"473.527 303.15 LINE"
);
}
);
width = 666.8366;
}
);
leftMetricsKey = H;
rightMetricsKey = "=H/2";
unicode = 0052;
},
{
glyphname = Rcommaaccent;
lastChange = "2021-08-10 05:27:38 +0000";
layers = (
{
anchors = (
{
name = _bottom;
position = "{356, 0}";
}
);
components = (
{
alignment = -1;
name = R;
}
);
hints = (
{
horizontal = 1;
place = "{-143, 96}";
type = Stem;
},
{
horizontal = 1;
place = "{-272, 21}";
target = up;
type = BottomGhost;
}
);
layerId = "24A19461-EE5C-48C0-A968-CC082199DAC2";
paths = (
{
closed = 1;
nodes = (
"292.651 -47 LINE",
"273.551 -143.022 LINE",
"325.485 -143.356 LINE",
"321.278 -164.507 LINE SMOOTH",
"313.62 -203.003 OFFCURVE",
"294.792 -222.251 OFFCURVE",
"261.792 -222.251 CURVE",
"251.907 -271.942 LINE",
"325.907 -271.942 OFFCURVE",
"372.299 -229.752 OFFCURVE",
"388.884 -146.377 CURVE SMOOTH",
"394.684 -117.219 OFFCURVE",
"397.293 -84.089 OFFCURVE",
"395.713 -47 CURVE"
);
}
);
width = 654.21;
},
{
anchors = (
{
name = _bottom;
position = "{356, 0}";
}
);
components = (
{
alignment = -1;
name = R;
}
);
hints = (
{
place = "{302, 116}";
type = Stem;
},
{
place = "{306, 112}";
type = Stem;
},
{
place = "{354, 64}";
type = Stem;
},
{
horizontal = 1;
place = "{-143, 96}";
type = Stem;
},
{
horizontal = 1;
place = "{-272, 21}";
target = up;
type = BottomGhost;
}
);
layerId = "0CF0EA28-C756-4A9E-9D7C-CFEF350B4CFE";
paths = (
{
closed = 1;
nodes = (
"302 -47 LINE",
"302 -143.022 LINE",
"354 -143.356 LINE",
"354 -164.507 LINE SMOOTH",
"354 -203.003 OFFCURVE",
"339 -222.251 OFFCURVE",
"306 -222.251 CURVE",
"306 -271.942 LINE",
"380 -271.942 OFFCURVE",
"418 -229.752 OFFCURVE",
"418 -146.377 CURVE SMOOTH",
"418 -117.219 OFFCURVE",
"414.019 -84.089 OFFCURVE",
"405.062 -47 CURVE"
);
}
);
width = 654.2;
},
{
anchors = (
{
name = _bottom;
position = "{312.936, 0}";
}
);
components = (
{
alignment = -1;
name = R;
}
);
hints = (
{
place = "{308, 24}";
type = Stem;
},
{
horizontal = 1;
place = "{-58, -20}";
target = down;
type = TopGhost;
},
{
horizontal = 1;
place = "{-177, 21}";
target = up;
type = BottomGhost;
}
);
layerId = "6E968933-CD79-43C6-9231-80D77C940F4D";
paths = (
{
closed = 1;
nodes = (
"287.319 -58.367 LINE",
"287.319 -97.39 LINE",
"318.766 -97.397 LINE",
"318.766 -104.659 LINE SMOOTH",
"318.766 -137.593 OFFCURVE",
"307.681 -158.438 OFFCURVE",
"275.66 -158.438 CURVE",
"275.66 -177.013 LINE",
"312.468 -177.013 OFFCURVE",
"341.66 -161.517 OFFCURVE",
"341.66 -90.649 CURVE SMOOTH",
"341.66 -81.27 OFFCURVE",
"340.596 -67.915 OFFCURVE",
"339.427 -58.367 CURVE"
);
}
);
width = 598.70638;
},
{
anchors = (
{
name = _bottom;
position = "{358.302, 0.575}";
}
);
components = (
{
alignment = -1;
name = R;
}
);
hints = (
{
place = "{289, 154}";
type = Stem;
},
{
place = "{332, 111}";
type = Stem;
},
{
place = "{-46, 73}";
type = Stem;
},
{
horizontal = 1;
place = "{-164, 125}";
type = Stem;
},
{
horizontal = 1;
place = "{-115, 21}";
target = up;
type = BottomGhost;
}
);
layerId = "BAF31694-0472-4296-B0EA-1654553C45D2";
paths = (
{
closed = 1;
nodes = (
"289.34 -38.264 LINE",
"289.34 -163.882 LINE",
"352.849 -164.023 LINE",
"352.849 -178.474 LINE SMOOTH",
"352.849 -223.763 OFFCURVE",
"334.972 -244.737 OFFCURVE",
"300.821 -244.737 CURVE",
"300.821 -311.574 LINE",
"397.84 -311.574 OFFCURVE",
"443.321 -247.969 OFFCURVE",
"443.321 -157.74 CURVE SMOOTH",
"443.321 -121.383 OFFCURVE",
"436.968 -80.991 OFFCURVE",
"422.675 -38.264 CURVE"
);
}
);
width = 666.8316;
},
{
anchors = (
{
name = _bottom;
position = "{312.936, 0}";
}
);
components = (
{
alignment = -1;
name = R;
}
);
hints = (
{
horizontal = 1;
place = "{-3, 2}";
type = Stem;
},
{
horizontal = 1;
place = "{-177, 21}";
target = up;
type = BottomGhost;
}
);
layerId = "F7832249-9EF4-4513-B883-88BAA20BF268";
paths = (
{
closed = 1;
nodes = (
"275.709 -58.367 LINE",
"267.947 -97.39 LINE",
"299.392 -97.397 LINE",
"297.948 -104.659 LINE SMOOTH",
"291.397 -137.593 OFFCURVE",
"276.166 -158.438 OFFCURVE",
"244.145 -158.438 CURVE",
"240.449 -177.013 LINE",
"277.258 -177.013 OFFCURVE",
"309.532 -161.517 OFFCURVE",
"323.629 -90.649 CURVE SMOOTH",
"325.494 -81.27 OFFCURVE",
"327.087 -67.915 OFFCURVE",
"327.817 -58.367 CURVE"
);
}
);
width = 598.7066;
},
{
anchors = (
{
name = _bottom;
position = "{358.302, 0.575}";
}
);
components = (
{
alignment = -1;
name = R;
}
);
hints = (
{
horizontal = 1;
place = "{-196, 45}";
type = Stem;
},
{
horizontal = 1;
place = "{-164, 125}";
type = Stem;
}
);
layerId = "9CDD62D3-67F3-4AC7-B192-D539276CE01F";
paths = (
{
closed = 1;
nodes = (
"281.729 -38.264 LINE",
"256.741 -163.882 LINE",
"320.223 -164.023 LINE",
"317.349 -178.474 LINE SMOOTH",
"308.339 -223.763 OFFCURVE",
"286.291 -244.737 OFFCURVE",
"252.14 -244.737 CURVE",
"238.845 -311.574 LINE",
"335.864 -311.574 OFFCURVE",
"393.997 -247.969 OFFCURVE",
"411.944 -157.74 CURVE SMOOTH",
"419.176 -121.383 OFFCURVE",
"420.858 -80.991 OFFCURVE",
"415.064 -38.264 CURVE"
);
}
);
width = 666.8416;
}
);
leftMetricsKey = R;
rightMetricsKey = R;
unicode = 0156;
},
{
glyphname = S;
lastChange = "2021-08-10 05:27:38 +0000";
layers = (
{
anchors = (
{
name = bottom;
position = "{251.81, -7}";
},
{
name = top;
position = "{388.81, 709}";
}
);
hints = (
{
place = "{80, 122}";
type = Stem;
},
{
horizontal = 1;
place = "{-7, 97}";
type = Stem;
},
{
horizontal = 1;
place = "{611, 98}";
type = Stem;
}
);
layerId = "24A19461-EE5C-48C0-A968-CC082199DAC2";
paths = (
{
closed = 1;
nodes = (
"31.14 150.14 LINE",
"38.099 51.731 OFFCURVE",
"129.189 -7.385 OFFCURVE",
"251.341 -7.385 CURVE SMOOTH",
"406.341 -7.385 OFFCURVE",
"511.371 93.335 OFFCURVE",
"532.203 198.084 CURVE SMOOTH",
"583.079 453.913 OFFCURVE",
"195.449 355.207 OFFCURVE",
"226.896 513.338 CURVE SMOOTH",
"240.317 580.82 OFFCURVE",
"297.726 613.051 OFFCURVE",
"363.326 611.036 CURVE SMOOTH",
"429.914 609.163 OFFCURVE",
"470.371 571.572 OFFCURVE",
"474.57 528.24 CURVE",
"593.728 568.789 LINE",
"580.192 658.467 OFFCURVE",
"503.316 708.735 OFFCURVE",
"388.755 708.735 CURVE SMOOTH",
"246.755 708.735 OFFCURVE",
"134.532 632.187 OFFCURVE",
"110.095 509.309 CURVE SMOOTH",
"58.818 251.466 OFFCURVE",
"449.651 361.251 OFFCURVE",
"416.001 192.041 CURVE SMOOTH",
"404.183 132.616 OFFCURVE",
"350.57 89.307 OFFCURVE",
"270.57 89.307 CURVE SMOOTH",
"192.229 89.307 OFFCURVE",
"153.433 134.869 OFFCURVE",
"153.199 191.615 CURVE"
);
}
);
width = 593.53;
},
{
anchors = (
{
name = bottom;
position = "{302.53, -7}";
},
{
name = top;
position = "{297.53, 709}";
}
);
hints = (
{
place = "{59, 116}";
type = Stem;
},
{
place = "{428, 115}";
type = Stem;
},
{
horizontal = 1;
place = "{-7, 97}";
type = Stem;
},
{
horizontal = 1;
place = "{611, 98}";
type = Stem;
}
);
layerId = "0CF0EA28-C756-4A9E-9D7C-CFEF350B4CFE";
paths = (
{
closed = 1;
nodes = (
"51.002 150.14 LINE",
"77.532 51.731 OFFCURVE",
"180.377 -7.385 OFFCURVE",
"302.53 -7.385 CURVE SMOOTH",
"457.53 -7.385 OFFCURVE",
"542.53 93.335 OFFCURVE",
"542.53 198.084 CURVE SMOOTH",
"542.53 453.913 OFFCURVE",
"174.53 355.207 OFFCURVE",
"174.53 513.338 CURVE SMOOTH",
"174.53 580.82 OFFCURVE",
"225.53 613.051 OFFCURVE",
"291.53 611.036 CURVE SMOOTH",
"358.491 609.163 OFFCURVE",
"406.424 571.572 OFFCURVE",
"419.24 528.24 CURVE",
"530.334 568.789 LINE",
"498.964 658.467 OFFCURVE",
"412.092 708.735 OFFCURVE",
"297.53 708.735 CURVE SMOOTH",
"155.53 708.735 OFFCURVE",
"58.53 632.187 OFFCURVE",
"58.53 509.309 CURVE SMOOTH",
"58.53 251.466 OFFCURVE",
"427.53 361.251 OFFCURVE",
"427.53 192.041 CURVE SMOOTH",
"427.53 132.616 OFFCURVE",
"382.53 89.307 OFFCURVE",
"302.53 89.307 CURVE SMOOTH",
"224.188 89.307 OFFCURVE",
"176.332 134.869 OFFCURVE",
"164.813 191.615 CURVE"
);
}
);
width = 593.53;
},
{
anchors = (
{
name = bottom;
position = "{276.643, -0.149}";
},
{
name = top;
position = "{276.536, 679.638}";
}
);
hints = (
{
place = "{73, 22}";
type = Stem;
},
{
place = "{479, 22}";
type = Stem;
},
{
horizontal = 1;
place = "{-7, 21}";
target = up;
type = BottomGhost;
},
{
horizontal = 1;
place = "{692, -20}";
target = down;
type = TopGhost;
}
);
layerId = "6E968933-CD79-43C6-9231-80D77C940F4D";
paths = (
{
closed = 1;
nodes = (
"62.742 139.408 LINE",
"86.304 60.772 OFFCURVE",
"160.402 -6.919 OFFCURVE",
"287.409 -6.919 CURVE SMOOTH",
"427.728 -6.919 OFFCURVE",
"496.09 84.754 OFFCURVE",
"496.09 169.699 CURVE SMOOTH",
"496.09 434.972 OFFCURVE",
"95.792 283.008 OFFCURVE",
"95.792 532.578 CURVE SMOOTH",
"95.792 628.408 OFFCURVE",
"181.047 687.483 OFFCURVE",
"281.302 687.44 CURVE SMOOTH",
"395.176 687.4 OFFCURVE",
"446.631 620.828 OFFCURVE",
"464.204 571.488 CURVE",
"484.43 578.782 LINE",
"462.062 641.961 OFFCURVE",
"401.008 707.035 OFFCURVE",
"281.43 707.035 CURVE SMOOTH",
"154.111 707.035 OFFCURVE",
"73.749 624.636 OFFCURVE",
"73.749 532.492 CURVE SMOOTH",
"73.749 263.284 OFFCURVE",
"474.068 415.484 OFFCURVE",
"474.068 169.57 CURVE SMOOTH",
"474.068 83.643 OFFCURVE",
"402.643 12.654 OFFCURVE",
"287.409 12.654 CURVE SMOOTH",
"153.312 12.654 OFFCURVE",
"101.596 89.421 OFFCURVE",
"83.793 146.993 CURVE"
);
}
);
width = 558.83426;
},
{
anchors = (
{
name = bottom;
position = "{304.222, -2.396}";
},
{
name = top;
position = "{302.099, 704.972}";
}
);
hints = (
{
place = "{38, 179}";
type = Stem;
},
{
place = "{389, 181}";
type = Stem;
},
{
horizontal = 1;
place = "{-6, 138}";
type = Stem;
},
{
horizontal = 1;
place = "{571, 138}";
type = Stem;
}
);
layerId = "BAF31694-0472-4296-B0EA-1654553C45D2";
paths = (
{
closed = 1;
nodes = (
"32.013 172.036 LINE",
"62.394 52.998 OFFCURVE",
"176.192 -6.339 OFFCURVE",
"312.278 -6.339 CURVE SMOOTH",
"476.486 -6.339 OFFCURVE",
"569.543 83.355 OFFCURVE",
"569.543 201.513 CURVE SMOOTH",
"569.543 433.691 OFFCURVE",
"216.505 390.766 OFFCURVE",
"216.505 508.346 CURVE SMOOTH",
"216.505 550.598 OFFCURVE",
"251.834 572.905 OFFCURVE",
"293.797 571.379 CURVE SMOOTH",
"335.728 569.933 OFFCURVE",
"371.389 542.906 OFFCURVE",
"378.43 504.631 CURVE",
"554.489 544.057 LINE",
"525.704 652.296 OFFCURVE",
"432.785 709.767 OFFCURVE",
"295.194 709.767 CURVE SMOOTH",
"148.014 709.767 OFFCURVE",
"37.778 635.324 OFFCURVE",
"37.778 502.667 CURVE SMOOTH",
"35.477 256.031 OFFCURVE",
"388.939 323.631 OFFCURVE",
"388.939 197.377 CURVE SMOOTH",
"388.939 156.03 OFFCURVE",
"354.873 132.197 OFFCURVE",
"308.25 132.197 CURVE SMOOTH",
"262.77 132.197 OFFCURVE",
"224.292 158.409 OFFCURVE",
"212.503 212.553 CURVE"
);
}
);
width = 601.55208;
},
{
anchors = (
{
name = bottom;
position = "{226.892, -0.149}";
},
{
name = top;
position = "{361.934, 679.638}";
}
);
hints = (
{
place = "{2, 3}";
type = Stem;
},
{
horizontal = 1;
place = "{0, 2}";
type = Stem;
},
{
horizontal = 1;
place = "{13, 2}";
type = Stem;
}
);
layerId = "F7832249-9EF4-4513-B883-88BAA20BF268";
paths = (
{
closed = 1;
nodes = (
"40.745 139.408 LINE",
"48.664 60.772 OFFCURVE",
"109.296 -6.919 OFFCURVE",
"236.303 -6.919 CURVE SMOOTH",
"376.622 -6.919 OFFCURVE",
"463.22 84.754 OFFCURVE",
"480.118 169.699 CURVE SMOOTH",
"532.89 434.972 OFFCURVE",
"102.362 283.008 OFFCURVE",
"152.009 532.578 CURVE SMOOTH",
"171.073 628.408 OFFCURVE",
"268.08 687.483 OFFCURVE",
"368.327 687.44 CURVE SMOOTH",
"482.193 687.4 OFFCURVE",
"520.404 620.828 OFFCURVE",
"528.161 571.488 CURVE",
"549.838 578.782 LINE",
"540.04 641.961 OFFCURVE",
"491.931 707.035 OFFCURVE",
"372.353 707.035 CURVE SMOOTH",
"245.033 707.035 OFFCURVE",
"148.28 624.636 OFFCURVE",
"129.949 532.492 CURVE SMOOTH",
"76.395 263.284 OFFCURVE",
"506.991 415.484 OFFCURVE",
"458.071 169.57 CURVE SMOOTH",
"440.978 83.643 OFFCURVE",
"355.43 12.654 OFFCURVE",
"240.196 12.654 CURVE SMOOTH",
"106.099 12.654 OFFCURVE",
"69.654 89.421 OFFCURVE",
"63.305 146.993 CURVE"
);
}
);
width = 558.83426;
},
{
anchors = (
{
name = bottom;
position = "{254.072, -2.396}";
},
{
name = top;
position = "{392.798, 704.972}";
}
);
hints = (
{
place = "{66, 189}";
type = Stem;
},
{
horizontal = 1;
place = "{-6, 138}";
type = Stem;
},
{
horizontal = 1;
place = "{571, 138}";
type = Stem;
}
);
layerId = "9CDD62D3-67F3-4AC7-B192-D539276CE01F";
paths = (
{
closed = 1;
nodes = (
"16.501 172.036 LINE",
"23.208 52.998 OFFCURVE",
"125.206 -6.339 OFFCURVE",
"261.292 -6.339 CURVE SMOOTH",
"425.5 -6.339 OFFCURVE",
"536.394 83.355 OFFCURVE",
"559.894 201.513 CURVE SMOOTH",
"606.068 433.691 OFFCURVE",
"244.494 390.766 OFFCURVE",
"267.877 508.346 CURVE SMOOTH",
"276.281 550.598 OFFCURVE",
"316.045 572.905 OFFCURVE",
"357.705 571.379 CURVE SMOOTH",
"399.349 569.933 OFFCURVE",
"429.635 542.906 OFFCURVE",
"429.063 504.631 CURVE",
"612.963 544.057 LINE",
"605.704 652.296 OFFCURVE",
"524.215 709.767 OFFCURVE",
"386.624 709.767 CURVE SMOOTH",
"239.445 709.767 OFFCURVE",
"114.404 635.324 OFFCURVE",
"88.022 502.667 CURVE",
"36.669 256.031 OFFCURVE",
"403.575 323.631 OFFCURVE",
"378.467 197.377 CURVE SMOOTH",
"370.244 156.03 OFFCURVE",
"331.438 132.197 OFFCURVE",
"284.816 132.197 CURVE SMOOTH",
"239.337 132.197 OFFCURVE",
"206.07 158.409 OFFCURVE",
"205.05 212.553 CURVE"
);
}
);
width = 601.54632;
}
);
leftMetricsKey = "=H*0.6";
rightMetricsKey = "=H*0.6";
unicode = 0053;
},
{
glyphname = Scommaaccent;
lastChange = "2021-08-10 05:27:38 +0000";
layers = (
{
anchors = (
{
name = _bottom;
position = "{295.11, 0}";
}
);
components = (
{
alignment = -1;
name = S;
}
);
hints = (
{
horizontal = 1;
place = "{-143, 96}";
type = Stem;
},
{
horizontal = 1;
place = "{-272, 21}";
target = up;
type = BottomGhost;
}
);
layerId = "24A19461-EE5C-48C0-A968-CC082199DAC2";
paths = (
{
closed = 1;
nodes = (
"230.761 -47 LINE",
"211.661 -143.022 LINE",
"264.595 -143.356 LINE",
"260.388 -164.507 LINE SMOOTH",
"252.73 -203.003 OFFCURVE",
"233.902 -222.251 OFFCURVE",
"199.902 -222.251 CURVE",
"190.017 -271.942 LINE",
"265.017 -271.942 OFFCURVE",
"311.409 -229.752 OFFCURVE",
"327.994 -146.377 CURVE SMOOTH",
"333.793 -117.223 OFFCURVE",
"336.402 -84.089 OFFCURVE",
"333.827 -47 CURVE"
);
}
);
width = 593.11;
},
{
anchors = (
{
name = _bottom;
position = "{295.11, 0}";
}
);
components = (
{
alignment = -1;
name = S;
}
);
hints = (
{
place = "{240, 117}";
type = Stem;
},
{
place = "{244, 113}";
type = Stem;
},
{
place = "{293, 64}";
type = Stem;
},
{
horizontal = 1;
place = "{-143, 96}";
type = Stem;
},
{
horizontal = 1;
place = "{-272, 21}";
target = up;
type = BottomGhost;
}
);
layerId = "0CF0EA28-C756-4A9E-9D7C-CFEF350B4CFE";
paths = (
{
closed = 1;
nodes = (
"240.11 -47 LINE",
"240.11 -143.022 LINE",
"293.11 -143.356 LINE",
"293.11 -164.507 LINE SMOOTH",
"293.11 -203.003 OFFCURVE",
"278.11 -222.251 OFFCURVE",
"244.11 -222.251 CURVE",
"244.11 -271.942 LINE",
"319.11 -271.942 OFFCURVE",
"357.11 -229.752 OFFCURVE",
"357.11 -146.377 CURVE SMOOTH",
"357.11 -117.223 OFFCURVE",
"353.129 -84.089 OFFCURVE",
"343.176 -47 CURVE"
);
}
);
width = 593.53;
},
{
anchors = (
{
name = _bottom;
position = "{291.087, -6.851}";
}
);
components = (
{
alignment = -1;
name = S;
}
);
hints = (
{
place = "{289, 24}";
type = Stem;
},
{
horizontal = 1;
place = "{-58, -20}";
target = down;
type = TopGhost;
},
{
horizontal = 1;
place = "{-177, 21}";
target = up;
type = BottomGhost;
}
);
layerId = "6E968933-CD79-43C6-9231-80D77C940F4D";
paths = (
{
closed = 1;
nodes = (
"266.428 -58.367 LINE",
"266.428 -97.39 LINE",
"297.896 -97.397 LINE",
"297.896 -104.659 LINE SMOOTH",
"297.896 -137.593 OFFCURVE",
"286.811 -158.438 OFFCURVE",
"254.768 -158.438 CURVE",
"254.768 -177.013 LINE",
"291.598 -177.013 OFFCURVE",
"320.79 -161.517 OFFCURVE",
"320.79 -90.649 CURVE SMOOTH",
"320.79 -81.271 OFFCURVE",
"319.726 -67.915 OFFCURVE",
"318.536 -58.367 CURVE"
);
}
);
width = 558.83426;
},
{
anchors = (
{
name = _bottom;
position = "{322.669, 0.575}";
}
);
components = (
{
alignment = -1;
name = S;
}
);
hints = (
{
place = "{253, 154}";
type = Stem;
},
{
place = "{296, 111}";
type = Stem;
},
{
place = "{-72, 73}";
type = Stem;
},
{
horizontal = 1;
place = "{-164, 125}";
type = Stem;
},
{
horizontal = 1;
place = "{-115, 21}";
target = up;
type = BottomGhost;
}
);
layerId = "BAF31694-0472-4296-B0EA-1654553C45D2";
paths = (
{
closed = 1;
nodes = (
"253.283 -38.264 LINE",
"253.283 -163.882 LINE",
"317.217 -164.023 LINE",
"317.217 -178.474 LINE SMOOTH",
"317.217 -223.763 OFFCURVE",
"299.339 -244.737 OFFCURVE",
"264.764 -244.737 CURVE",
"264.764 -311.574 LINE",
"362.207 -311.574 OFFCURVE",
"407.688 -247.969 OFFCURVE",
"407.688 -157.74 CURVE SMOOTH",
"407.688 -121.385 OFFCURVE",
"401.336 -80.991 OFFCURVE",
"386.62 -38.264 CURVE"
);
}
);
width = 601.55208;
},
{
anchors = (
{
name = _bottom;
position = "{290.109, -6.851}";
}
);
components = (
{
alignment = -1;
name = S;
}
);
hints = (
{
horizontal = 1;
place = "{-3, 2}";
type = Stem;
},
{
horizontal = 1;
place = "{-177, 21}";
target = up;
type = BottomGhost;
}
);
layerId = "F7832249-9EF4-4513-B883-88BAA20BF268";
paths = (
{
closed = 1;
nodes = (
"254.818 -58.367 LINE",
"247.056 -97.39 LINE",
"278.522 -97.397 LINE",
"277.078 -104.659 LINE SMOOTH",
"270.527 -137.593 OFFCURVE",
"255.296 -158.438 OFFCURVE",
"223.253 -158.438 CURVE",
"219.558 -177.013 LINE",
"256.388 -177.013 OFFCURVE",
"288.662 -161.517 OFFCURVE",
"302.759 -90.649 CURVE SMOOTH",
"304.624 -81.271 OFFCURVE",
"306.217 -67.915 OFFCURVE",
"306.926 -58.367 CURVE"
);
}
);
width = 558.74702;
},
{
anchors = (
{
name = _bottom;
position = "{322.669, 0.575}";
}
);
components = (
{
alignment = -1;
name = S;
}
);
hints = (
{
horizontal = 1;
place = "{-196, 45}";
type = Stem;
},
{
horizontal = 1;
place = "{-164, 125}";
type = Stem;
}
);
layerId = "9CDD62D3-67F3-4AC7-B192-D539276CE01F";
paths = (
{
closed = 1;
nodes = (
"245.671 -38.264 LINE",
"220.684 -163.882 LINE",
"284.59 -164.023 LINE",
"281.716 -178.474 LINE SMOOTH",
"272.707 -223.763 OFFCURVE",
"250.658 -244.737 OFFCURVE",
"216.083 -244.737 CURVE",
"202.788 -311.574 LINE",
"300.231 -311.574 OFFCURVE",
"358.364 -247.969 OFFCURVE",
"376.312 -157.74 CURVE SMOOTH",
"383.543 -121.385 OFFCURVE",
"385.225 -80.991 OFFCURVE",
"379.008 -38.264 CURVE"
);
}
);
width = 601.1033;
}
);
leftMetricsKey = S;
rightMetricsKey = S;
unicode = 0218;
},
{
glyphname = T;
lastChange = "2021-08-10 05:27:38 +0000";
layers = (
{
anchors = (
{
name = bottom;
position = "{263.785, 0}";
},
{
name = top;
position = "{404.785, 701}";
}
);
hints = (
{
horizontal = 1;
place = "{607, 93}";
type = Stem;
},
{
horizontal = 1;
place = "{0, 21}";
target = up;
type = BottomGhost;
}
);
layerId = "24A19461-EE5C-48C0-A968-CC082199DAC2";
paths = (
{
closed = 1;
nodes = (
"113.583 607.328 LINE",
"329.516 606.994 LINE",
"208.785 0 LINE",
"322.785 0 LINE",
"443.583 607.328 LINE",
"658.583 607.328 LINE",
"677.08 700.328 LINE",
"132.08 700.328 LINE"
);
}
);
width = 630.01;
},
{
anchors = (
{
name = bottom;
position = "{313.5, 0}";
},
{
name = top;
position = "{315.5, 701}";
}
);
hints = (
{
place = "{258, 114}";
type = Stem;
},
{
horizontal = 1;
place = "{607, 93}";
type = Stem;
},
{
horizontal = 1;
place = "{0, 21}";
target = up;
type = BottomGhost;
}
);
layerId = "0CF0EA28-C756-4A9E-9D7C-CFEF350B4CFE";
paths = (
{
closed = 1;
nodes = (
"42.5 607.328 LINE",
"258.5 606.994 LINE",
"258.5 0 LINE",
"372.5 0 LINE",
"372.5 607.328 LINE",
"587.5 607.328 LINE",
"587.5 700.328 LINE",
"42.5 700.328 LINE"
);
}
);
width = 630;
},
{
anchors = (
{
name = bottom;
position = "{295.883, 0}";
},
{
name = top;
position = "{298.862, 679.468}";
}
);
hints = (
{
place = "{294, 22}";
type = Stem;
},
{
horizontal = 1;
place = "{685, -20}";
target = down;
type = TopGhost;
},
{
horizontal = 1;
place = "{0, 21}";
target = up;
type = BottomGhost;
}
);
layerId = "6E968933-CD79-43C6-9231-80D77C940F4D";
paths = (
{
closed = 1;
nodes = (
"52.287 680.549 LINE",
"286.883 680.542 LINE",
"286.883 0.05 LINE",
"308.883 0.05 LINE",
"308.883 680.549 LINE",
"543.457 680.549 LINE",
"543.457 700.044 LINE",
"52.287 700.044 LINE"
);
}
);
width = 595.74468;
},
{
anchors = (
{
name = bottom;
position = "{327.599, 0.575}";
},
{
name = top;
position = "{328.448, 701.575}";
}
);
hints = (
{
place = "{242, 176}";
type = Stem;
},
{
horizontal = 1;
place = "{559, 141}";
type = Stem;
},
{
horizontal = 1;
place = "{0, 21}";
target = up;
type = BottomGhost;
}
);
layerId = "BAF31694-0472-4296-B0EA-1654553C45D2";
paths = (
{
closed = 1;
nodes = (
"26.675 559.387 LINE",
"242.675 559.245 LINE",
"242.675 0 LINE",
"418.825 0 LINE",
"418.825 559.387 LINE",
"635.552 559.387 LINE",
"635.552 700.159 LINE",
"26.675 700.159 LINE"
);
}
);
width = 662.22642;
},
{
anchors = (
{
name = bottom;
position = "{246.139, 0}";
},
{
name = top;
position = "{384.202, 679.468}";
}
);
hints = (
{
horizontal = 1;
place = "{13, 2}";
type = Stem;
},
{
horizontal = 1;
place = "{0, 21}";
target = up;
type = BottomGhost;
}
);
layerId = "F7832249-9EF4-4513-B883-88BAA20BF268";
paths = (
{
closed = 1;
nodes = (
"137.927 680.549 LINE",
"372.521 680.542 LINE",
"237.148 0.05 LINE",
"259.148 0.05 LINE",
"394.523 680.549 LINE",
"629.097 680.549 LINE",
"632.975 700.044 LINE",
"141.805 700.044 LINE"
);
}
);
width = 595.74489;
},
{
anchors = (
{
name = bottom;
position = "{277.884, 0.575}";
},
{
name = top;
position = "{418.309, 701.575}";
}
);
hints = (
{
horizontal = 1;
place = "{559, 141}";
type = Stem;
},
{
horizontal = 1;
place = "{0, 21}";
target = up;
type = BottomGhost;
}
);
layerId = "9CDD62D3-67F3-4AC7-B192-D539276CE01F";
paths = (
{
closed = 1;
nodes = (
"88.222 559.387 LINE",
"304.194 559.245 LINE",
"192.96 0 LINE",
"369.11 0 LINE",
"480.373 559.387 LINE",
"697.099 559.387 LINE",
"725.099 700.159 LINE",
"116.221 700.159 LINE"
);
}
);
width = 662.23642;
}
);
leftMetricsKey = "=H/2";
rightMetricsKey = "=H/2";
unicode = 0054;
},
{
glyphname = Tcommaaccent;
lastChange = "2021-08-10 05:27:38 +0000";
layers = (
{
components = (
{
alignment = -1;
name = T;
}
);
hints = (
{
horizontal = 1;
place = "{-143, 96}";
type = Stem;
},
{
horizontal = 1;
place = "{-272, 21}";
target = up;
type = BottomGhost;
}
);
layerId = "24A19461-EE5C-48C0-A968-CC082199DAC2";
paths = (
{
closed = 1;
nodes = (
"254.651 -47 LINE",
"235.551 -143.022 LINE",
"288.485 -143.356 LINE",
"284.278 -164.507 LINE SMOOTH",
"276.62 -203.003 OFFCURVE",
"256.792 -222.251 OFFCURVE",
"223.792 -222.251 CURVE",
"213.907 -271.942 LINE",
"287.907 -271.942 OFFCURVE",
"334.299 -229.752 OFFCURVE",
"350.884 -146.377 CURVE SMOOTH",
"356.684 -117.219 OFFCURVE",
"359.293 -84.089 OFFCURVE",
"357.713 -47 CURVE"
);
}
);
width = 630;
},
{
components = (
{
alignment = -1;
name = T;
}
);
hints = (
{
place = "{264, 116}";
type = Stem;
},
{
place = "{268, 112}";
type = Stem;
},
{
place = "{317, 63}";
type = Stem;
},
{
horizontal = 1;
place = "{-143, 96}";
type = Stem;
},
{
horizontal = 1;
place = "{-272, 21}";
target = up;
type = BottomGhost;
}
);
layerId = "0CF0EA28-C756-4A9E-9D7C-CFEF350B4CFE";
paths = (
{
closed = 1;
nodes = (
"264 -47 LINE",
"264 -143.022 LINE",
"317 -143.356 LINE",
"317 -164.507 LINE SMOOTH",
"317 -203.003 OFFCURVE",
"301 -222.251 OFFCURVE",
"268 -222.251 CURVE",
"268 -271.942 LINE",
"342 -271.942 OFFCURVE",
"380 -229.752 OFFCURVE",
"380 -146.377 CURVE SMOOTH",
"380 -117.219 OFFCURVE",
"376.019 -84.089 OFFCURVE",
"367.062 -47 CURVE"
);
}
);
width = 630;
},
{
components = (
{
alignment = -1;
name = T;
}
);
hints = (
{
place = "{298, 24}";
type = Stem;
},
{
horizontal = 1;
place = "{-58, -20}";
target = down;
type = TopGhost;
},
{
horizontal = 1;
place = "{-177, 21}";
target = up;
type = BottomGhost;
}
);
layerId = "6E968933-CD79-43C6-9231-80D77C940F4D";
paths = (
{
closed = 1;
nodes = (
"276.234 -58.367 LINE",
"276.234 -97.39 LINE",
"307.702 -97.397 LINE",
"307.702 -104.659 LINE SMOOTH",
"307.702 -137.593 OFFCURVE",
"296.596 -158.438 OFFCURVE",
"264.574 -158.438 CURVE",
"264.574 -177.013 LINE",
"301.383 -177.013 OFFCURVE",
"330.574 -161.517 OFFCURVE",
"330.574 -90.649 CURVE SMOOTH",
"330.574 -81.27 OFFCURVE",
"329.511 -67.915 OFFCURVE",
"328.342 -58.367 CURVE"
);
}
);
width = 595.74468;
},
{
components = (
{
alignment = -1;
name = T;
}
);
hints = (
{
place = "{112, 49}";
type = Stem;
},
{
place = "{263, 152}";
type = Stem;
},
{
place = "{325, 89}";
type = Stem;
},
{
horizontal = 1;
place = "{-164, 125}";
type = Stem;
},
{
horizontal = 1;
place = "{-312, 21}";
target = up;
type = BottomGhost;
}
);
layerId = "BAF31694-0472-4296-B0EA-1654553C45D2";
paths = (
{
closed = 1;
nodes = (
"261.123 -38.264 LINE",
"261.123 -163.882 LINE",
"325.057 -164.023 LINE",
"325.057 -178.474 LINE SMOOTH",
"325.057 -223.763 OFFCURVE",
"306.179 -244.737 OFFCURVE",
"272.604 -244.737 CURVE",
"272.604 -311.574 LINE",
"369.047 -311.574 OFFCURVE",
"414.528 -247.969 OFFCURVE",
"414.528 -157.74 CURVE SMOOTH",
"414.528 -121.389 OFFCURVE",
"408.756 -81.004 OFFCURVE",
"394.458 -38.264 CURVE"
);
}
);
width = 662.22642;
},
{
components = (
{
alignment = -1;
name = T;
}
);
hints = (
{
horizontal = 1;
place = "{-3, 2}";
type = Stem;
},
{
horizontal = 1;
place = "{-177, 21}";
target = up;
type = BottomGhost;
}
);
layerId = "F7832249-9EF4-4513-B883-88BAA20BF268";
paths = (
{
closed = 1;
nodes = (
"264.624 -58.367 LINE",
"256.862 -97.39 LINE",
"288.328 -97.397 LINE",
"286.884 -104.659 LINE SMOOTH",
"280.333 -137.593 OFFCURVE",
"265.081 -158.438 OFFCURVE",
"233.06 -158.438 CURVE",
"229.364 -177.013 LINE",
"266.172 -177.013 OFFCURVE",
"298.446 -161.517 OFFCURVE",
"312.543 -90.649 CURVE SMOOTH",
"314.409 -81.27 OFFCURVE",
"316.002 -67.915 OFFCURVE",
"316.732 -58.367 CURVE"
);
}
);
width = 595.74468;
},
{
components = (
{
alignment = -1;
name = T;
}
);
hints = (
{
horizontal = 1;
place = "{-164, 125}";
type = Stem;
},
{
horizontal = 1;
place = "{-312, 21}";
target = up;
type = BottomGhost;
}
);
layerId = "9CDD62D3-67F3-4AC7-B192-D539276CE01F";
paths = (
{
closed = 1;
nodes = (
"253.512 -38.264 LINE",
"228.524 -163.882 LINE",
"292.43 -164.023 LINE",
"289.556 -178.474 LINE SMOOTH",
"280.547 -223.763 OFFCURVE",
"257.498 -244.737 OFFCURVE",
"223.923 -244.737 CURVE",
"210.628 -311.574 LINE",
"307.071 -311.574 OFFCURVE",
"365.204 -247.969 OFFCURVE",
"383.152 -157.74 CURVE SMOOTH",
"390.382 -121.389 OFFCURVE",
"392.644 -81.004 OFFCURVE",
"386.847 -38.264 CURVE"
);
}
);
width = 662.22642;
}
);
leftMetricsKey = T;
rightMetricsKey = T;
unicode = 021A;
},
{
glyphname = U;
lastChange = "2021-08-10 05:27:38 +0000";
layers = (
{
anchors = (
{
name = ogonek;
position = "{385.03, 0}";
},
{
name = top;
position = "{451.03, 701}";
}
);
hints = (
{
horizontal = 1;
place = "{-7, 100}";
type = Stem;
},
{
horizontal = 1;
place = "{700, -20}";
target = down;
type = TopGhost;
}
);
layerId = "24A19461-EE5C-48C0-A968-CC082199DAC2";
paths = (
{
closed = 1;
nodes = (
"81.847 255.492 LINE SMOOTH",
"46.434 77.446 OFFCURVE",
"163.628 -7.05 OFFCURVE",
"309.628 -7.05 CURVE SMOOTH",
"454.628 -7.05 OFFCURVE",
"609.434 77.446 OFFCURVE",
"644.847 255.492 CURVE SMOOTH",
"733.325 700.328 LINE",
"619.325 700.328 LINE",
"530.447 253.478 LINE SMOOTH",
"508.766 144.474 OFFCURVE",
"427.528 93 OFFCURVE",
"330.528 93 CURVE SMOOTH",
"234.528 93 OFFCURVE",
"173.766 144.474 OFFCURVE",
"195.447 253.478 CURVE SMOOTH",
"284.325 700.328 LINE",
"170.325 700.328 LINE"
);
}
);
width = 724.5;
},
{
anchors = (
{
name = ogonek;
position = "{434.75, 0}";
},
{
name = top;
position = "{361.75, 701}";
}
);
hints = (
{
place = "{80, 114}";
type = Stem;
},
{
place = "{529, 114}";
type = Stem;
},
{
horizontal = 1;
place = "{-7, 100}";
type = Stem;
},
{
horizontal = 1;
place = "{700, -20}";
target = down;
type = TopGhost;
}
);
layerId = "0CF0EA28-C756-4A9E-9D7C-CFEF350B4CFE";
paths = (
{
closed = 1;
nodes = (
"80.75 255.492 LINE SMOOTH",
"80.75 77.446 OFFCURVE",
"214.75 -7.05 OFFCURVE",
"360.75 -7.05 CURVE SMOOTH",
"505.75 -7.05 OFFCURVE",
"643.75 77.446 OFFCURVE",
"643.75 255.492 CURVE SMOOTH",
"643.75 700.328 LINE",
"529.75 700.328 LINE",
"529.75 253.478 LINE SMOOTH",
"529.75 144.474 OFFCURVE",
"458.75 93 OFFCURVE",
"361.75 93 CURVE SMOOTH",
"265.75 93 OFFCURVE",
"194.75 144.474 OFFCURVE",
"194.75 253.478 CURVE SMOOTH",
"194.75 700.328 LINE",
"80.75 700.328 LINE"
);
}
);
width = 724.5;
},
{
anchors = (
{
name = ogonek;
position = "{408.324, 0}";
},
{
name = top;
position = "{344.133, 679.468}";
}
);
hints = (
{
place = "{108, 22}";
type = Stem;
},
{
place = "{556, 22}";
type = Stem;
},
{
horizontal = 1;
place = "{-7, 21}";
target = up;
type = BottomGhost;
},
{
horizontal = 1;
place = "{700, -20}";
target = down;
type = TopGhost;
}
);
layerId = "6E968933-CD79-43C6-9231-80D77C940F4D";
paths = (
{
closed = 1;
nodes = (
"99.346 265.315 LINE SMOOTH",
"99.346 72.737 OFFCURVE",
"208.878 -6.912 OFFCURVE",
"347.048 -6.912 CURVE SMOOTH",
"485.197 -6.912 OFFCURVE",
"589.92 72.737 OFFCURVE",
"589.92 265.315 CURVE SMOOTH",
"589.92 700.044 LINE",
"567.92 700.044 LINE",
"567.92 265.273 LINE SMOOTH",
"567.92 80.003 OFFCURVE",
"468.537 12.733 OFFCURVE",
"347.069 12.733 CURVE SMOOTH",
"223.665 12.733 OFFCURVE",
"121.346 80.003 OFFCURVE",
"121.346 265.273 CURVE SMOOTH",
"121.346 700.044 LINE",
"99.346 700.044 LINE"
);
}
);
width = 689.26596;
},
{
anchors = (
{
name = ogonek;
position = "{438.634, 2.302}";
},
{
name = top;
position = "{356.427, 701.575}";
}
);
hints = (
{
place = "{50, 176}";
type = Stem;
},
{
place = "{486, 176}";
type = Stem;
},
{
horizontal = 1;
place = "{-7, 163}";
type = Stem;
},
{
horizontal = 1;
place = "{700, -20}";
target = down;
type = TopGhost;
}
);
layerId = "BAF31694-0472-4296-B0EA-1654553C45D2";
paths = (
{
closed = 1;
nodes = (
"50.682 284.381 LINE SMOOTH",
"50.682 89.821 OFFCURVE",
"188.134 -6.961 OFFCURVE",
"351.974 -6.961 CURVE SMOOTH",
"515.389 -6.961 OFFCURVE",
"662.021 89.821 OFFCURVE",
"662.021 284.381 CURVE SMOOTH",
"662.021 700.159 LINE",
"486.446 700.159 LINE",
"486.446 283.526 LINE SMOOTH",
"486.446 203.113 OFFCURVE",
"435.012 156.077 OFFCURVE",
"355.276 156.077 CURVE SMOOTH",
"275.965 156.077 OFFCURVE",
"226.257 203.113 OFFCURVE",
"226.257 283.526 CURVE SMOOTH",
"226.257 700.159 LINE",
"50.682 700.159 LINE"
);
}
);
width = 712.70283;
},
{
anchors = (
{
name = ogonek;
position = "{358.595, 0}";
},
{
name = top;
position = "{429.488, 679.468}";
}
);
hints = (
{
horizontal = 1;
place = "{0, 2}";
type = Stem;
},
{
horizontal = 1;
place = "{700, -20}";
target = down;
type = TopGhost;
}
);
layerId = "F7832249-9EF4-4513-B883-88BAA20BF268";
paths = (
{
closed = 1;
nodes = (
"102.396 265.315 LINE SMOOTH",
"64.086 72.737 OFFCURVE",
"157.773 -6.912 OFFCURVE",
"295.943 -6.912 CURVE SMOOTH",
"434.092 -6.912 OFFCURVE",
"554.661 72.737 OFFCURVE",
"592.971 265.315 CURVE SMOOTH",
"679.452 700.044 LINE",
"657.452 700.044 LINE",
"570.962 265.273 LINE SMOOTH",
"534.105 80.003 OFFCURVE",
"421.341 12.733 OFFCURVE",
"299.872 12.733 CURVE SMOOTH",
"176.468 12.733 OFFCURVE",
"87.531 80.003 OFFCURVE",
"124.388 265.273 CURVE SMOOTH",
"210.878 700.044 LINE",
"188.878 700.044 LINE"
);
}
);
width = 689.27574;
},
{
anchors = (
{
name = ogonek;
position = "{389.49, 2.302}";
},
{
name = top;
position = "{446.282, 701.575}";
}
);
hints = (
{
horizontal = 1;
place = "{-7, 163}";
type = Stem;
},
{
horizontal = 1;
place = "{700, -20}";
target = down;
type = TopGhost;
}
);
layerId = "9CDD62D3-67F3-4AC7-B192-D539276CE01F";
paths = (
{
closed = 1;
nodes = (
"57.525 284.381 LINE SMOOTH",
"18.827 89.821 OFFCURVE",
"137.03 -6.961 OFFCURVE",
"300.87 -6.961 CURVE SMOOTH",
"464.285 -6.961 OFFCURVE",
"630.167 89.821 OFFCURVE",
"668.864 284.381 CURVE SMOOTH",
"751.563 700.159 LINE",
"575.987 700.159 LINE",
"493.119 283.526 LINE SMOOTH",
"477.125 203.113 OFFCURVE",
"416.336 156.077 OFFCURVE",
"336.6 156.077 CURVE SMOOTH",
"257.288 156.077 OFFCURVE",
"216.936 203.113 OFFCURVE",
"232.93 283.526 CURVE SMOOTH",
"315.799 700.159 LINE",
"140.223 700.159 LINE"
);
}
);
width = 712.70283;
}
);
leftMetricsKey = "=H*0.95";
rightMetricsKey = "=H*0.95";
unicode = 0055;
},
{
glyphname = V;
lastChange = "2021-08-10 05:27:38 +0000";
layers = (
{
hints = (
{
horizontal = 1;
place = "{0, 21}";
target = up;
type = BottomGhost;
},
{
horizontal = 1;
place = "{700, -20}";
target = down;
type = TopGhost;
}
);
layerId = "24A19461-EE5C-48C0-A968-CC082199DAC2";
paths = (
{
closed = 1;
nodes = (
"329.784 117.394 LINE",
"239.816 700.328 LINE",
"117.906 700.328 LINE",
"240.352 0 LINE",
"372.514 0 LINE",
"772.568 700.328 LINE",
"652.658 700.328 LINE"
);
}
);
width = 711.32334;
},
{
hints = (
{
horizontal = 1;
place = "{0, 21}";
target = up;
type = BottomGhost;
},
{
horizontal = 1;
place = "{700, -20}";
target = down;
type = TopGhost;
}
);
layerId = "0CF0EA28-C756-4A9E-9D7C-CFEF350B4CFE";
paths = (
{
closed = 1;
nodes = (
"356.163 117.394 LINE",
"150.242 700.328 LINE",
"28.332 700.328 LINE",
"290.082 0 LINE",
"422.244 0 LINE",
"682.995 700.328 LINE",
"563.084 700.328 LINE"
);
}
);
width = 711.32667;
},
{
hints = (
{
horizontal = 1;
place = "{700, -20}";
target = down;
type = TopGhost;
},
{
horizontal = 1;
place = "{0, 21}";
target = up;
type = BottomGhost;
}
);
layerId = "6E968933-CD79-43C6-9231-80D77C940F4D";
paths = (
{
closed = 1;
nodes = (
"314.897 31.743 LINE",
"59.963 700.058 LINE",
"34.858 700.058 LINE",
"303.704 0.05 LINE",
"326.09 0.05 LINE",
"595.894 700.058 LINE",
"571.81 700.058 LINE"
);
}
);
width = 630.75163;
},
{
hints = (
{
horizontal = 1;
place = "{0, 21}";
target = up;
type = BottomGhost;
},
{
horizontal = 1;
place = "{700, -20}";
target = down;
type = TopGhost;
}
);
layerId = "BAF31694-0472-4296-B0EA-1654553C45D2";
paths = (
{
closed = 1;
nodes = (
"377.131 176.09 LINE",
"205.528 700.159 LINE",
"17.784 700.159 LINE",
"266.388 0 LINE",
"487.299 0 LINE",
"735.479 700.159 LINE",
"548.584 700.159 LINE"
);
}
);
width = 753.26321;
},
{
hints = (
{
horizontal = 1;
place = "{0, 21}";
target = up;
type = BottomGhost;
},
{
horizontal = 1;
place = "{700, -20}";
target = down;
type = TopGhost;
}
);
layerId = "F7832249-9EF4-4513-B883-88BAA20BF268";
paths = (
{
closed = 1;
nodes = (
"271.479 31.743 LINE",
"149.48 700.058 LINE",
"124.375 700.058 LINE",
"253.981 0.05 LINE",
"276.367 0.05 LINE",
"685.411 700.058 LINE",
"661.328 700.058 LINE"
);
}
);
width = 630.75156;
},
{
hints = (
{
horizontal = 1;
place = "{0, 21}";
target = up;
type = BottomGhost;
},
{
horizontal = 1;
place = "{700, -20}";
target = down;
type = TopGhost;
}
);
layerId = "9CDD62D3-67F3-4AC7-B192-D539276CE01F";
paths = (
{
closed = 1;
nodes = (
"362.426 176.09 LINE",
"295.066 700.159 LINE",
"107.323 700.159 LINE",
"216.656 0 LINE",
"437.568 0 LINE",
"825.018 700.159 LINE",
"638.122 700.159 LINE"
);
}
);
width = 753.25604;
}
);
leftMetricsKey = "=H/3";
rightMetricsKey = "=H/3";
unicode = 0056;
},
{
glyphname = W;
lastChange = "2021-08-10 05:27:38 +0000";
layers = (
{
hints = (
{
place = "{634, 99}";
type = Stem;
},
{
horizontal = 1;
place = "{700, -20}";
target = down;
type = TopGhost;
}
);
layerId = "24A19461-EE5C-48C0-A968-CC082199DAC2";
paths = (
{
closed = 1;
nodes = (
"563.331 529.152 LINE",
"604.422 0 LINE",
"733.56 0 LINE",
"1078.659 700.328 LINE",
"956.721 700.328 LINE",
"698.647 132.087 LINE",
"666.849 700.328 LINE",
"538.718 700.328 LINE",
"269.439 129.74 LINE",
"238.849 700.328 LINE",
"117.905 700.328 LINE",
"175.221 -1.008 LINE",
"303.56 0 LINE"
);
}
);
width = 1017.41;
},
{
hints = (
{
horizontal = 1;
place = "{700, -20}";
target = down;
type = TopGhost;
}
);
layerId = "0CF0EA28-C756-4A9E-9D7C-CFEF350B4CFE";
paths = (
{
closed = 1;
nodes = (
"507.802 529.152 LINE",
"654.142 0 LINE",
"783.28 0 LINE",
"989.084 700.328 LINE",
"867.146 700.328 LINE",
"722.095 132.087 LINE",
"577.274 700.328 LINE",
"449.143 700.328 LINE",
"293.354 129.74 LINE",
"149.274 700.328 LINE",
"28.33 700.328 LINE",
"225.142 -1.008 LINE",
"353.28 0 LINE"
);
}
);
width = 1017.41;
},
{
hints = (
{
horizontal = 1;
place = "{700, -20}";
target = down;
type = TopGhost;
},
{
horizontal = 1;
place = "{0, 21}";
target = up;
type = BottomGhost;
}
);
layerId = "6E968933-CD79-43C6-9231-80D77C940F4D";
paths = (
{
closed = 1;
nodes = (
"452.336 664.179 LINE",
"659.875 0.05 LINE",
"682.197 0.05 LINE",
"871.555 700.044 LINE",
"847.429 700.044 LINE",
"671.127 39.511 LINE",
"464.453 700.044 LINE",
"440.195 700.044 LINE",
"235.05 41.793 LINE",
"58.963 700.044 LINE",
"34.858 700.044 LINE",
"224.024 0.028 LINE",
"244.368 0.05 LINE"
);
}
);
width = 906.41298;
},
{
hints = (
{
horizontal = 1;
place = "{700, -20}";
target = down;
type = TopGhost;
}
);
layerId = "BAF31694-0472-4296-B0EA-1654553C45D2";
paths = (
{
closed = 1;
nodes = (
"520.795 453.109 LINE",
"630.236 0 LINE",
"843.624 0 LINE",
"1024.575 700.159 LINE",
"835.15 700.159 LINE",
"736.474 205.682 LINE",
"619.788 700.159 LINE",
"426.392 700.159 LINE",
"305.05 204.737 LINE",
"206.786 700.159 LINE",
"17.783 700.159 LINE",
"194.917 -0.428 LINE",
"407.881 0 LINE"
);
}
);
width = 1042.3567;
},
{
hints = (
{
place = "{207, 22}";
type = Stem;
},
{
horizontal = 1;
place = "{700, -20}";
target = down;
type = TopGhost;
}
);
layerId = "F7832249-9EF4-4513-B883-88BAA20BF268";
paths = (
{
closed = 1;
nodes = (
"534.723 664.179 LINE",
"610.146 0.05 LINE",
"632.468 0.05 LINE",
"961.077 700.044 LINE",
"936.951 700.044 LINE",
"629.247 39.511 LINE",
"553.975 700.044 LINE",
"529.717 700.044 LINE",
"193.625 41.793 LINE",
"148.485 700.044 LINE",
"124.38 700.044 LINE",
"174.29 0.028 LINE",
"194.638 0.05 LINE"
);
}
);
width = 906.41298;
},
{
hints = (
{
place = "{93, 124}";
type = Stem;
},
{
place = "{621, 148}";
type = Stem;
},
{
horizontal = 1;
place = "{0, 21}";
target = up;
type = BottomGhost;
},
{
horizontal = 1;
place = "{700, -20}";
target = down;
type = TopGhost;
}
);
layerId = "9CDD62D3-67F3-4AC7-B192-D539276CE01F";
paths = (
{
closed = 1;
nodes = (
"561.198 453.109 LINE",
"580.516 0 LINE",
"793.904 0 LINE",
"1114.117 700.159 LINE",
"924.692 700.159 LINE",
"727.664 205.682 LINE",
"709.33 700.159 LINE",
"515.934 700.159 LINE",
"296.053 204.737 LINE",
"296.328 700.159 LINE",
"107.325 700.159 LINE",
"145.112 -0.428 LINE",
"358.161 0 LINE"
);
}
);
width = 1042.3567;
}
);
leftMetricsKey = V;
rightMetricsKey = V;
unicode = 0057;
},
{
glyphname = X;
lastChange = "2021-08-10 05:29:17 +0000";
layers = (
{
hints = (
{
horizontal = 1;
place = "{0, 21}";
target = up;
type = BottomGhost;
},
{
horizontal = 1;
place = "{700, -20}";
target = down;
type = TopGhost;
}
);
layerId = "24A19461-EE5C-48C0-A968-CC082199DAC2";
paths = (
{
closed = 1;
nodes = (
"438.473 0 LINE",
"566.255 0 LINE",
"273.971 700.328 LINE",
"146.189 700.328 LINE"
);
},
{
closed = 1;
nodes = (
"318.192 380.2 LINE",
"7.885 0 LINE",
"134.666 0 LINE",
"361.485 291.724 LINE"
);
},
{
closed = 1;
nodes = (
"396.053 319.129 LINE",
"706.559 700.328 LINE",
"579.778 700.328 LINE",
"352.76 407.604 LINE"
);
}
);
width = 673.59;
},
{
hints = (
{
horizontal = 1;
place = "{700, -20}";
target = down;
type = TopGhost;
},
{
horizontal = 1;
place = "{0, 21}";
target = up;
type = BottomGhost;
}
);
layerId = "0CF0EA28-C756-4A9E-9D7C-CFEF350B4CFE";
paths = (
{
closed = 1;
nodes = (
"488.193 0 LINE",
"615.975 0 LINE",
"184.387 700.328 LINE",
"56.605 700.328 LINE"
);
},
{
closed = 1;
nodes = (
"292.285 380.2 LINE",
"57.605 0 LINE",
"184.386 0 LINE",
"353.177 291.724 LINE"
);
},
{
closed = 1;
nodes = (
"382.295 319.129 LINE",
"616.975 700.328 LINE",
"490.194 700.328 LINE",
"321.403 407.604 LINE"
);
}
);
width = 673.58;
},
{
hints = (
{
horizontal = 1;
place = "{700, -20}";
target = down;
type = TopGhost;
},
{
horizontal = 1;
place = "{0, 21}";
target = up;
type = BottomGhost;
}
);
layerId = "6E968933-CD79-43C6-9231-80D77C940F4D";
paths = (
{
closed = 1;
nodes = (
"486.957 0.05 LINE",
"512.186 0.05 LINE",
"94.876 700.058 LINE",
"69.646 700.058 LINE"
);
},
{
closed = 1;
nodes = (
"284.108 369.183 LINE",
"69.668 0.05 LINE",
"94.876 0.05 LINE",
"301.063 357.569 LINE"
);
},
{
closed = 1;
nodes = (
"299.725 344.528 LINE",
"512.208 700.058 LINE",
"487 700.058 LINE",
"282.77 356.142 LINE"
);
}
);
width = 581.85404;
},
{
hints = (
{
horizontal = 1;
place = "{700, -20}";
target = down;
type = TopGhost;
},
{
horizontal = 1;
place = "{0, 21}";
target = up;
type = BottomGhost;
}
);
layerId = "BAF31694-0472-4296-B0EA-1654553C45D2";
paths = (
{
closed = 1;
nodes = (
"508.156 0 LINE",
"714.386 0 LINE",
"241.756 700.159 LINE",
"35.525 700.159 LINE"
);
},
{
closed = 1;
nodes = (
"294.717 398.413 LINE",
"41.811 0 LINE",
"241.762 0 LINE",
"396.222 262.441 LINE"
);
},
{
closed = 1;
nodes = (
"450.866 301.89 LINE",
"703.773 700.159 LINE",
"503.819 700.159 LINE",
"349.938 437.862 LINE"
);
}
);
width = 749.91752;
},
{
hints = (
{
horizontal = 1;
place = "{0, 21}";
target = up;
type = BottomGhost;
},
{
horizontal = 1;
place = "{700, -20}";
target = down;
type = TopGhost;
}
);
layerId = "F7832249-9EF4-4513-B883-88BAA20BF268";
paths = (
{
closed = 1;
nodes = (
"437.237 0.05 LINE",
"462.466 0.05 LINE",
"184.396 700.058 LINE",
"159.167 700.058 LINE"
);
},
{
closed = 1;
nodes = (
"307.813 369.183 LINE",
"19.948 0.05 LINE",
"45.156 0.05 LINE",
"322.458 357.569 LINE"
);
},
{
closed = 1;
nodes = (
"318.526 344.528 LINE",
"601.728 700.058 LINE",
"576.52 700.058 LINE",
"303.882 356.142 LINE"
);
}
);
width = 581.85426;
},
{
hints = (
{
horizontal = 1;
place = "{0, 21}";
target = up;
type = BottomGhost;
},
{
horizontal = 1;
place = "{700, -20}";
target = down;
type = TopGhost;
}
);
layerId = "9CDD62D3-67F3-4AC7-B192-D539276CE01F";
paths = (
{
closed = 1;
nodes = (
"458.436 0 LINE",
"664.666 0 LINE",
"331.306 700.159 LINE",
"125.076 700.159 LINE"
);
},
{
closed = 1;
nodes = (
"324.247 398.413 LINE",
"-7.909 0 LINE",
"192.042 0 LINE",
"398.705 262.441 LINE"
);
},
{
closed = 1;
nodes = (
"461.195 301.89 LINE",
"793.323 700.159 LINE",
"593.369 700.159 LINE",
"387.314 437.862 LINE"
);
}
);
width = 750.34642;
}
);
leftMetricsKey = "=H*0.666";
rightMetricsKey = "=H*0.666";
unicode = 0058;
},
